<svg xmlns="http://www.w3.org/2000/svg" viewBox="0 0 98 80">
<path fill="#4dbbeb" d="M91.416 16.556l-5.314-.483v42.512c0 2.737-2.094 4.83-4.831 4.83H7.037l-.161.806c-.323 2.576 1.61 4.992 4.347 5.314l74.396 8.373c2.576.322 4.991-1.61 5.314-4.348l4.83-51.69c.322-2.576-1.61-4.992-4.347-5.314"/>
<path fill="#fff" d="M81.27 63.416H7.198c-2.737 0-4.83-2.094-4.83-4.831V7.055c0-2.737 2.093-4.83 4.83-4.83h74.074c2.737 0 4.83 2.093 4.83 4.83v51.53c0 2.737-2.093 4.83-4.83 4.83"/>
<path fill="#feb756" d="M5.367 26.437h81.668V12.909H5.367z"/>
<path fill="#ffcd19" d="M55.286 56.754H81.05V42.26H55.286z"/>
<path fill="#120b69" d="M81.27 3.835a3.23 3.23 0 0 1 3.221 3.22v51.53a3.23 3.23 0 0 1-3.22 3.22H7.197a3.23 3.23 0 0 1-3.22-3.22V7.055a3.23 3.23 0 0 1 3.22-3.22zm0 61.191c3.543 0 6.442-2.898 6.442-6.441V7.055c0-3.542-2.899-6.44-6.441-6.44H7.197c-3.542 0-6.44 2.898-6.44 6.44v51.53c0 3.543 2.898 6.441 6.44 6.441h74.074z"/>
<path fill="#120b69" d="M3.977 11.887h80.514v9.661H3.978zm83.735 11.272V10.276c0-.966-.644-1.61-1.61-1.61H2.367c-.967 0-1.61.644-1.61 1.61V23.16c0 .966.643 1.61 1.61 1.61h83.735c.966 0 1.61-.644 1.61-1.61z"/>
<path fill="#120b69" d="M53.896 40.872H76.44v11.272H53.896zM79.66 53.754V39.262c0-.967-.644-1.61-1.61-1.61H52.286c-.967 0-1.61.643-1.61 1.61v14.492c0 .966.643 1.61 1.61 1.61H78.05c.966 0 1.61-.644 1.61-1.61z"/><path fill="#120b69" d="M21.69 34.43H8.808c-.966 0-1.61-.644-1.61-1.61 0-.966.644-1.61 1.61-1.61H21.69c.966 0 1.61.644 1.61 1.61 0 .966-.644 1.61-1.61 1.61z"/>
<path fill="#120b69" d="M41.014 34.43H28.13c-.966 0-1.61-.644-1.61-1.61 0-.966.644-1.61 1.61-1.61h12.882c.967 0 1.61.644 1.61 1.61 0 .966-.643 1.61-1.61 1.61z"/>
<path fill="#120b69" d="M29.742 40.872H8.808c-.966 0-1.61-.644-1.61-1.61 0-.967.644-1.61 1.61-1.61h20.934c.966 0 1.61.643 1.61 1.61 0 .966-.644 1.61-1.61 1.61z"/>
<path fill="#120b69" d="M41.014 40.872h-4.831c-.967 0-1.61-.644-1.61-1.61 0-.967.643-1.61 1.61-1.61h4.83c.967 0 1.61.643 1.61 1.61.001.966-.643 1.61-1.61 1.61z"/>
<path fill="#120b69" d="M8.647 65.026H81.27c3.542 0 6.44-2.899 6.44-6.441v-40.74l3.705.322c.805 0 1.61.483 2.093 1.127.483.644.805 1.61.644 2.415l-4.83 51.69c-.162 1.772-1.772 3.06-3.543 2.899l-74.235-8.373c-1.61-.161-2.737-1.45-2.898-2.899zm77.455 14.493c3.22 0 6.119-2.416 6.441-5.475l4.83-51.69c.162-1.611-.321-3.382-1.448-4.67-1.128-1.45-2.577-2.255-4.348-2.416l-5.314-.644c-.483-.161-.966 0-1.288.322-.323.161-.484.644-.484 1.127v42.512a3.23 3.23 0 0 1-3.22 3.22H7.036c-.805 0-1.449.645-1.449 1.45l-.16.805a6.266 6.266 0 0 0 5.635 7.085l74.396 8.374h.644z"/>
</svg>