<svg viewBox="0 0 64 64" xmlns="http://www.w3.org/2000/svg"><g id="Condominium-3" data-name="Condominium"><path d="m9 11h46v47h-46z" fill="#c6c5ca"/><path d="m27 29h10v10h-10z" fill="#c2dff6"/><g fill="#83d8f4"><path d="m13 29h10v10h-10z"/><path d="m41 29h10v10h-10z"/><path d="m27 15h10v10h-10z"/></g><path d="m13 15h10v10h-10z" fill="#c2dff6"/><path d="m41 15h10v10h-10z" fill="#83d8f4"/><path d="m13 43h10v10h-10z" fill="#83d8f4"/><path d="m27 43h10v10h-10z" fill="#83d8f4"/><path d="m42 43h8v12h-8z" fill="#898890"/><path d="m40 55h12v3h-12z" fill="#57565c"/><path d="m6 7h52v4h-52z" fill="#ed1c24"/><path d="m62 57h-1a1 1 0 0 0 0 2h1a1 1 0 0 0 0-2z"/><path d="m27 40h10a1 1 0 0 0 1-1v-10a1 1 0 0 0 -1-1h-10a1 1 0 0 0 -1 1v10a1 1 0 0 0 1 1zm1-2v-2h3v2zm8 0h-3v-2h3zm-8-8h8v4h-8z"/><path d="m13 40h10a1 1 0 0 0 1-1v-10a1 1 0 0 0 -1-1h-10a1 1 0 0 0 -1 1v10a1 1 0 0 0 1 1zm1-2v-2h3v2zm8 0h-3v-2h3zm-8-8h8v4h-8z"/><path d="m41 40h10a1 1 0 0 0 1-1v-10a1 1 0 0 0 -1-1h-10a1 1 0 0 0 -1 1v10a1 1 0 0 0 1 1zm1-2v-2h3v2zm8 0h-3v-2h3zm-8-8h8v4h-8z"/><path d="m27 26h10a1 1 0 0 0 1-1v-10a1 1 0 0 0 -1-1h-10a1 1 0 0 0 -1 1v10a1 1 0 0 0 1 1zm1-2v-2h3v2zm8 0h-3v-2h3zm-8-8h8v4h-8z"/><path d="m13 26h10a1 1 0 0 0 1-1v-10a1 1 0 0 0 -1-1h-10a1 1 0 0 0 -1 1v10a1 1 0 0 0 1 1zm1-2v-2h3v2zm8 0h-3v-2h3zm-8-8h8v4h-8z"/><path d="m41 26h10a1 1 0 0 0 1-1v-10a1 1 0 0 0 -1-1h-10a1 1 0 0 0 -1 1v10a1 1 0 0 0 1 1zm1-2v-2h3v2zm8 0h-3v-2h3zm-8-8h8v4h-8z"/><path d="m13 54h10a1 1 0 0 0 1-1v-10a1 1 0 0 0 -1-1h-10a1 1 0 0 0 -1 1v10a1 1 0 0 0 1 1zm1-2v-2h3v2zm8 0h-3v-2h3zm-8-8h8v4h-8z"/><path d="m27 54h10a1 1 0 0 0 1-1v-10a1 1 0 0 0 -1-1h-10a1 1 0 0 0 -1 1v10a1 1 0 0 0 1 1zm1-2v-2h3v2zm8 0h-3v-2h3zm-8-8h8v4h-8z"/><path d="m58 6h-52a1 1 0 0 0 -1 1v4a1 1 0 0 0 1 1h2v45h-6a1 1 0 0 0 0 2h56a1 1 0 0 0 0-2h-2v-45h2a1 1 0 0 0 1-1v-4a1 1 0 0 0 -1-1zm-17 51v-1h10v1zm8-3h-6v-10h6zm5 3h-1v-2a1 1 0 0 0 -1-1h-1v-11a1 1 0 0 0 -1-1h-8a1 1 0 0 0 -1 1v11h-1a1 1 0 0 0 -1 1v2h-29v-45h44zm3-47h-50v-2h50z"/></g></svg>