<svg xmlns="http://www.w3.org/2000/svg" viewBox="0 0 95 97"><g><g opacity=".34"><path fill="#fff" d="M30.757 9.353a1.405 1.405 0 1 1 2.152-1.806 1.405 1.405 0 0 1-2.152 1.806z"/></g><g opacity=".34"><path fill="#fff" d="M20.097 18.298a1.181 1.181 0 1 1 1.81-1.52 1.181 1.181 0 0 1-1.81 1.52z"/></g><g opacity=".34"><path fill="#fff" d="M55.063 15.597a1.628 1.628 0 1 1 2.302-2.303 1.628 1.628 0 0 1-2.302 2.303z"/></g><g opacity=".34"><path fill="#fff" d="M45.223 25.435a1.405 1.405 0 1 1 1.987-1.987 1.405 1.405 0 0 1-1.987 1.987z"/></g><g opacity=".34"><path fill="#fff" d="M35.384 35.276a1.18 1.18 0 0 1 0-1.67 1.181 1.181 0 1 1 0 1.67z"/></g><g opacity=".34"><path fill="#fff" d="M87.87 8.218a2.074 2.074 0 1 1 2.667-3.177 2.074 2.074 0 0 1-2.667 3.177z"/></g><g opacity=".34"><path fill="#fff" d="M78.925 18.876a1.85 1.85 0 1 1 2.378-2.834 1.85 1.85 0 0 1-2.378 2.834z"/></g><g opacity=".34"><path fill="#fff" d="M69.981 29.537a1.627 1.627 0 1 1 2.092-2.494 1.627 1.627 0 0 1-2.092 2.494z"/></g><g opacity=".34"><path fill="#fff" d="M61.036 40.196a1.405 1.405 0 1 1 1.806-2.152 1.405 1.405 0 0 1-1.806 2.153z"/></g><g opacity=".34"><path fill="#fff" d="M52.092 50.856a1.182 1.182 0 1 1 1.519-1.811 1.182 1.182 0 0 1-1.52 1.81z"/></g><g opacity=".34"><path fill="#fff" d="M102.02 19.327a2.073 2.073 0 1 1 2.378-3.397 2.073 2.073 0 0 1-2.377 3.397z"/></g><g opacity=".34"><path fill="#fff" d="M94.038 30.726a1.85 1.85 0 1 1 2.124-3.032 1.85 1.85 0 0 1-2.124 3.032z"/></g><g opacity=".34"><path fill="#fff" d="M86.057 42.124a1.627 1.627 0 1 1 1.865-2.666 1.627 1.627 0 0 1-1.865 2.666z"/></g><g opacity=".34"><path fill="#fff" d="M78.076 53.523a1.404 1.404 0 1 1 1.609-2.301 1.404 1.404 0 0 1-1.61 2.301z"/></g><g opacity=".34"><path fill="#fff" d="M70.094 64.92a1.182 1.182 0 1 1 1.356-1.936 1.182 1.182 0 0 1-1.356 1.936z"/></g><g opacity=".34"><path fill="#fff" d="M103.17 53.264a1.63 1.63 0 0 1-.596-2.225 1.628 1.628 0 1 1 .596 2.225z"/></g><g opacity=".34"><path fill="#fff" d="M96.212 65.315a1.406 1.406 0 0 1 1.405-2.435 1.405 1.405 0 0 1-1.405 2.435z"/></g><g opacity=".34"><path fill="#fff" d="M89.254 77.365a1.183 1.183 0 1 1 1.184-2.048 1.183 1.183 0 0 1-1.184 2.048z"/></g><g><path fill="#fff" d="M30.033 11.759H73.26a6.65 6.65 0 0 1 6.65 6.65v71.488a6.65 6.65 0 0 1-6.65 6.65H30.033a6.65 6.65 0 0 1-6.65-6.65V18.409a6.65 6.65 0 0 1 6.65-6.65z"/></g><g><path fill="#ffcd19" d="M84.983 18.409a6.65 6.65 0 1 1-13.3 0 6.65 6.65 0 0 1 13.3 0z"/></g><g><g><path fill="#649454" d="M64.946 43.347H36.683a1.663 1.663 0 0 1 0-3.326h28.263a1.662 1.662 0 1 1 0 3.326z"/></g><g><path fill="#649454" d="M64.946 51.659H41.67a1.663 1.663 0 1 1 0-3.325h23.275a1.662 1.662 0 1 1 0 3.325z"/></g><g><path fill="#649454" d="M64.946 59.972H53.308a1.663 1.663 0 1 1 0-3.326h11.638a1.662 1.662 0 1 1 0 3.326z"/></g></g><g><path fill="#d87d00" d="M31.099 96.291l-1.097-4.1a.832.832 0 0 0-1.01-.582l-4.098 1.1a.83.83 0 0 1-.926-1.208l9.39-16.566 8.645 4.987-9.39 16.567a.831.831 0 0 1-1.514-.198z"/></g><g><path fill="#2695c6" d="M15.16 39l30.093 26.015L79.95 76.406l-7.481 12.96L7.678 51.96z"/></g><g><path fill="#4dbbeb" d="M58.44 92.64l-26.317-17L4.242 61.35a7.822 7.822 0 0 1-2.864-10.686l.783-1.355a7.824 7.824 0 0 1 10.686-2.865l26.317 17.008 27.881 14.29a7.823 7.823 0 0 1 2.865 10.685l-.001.002-.783 1.354A7.822 7.822 0 0 1 58.44 92.64z"/></g><g><path fill="#feb756" d="M39.101 60.3l5.759 3.325a1.663 1.663 0 0 1 .609 2.271L34.663 84.613a1.663 1.663 0 0 1-2.271.61l-5.76-3.326a1.663 1.663 0 0 1-.608-2.271L36.83 60.909a1.663 1.663 0 0 1 2.271-.61z"/></g><g><path fill="#120b69" d="M89.402 18.92l1.792 5.539-5.184 2.649c-.311.159-.565.413-.723.724l-2.652 5.183-5.54-1.792c-.332-.109-.69-.109-1.022 0l-5.54 1.792-2.648-5.183a1.656 1.656 0 0 0-.725-.724l-5.184-2.65 1.792-5.538c.11-.332.11-.69 0-1.023l-1.792-5.538 5.185-2.649c.311-.159.565-.413.724-.724l2.649-5.184 5.54 1.793c.331.107.69.107 1.022 0l5.54-1.793 2.647 5.184c.16.311.412.565.724.724l5.184 2.65-1.793 5.537a1.67 1.67 0 0 0 0 1.023zm3.324-.511l2.063-6.374c.252-.78-.1-1.626-.831-1.995l-5.96-3.046-3.048-5.967a1.661 1.661 0 0 0-1.994-.831l-6.373 2.07L70.207.201a1.663 1.663 0 0 0-1.995.832l-3.043 5.96-5.967 3.047c-.027.015-.046.04-.072.055H30.033a8.323 8.323 0 0 0-8.313 8.313v22.86a1.662 1.662 0 0 0 3.326 0v-22.86a4.988 4.988 0 0 1 4.987-4.988h28.793l1.615 4.988-2.063 6.373c-.253.78.1 1.626.83 1.995l5.967 3.048 3.048 5.967a1.663 1.663 0 0 0 1.995.831l6.366-2.071 1.663.539v36.518a1.662 1.662 0 1 0 3.325 0V36.166l1.388.449c.778.252 1.625-.1 1.995-.83l3.048-5.968 5.966-3.048a1.662 1.662 0 0 0 .832-1.994z"/></g><g><path fill="#120b69" d="M76.583 23.396a4.987 4.987 0 1 1 0-9.974 4.987 4.987 0 0 1 0 9.974zm0-13.3a8.312 8.312 0 1 0 8.313 8.312 8.323 8.323 0 0 0-8.313-8.312z"/></g><g><path fill="#120b69" d="M36.683 43.347h28.263a1.663 1.663 0 0 0 0-3.326H36.683a1.663 1.663 0 1 0 0 3.326z"/></g><g><path fill="#120b69" d="M64.946 48.334H41.67a1.663 1.663 0 1 0 0 3.326h23.275a1.663 1.663 0 0 0 0-3.326z"/></g><g><path fill="#120b69" d="M64.946 56.646H53.308a1.663 1.663 0 0 0 0 3.326h11.638a1.662 1.662 0 1 0 0-3.326z"/></g><g><path fill="#120b69" d="M40.008 26.722h9.975a1.663 1.663 0 0 0 0-3.326h-9.975a4.988 4.988 0 0 0 0 9.975h9.975a1.663 1.663 0 1 0 0-3.325h-9.975a1.662 1.662 0 0 1 0-3.324z"/></g></g></svg>