<svg xmlns="http://www.w3.org/2000/svg" viewBox="0 0 111 111"><g><g><path fill="#fff" d="M80.805 60.875h.293c-7.332 10.997-6.58 11.987-8.358 20.547-.605 2.95-3.116 5.113-6.14 5.113H44.275c-3.024 0-5.535-2.162-6.14-5.113-1.778-8.56-1.026-9.55-8.358-20.547h.294a34.611 34.611 0 0 1-9.458-23.827c0-19.227 15.598-34.825 34.825-34.825 19.226 0 34.824 15.598 34.824 34.825 0 9.22-3.592 17.614-9.457 23.827z"/></g><g><path fill="#feb756" d="M47.772 55.377V13.22h-5.499a3.666 3.666 0 0 0-3.665 3.665v1.833h-3.666a3.666 3.666 0 0 0-3.666 3.666v7.331h-1.833a3.666 3.666 0 0 0-3.666 3.666v12.83h7.332v5.499a3.666 3.666 0 0 0 3.666 3.666z"/></g><g><path fill="#4dbbeb" d="M62.103 55.377V13.22h5.499a3.666 3.666 0 0 1 3.666 3.665v1.833h3.665a3.666 3.666 0 0 1 3.666 3.666v7.331h1.833a3.666 3.666 0 0 1 3.666 3.666v9.164h-7.332v9.165a3.666 3.666 0 0 1-3.665 3.666z"/></g><g><g><path fill="#2e5166" d="M68.268 46.212h-3.666v-3.665c0-1.013.82-1.833 1.833-1.833h7.331v3.665h-5.498z"/></g><g><path fill="#2e5166" d="M68.268 31.55h-3.666v-3.666h-5.499v-3.666h7.332c1.013 0 1.833.82 1.833 1.833z"/></g></g><g><g><path fill="#e15d2d" d="M38.942 46.212h-3.666v-7.331c0-1.012.82-1.833 1.833-1.833h5.499v3.666h-3.666z"/></g><g><path fill="#e15d2d" d="M40.775 24.218v-5.499h3.665v5.499z"/></g></g><g><g><path fill="#ffbe00" d="M44.44 86.535h21.995a3.666 3.666 0 1 1 0 7.331H44.44a3.666 3.666 0 1 1 0-7.331z"/></g><g><path fill="#ffbe00" d="M46.273 93.867h18.329a3.666 3.666 0 1 1 0 7.331H46.273a3.666 3.666 0 1 1 0-7.331z"/></g><g><path fill="#ffbe00" d="M48.106 101.198H62.77a3.666 3.666 0 1 1 0 7.331H48.106a3.666 3.666 0 1 1 0-7.331z"/></g></g><g><path fill="#e15d2d" d="M46.242 55.057l5.5 31.16-3.61.636-5.498-31.16z"/></g><g><path fill="#2e5166" d="M64.63 55.057l3.608.638-5.503 31.16-3.608-.638z"/></g><g><path fill="#e7343a" d="M103.092 66.374a1.835 1.835 0 0 1-1.768-1.35l-4.237-15.535-3.353 6.707a1.833 1.833 0 0 1-1.639 1.013h-7.332v-3.666h6.199l4.992-9.984a1.813 1.813 0 0 1 1.82-1.004 1.835 1.835 0 0 1 1.588 1.342l4.06 14.885 1.634-4.087c.284-.708 1.02-1.128 1.74-1.152l3.665.074-.075 3.666-2.396-.049-3.195 7.988a1.834 1.834 0 0 1-1.703 1.152z"/></g><g><path fill="#120b69" d="M38.942 46.212v-5.498h3.666v-3.666h-5.5c-1.012 0-1.832.82-1.832 1.833v5.498H31.61V33.382c0-1.01.822-1.833 1.833-1.833h1.833c1.013 0 1.833-.82 1.833-1.833v-7.331c0-1.01.821-1.833 1.833-1.833h1.833v3.666h3.665v-7.332c0-1.01.822-1.833 1.833-1.833h3.666v38.49h-9.164a1.835 1.835 0 0 1-1.833-1.832zm21.994-18.328h3.666v3.665h3.666v-5.498c0-1.013-.82-1.833-1.833-1.833h-5.499v-9.165h3.666c1.011 0 1.833.823 1.833 1.833v1.833c0 1.012.82 1.833 1.833 1.833h3.665c1.012 0 1.833.823 1.833 1.833v7.331c0 1.013.82 1.833 1.833 1.833h1.833c1.011 0 1.833.823 1.833 1.833v7.332h-12.83c-1.013 0-1.833.82-1.833 1.832v3.666h3.666V44.38h3.665v7.332c0 1.01-.821 1.833-1.832 1.833h-9.165zm18.535 31.733a1.84 1.84 0 0 0-.496 1.144c-5.862 8.898-6.315 11.313-7.366 16.896-.187 1-.397 2.11-.664 3.397-.44 2.148-2.228 3.648-4.345 3.648h-3.48l4.852-27.493H70.1a5.505 5.505 0 0 0 5.498-5.498v-7.332h5.499c1.013 0 1.833-.82 1.833-1.832v-9.165a5.505 5.505 0 0 0-5.499-5.498v-5.499a5.505 5.505 0 0 0-5.499-5.499h-1.832a5.505 5.505 0 0 0-5.5-5.498h-5.498c-1.013 0-1.833.82-1.833 1.833v42.156c0 1.012.82 1.832 1.833 1.832h5.148l-4.852 27.493h-7.923L46.624 57.21h5.148c1.013 0 1.833-.82 1.833-1.832V13.22c0-1.013-.82-1.833-1.833-1.833h-5.499a5.505 5.505 0 0 0-5.498 5.498h-1.833a5.505 5.505 0 0 0-5.499 5.499v5.499a5.505 5.505 0 0 0-5.498 5.498v12.83c0 1.012.82 1.833 1.832 1.833h5.5v3.666a5.505 5.505 0 0 0 5.498 5.498h2.129l4.851 27.493h-3.48c-2.117 0-3.905-1.5-4.345-3.653a173.455 173.455 0 0 1-.664-3.392c-1.05-5.583-1.504-7.998-7.366-16.896a1.84 1.84 0 0 0-.495-1.144c-5.778-6.12-8.959-14.134-8.959-22.57 0-18.19 14.8-32.99 32.992-32.99 18.19 0 32.991 14.8 32.991 32.99 0 8.436-3.18 16.45-8.958 22.57zm-16.702 47.08H48.106a1.835 1.835 0 0 1-1.833-1.833c0-1.01.822-1.833 1.833-1.833H62.77c1.011 0 1.833.823 1.833 1.833s-.822 1.833-1.833 1.833zm3.666-9.164c0 1.01-.822 1.832-1.833 1.832H46.273a1.835 1.835 0 0 1-1.833-1.832c0-1.01.822-1.833 1.833-1.833h18.329c1.011 0 1.833.822 1.833 1.833zm0-9.165c1.011 0 1.833.823 1.833 1.833s-.822 1.833-1.833 1.833H44.44a1.835 1.835 0 0 1-1.832-1.833c0-1.01.821-1.833 1.832-1.833zm40.36-34.824c-.72.023-1.455.444-1.74 1.151l-1.634 4.088-4.06-14.886a1.835 1.835 0 0 0-1.587-1.342 1.813 1.813 0 0 0-1.82 1.005l-4.992 9.984h-2.807a36.457 36.457 0 0 0 3.94-16.496C92.095 16.835 75.65.39 55.437.39 35.224.39 18.78 16.835 18.78 37.048a36.46 36.46 0 0 0 3.942 16.5l-.239-.004c-.737.023-1.455.444-1.74 1.151l-1.634 4.088-4.06-14.886a1.835 1.835 0 0 0-1.587-1.342 1.807 1.807 0 0 0-1.82 1.005L6.65 53.544H.452v3.665h7.331c.694 0 1.328-.392 1.64-1.013l3.352-6.706 4.237 15.533a1.835 1.835 0 0 0 3.47.2l3.195-7.988 1.23.025c.94 1.413 1.952 2.786 3.095 4.07.05.197.134.388.25.562 6.016 9.023 6.367 10.893 7.41 16.443.194 1.02.407 2.152.677 3.455a8.208 8.208 0 0 0 3.59 5.282 5.46 5.46 0 0 0-.987 3.13c0 1.952 1.03 3.66 2.568 4.635a5.433 5.433 0 0 0-.735 2.696c0 1.953 1.03 3.66 2.568 4.636a5.433 5.433 0 0 0-.735 2.696 5.505 5.505 0 0 0 5.498 5.498H62.77a5.505 5.505 0 0 0 5.499-5.498c0-.985-.281-1.896-.736-2.696 1.538-.976 2.569-2.683 2.569-4.636 0-.984-.281-1.896-.736-2.696 1.538-.976 2.568-2.683 2.568-4.635 0-1.164-.368-2.24-.987-3.13a8.203 8.203 0 0 0 3.59-5.278c.27-1.307.483-2.44.676-3.459 1.044-5.55 1.395-7.42 7.41-16.443.117-.174.201-.365.251-.562 1.157-1.3 2.18-2.689 3.129-4.12h6.093c.694 0 1.328-.392 1.64-1.013l3.352-6.707 4.237 15.534a1.835 1.835 0 0 0 3.47.199l3.195-7.988 2.397.049.075-3.666z"/></g></g></svg>