<svg xmlns="http://www.w3.org/2000/svg"  viewBox="0 0 94 86"><g>
<g opacity=".34"><path fill="#fff" d="M-9.657 22.222a2.52 2.52 0 1 1 .44-5.02 2.52 2.52 0 0 1-.44 5.02z"/></g><g opacity=".34"><path fill="#fff" d="M5.88 23.1a2.518 2.518 0 1 1 0-5.039 2.52 2.52 0 0 1 0 5.039z"/></g><g opacity=".34"><path fill="#fff" d="M5.88 37.013a2.295 2.295 0 1 1-.001-4.591 2.296 2.296 0 1 1 0 4.591z"/></g><g opacity=".34"><path fill="#fff" d="M5.88 50.93a2.074 2.074 0 1 1 .001-4.147 2.074 2.074 0 0 1-.001 4.147z"/></g><g opacity=".34"><path fill="#fff" d="M5.88 64.846a1.85 1.85 0 1 1 0-3.7 1.85 1.85 0 1 1 0 3.7z"/></g><g opacity=".34"><path fill="#fff" d="M5.88 78.76a1.628 1.628 0 1 1 0-3.255 1.628 1.628 0 0 1 0 3.255z"/></g><g opacity=".34"><path fill="#fff" d="M21.435 22.62a2.518 2.518 0 1 1-.44-5.019 2.518 2.518 0 0 1 2.73 2.29 2.521 2.521 0 0 1-2.29 2.73z"/></g><g opacity=".34"><path fill="#fff" d="M22.648 36.481a2.296 2.296 0 1 1-.402-4.573 2.296 2.296 0 0 1 .402 4.573z"/></g><g opacity=".34"><path fill="#fff" d="M23.862 50.344a2.074 2.074 0 0 1-2.247-1.884 2.07 2.07 0 0 1 1.883-2.246 2.072 2.072 0 1 1 .364 4.13z"/></g><g opacity=".34"><path fill="#fff" d="M25.073 64.206a1.85 1.85 0 1 1-.321-3.687 1.85 1.85 0 0 1 .321 3.687z"/></g><g opacity=".34"><path fill="#fff" d="M26.287 78.07a1.628 1.628 0 1 1-.285-3.245 1.628 1.628 0 0 1 .285 3.245z"/></g><g opacity=".34"><path fill="#fff" d="M36.888 20.786a2.517 2.517 0 0 1-2.918-2.042 2.518 2.518 0 1 1 2.918 2.042z"/></g><g opacity=".34"><path fill="#fff" d="M39.305 34.491a2.296 2.296 0 1 1-.797-4.522 2.296 2.296 0 0 1 .797 4.522z"/></g><g opacity=".34"><path fill="#fff" d="M41.722 48.193a2.073 2.073 0 1 1-.721-4.083 2.073 2.073 0 0 1 .721 4.083z"/></g><g opacity=".34"><path fill="#fff" d="M44.137 61.898a1.852 1.852 0 0 1-2.143-1.502 1.85 1.85 0 1 1 2.143 1.502z"/></g><g opacity=".34"><path fill="#fff" d="M46.554 75.602a1.627 1.627 0 1 1-.567-3.203 1.627 1.627 0 0 1 .567 3.203z"/></g><g opacity=".34"><path fill="#fff" d="M52.125 17.614a2.52 2.52 0 1 1-1.304-4.867 2.52 2.52 0 0 1 1.304 4.867z"/></g><g opacity=".34"><path fill="#fff" d="M55.726 31.054a2.297 2.297 0 1 1-1.189-4.436 2.297 2.297 0 0 1 1.189 4.436z"/></g><g opacity=".34"><path fill="#fff" d="M59.327 44.496a2.074 2.074 0 1 1-1.071-4.006 2.074 2.074 0 0 1 1.071 4.006z"/></g><g opacity=".34"><path fill="#fff" d="M62.929 57.937a1.85 1.85 0 1 1-.958-3.574 1.85 1.85 0 0 1 .958 3.574z"/></g><g opacity=".34"><path fill="#fff" d="M66.53 71.377a1.627 1.627 0 1 1-.841-3.144 1.628 1.628 0 0 1 .841 3.144z"/></g><g opacity=".34"><path fill="#fff" d="M71.785 26.2a2.296 2.296 0 1 1-1.572-4.315 2.296 2.296 0 0 1 1.572 4.315z"/></g><g opacity=".34"><path fill="#fff" d="M76.543 39.277a2.073 2.073 0 1 1-1.418-3.896 2.074 2.074 0 1 1 1.417 3.896z"/></g><g opacity=".34"><path fill="#fff" d="M81.303 52.352a1.85 1.85 0 1 1-1.266-3.476 1.85 1.85 0 0 1 1.266 3.476z"/></g><g opacity=".34"><path fill="#fff" d="M86.063 65.428a1.626 1.626 0 1 1-1.114-3.058 1.628 1.628 0 0 1 1.114 3.058z"/></g><g opacity=".34"><path fill="#fff" d="M90.822 78.506a1.406 1.406 0 0 1-.96-2.642 1.405 1.405 0 0 1 .96 2.642z"/></g><g opacity=".34"><path fill="#fff" d="M87.358 19.965a2.297 2.297 0 1 1-1.94-4.164 2.297 2.297 0 0 1 1.94 4.164z"/></g><g opacity=".34"><path fill="#fff" d="M93.24 32.578a2.073 2.073 0 1 1-1.752-3.759 2.073 2.073 0 0 1 1.751 3.76z"/></g><g opacity=".34"><path fill="#fff" d="M99.12 45.191a1.852 1.852 0 0 1-1.563-3.356 1.85 1.85 0 0 1 1.564 3.356z"/></g><g><path fill="#feb756" d="M75.815 31.679a9.151 9.151 0 0 0-5.946 8.57 9.151 9.151 0 0 0 5.946 8.57 9.151 9.151 0 0 0 5.946-8.57 9.151 9.151 0 0 0-5.946-8.57z"/></g><g><path fill="#feb756" d="M68.497 2.407a9.151 9.151 0 0 0-5.946 8.57 9.151 9.151 0 0 0 5.946 8.57 9.151 9.151 0 0 0 5.946-8.57 9.151 9.151 0 0 0-5.946-8.57z"/></g><g><path fill="#feb756" d="M46.183 25.63a9.148 9.148 0 0 0-5.305 8.3 9.148 9.148 0 0 0 5.305 8.302 9.148 9.148 0 0 0 5.306-8.301 9.148 9.148 0 0 0-5.306-8.302z"/></g><g><path fill="#4dbbeb" d="M1.995 50.122v28.546h15.184V50.122z"/></g><g><path fill="#120b69" d="M9.862 51.226a1.83 1.83 0 1 0 .001 3.66 1.83 1.83 0 0 0-.001-3.66z"/></g><g><path fill="#120b69" d="M88.042 66.208c-.036.015-.071.03-.105.047L58.81 80.102a24.66 24.66 0 0 1-10.275 2.225 24.76 24.76 0 0 1-9.322-1.814l-17.785-7.2a1.836 1.836 0 0 0-.687-.133H19.01V51.226h12.106c1.57 0 3.12.406 4.485 1.175l9.667 5.437c.819.461 1.75.706 2.692.706h11.848a3.663 3.663 0 0 1 3.659 3.659 3.667 3.667 0 0 1-1.743 3.113l-.014.005a1.853 1.853 0 0 0-.382.208 3.646 3.646 0 0 1-1.52.333H41.208a5.494 5.494 0 0 0-5.488 5.488 1.83 1.83 0 1 0 3.659 0c0-1.009.82-1.83 1.83-1.83h18.598a7.283 7.283 0 0 0 3.496-.894l22.347-8.768a3.355 3.355 0 0 1 3.083.422 3.352 3.352 0 0 1 1.443 2.777 3.378 3.378 0 0 1-2.134 3.151zM15.35 76.838H3.824V47.568H15.35zm75.486-19.553a7.06 7.06 0 0 0-6.496-.843L67.05 63.225c.047-.336.074-.677.074-1.022 0-4.035-3.284-7.318-7.318-7.318H47.958a1.83 1.83 0 0 1-.897-.235l-9.666-5.437a12.819 12.819 0 0 0-6.28-1.646H19.009v-1.83a1.83 1.83 0 0 0-1.83-1.83H1.995a1.83 1.83 0 0 0-1.83 1.83v32.931c0 1.01.82 1.83 1.83 1.83h15.184a1.83 1.83 0 0 0 1.83-1.83v-1.83h1.376l17.455 7.066a28.396 28.396 0 0 0 10.695 2.082c4.102 0 8.074-.861 11.804-2.559l.028-.013 29.092-13.831a7.022 7.022 0 0 0 4.376-6.526 7.06 7.06 0 0 0-3-5.772z"/></g><g><path fill="#120b69" d="M9.862 58.544a1.83 1.83 0 0 0-1.83 1.83V71.35a1.83 1.83 0 1 0 3.659 0V60.373a1.83 1.83 0 0 0-1.83-1.83z"/></g><g><path fill="#120b69" d="M79.931 40.249c0 4.035-3.283 7.318-7.318 7.318s-7.318-3.283-7.318-7.318 3.283-7.318 7.318-7.318 7.318 3.283 7.318 7.318zm-18.295 0c0 6.053 4.924 10.977 10.977 10.977S83.59 46.302 83.59 40.249s-4.924-10.977-10.977-10.977-10.977 4.924-10.977 10.977z"/></g><g><path fill="#120b69" d="M65.295 3.659c4.035 0 7.318 3.283 7.318 7.318s-3.283 7.318-7.318 7.318-7.318-3.283-7.318-7.318 3.283-7.318 7.318-7.318zm0 18.295c6.053 0 10.977-4.924 10.977-10.977S71.348 0 65.295 0 54.318 4.924 54.318 10.977s4.924 10.977 10.977 10.977z"/></g><g><path fill="#120b69" d="M43.341 25.613c4.035 0 7.318 3.283 7.318 7.318s-3.283 7.318-7.318 7.318-7.318-3.283-7.318-7.318 3.283-7.318 7.318-7.318zm0 18.295c6.053 0 10.977-4.924 10.977-10.977s-4.924-10.977-10.977-10.977-10.977 4.924-10.977 10.977 4.924 10.977 10.977 10.977z"/></g></g></svg>