<svg xmlns="http://www.w3.org/2000/svg" viewBox="0 0 18 18">
<path d="M9.121 5.048a3.542 3.542 0 0 0-3.538 3.538 3.542 3.542 0 0 0 3.538 3.538 3.542 3.542 0 0 0 3.539-3.538A3.542 3.542 0 0 0 9.12 5.048z"/>
<path  d="M14.156 4.263a.507.507 0 0 1-.712 0 .506.506 0 0 1 0-.712.506.506 0 0 1 .712 0 .506.506 0 0 1 0 .712zM9.12 13.13a4.55 4.55 0 0 1-4.544-4.544A4.55 4.55 0 0 1 9.12 4.04a4.55 4.55 0 0 1 4.545 4.545A4.55 4.55 0 0 1 9.12 13.13zm6.856-11.4A5.85 5.85 0 0 0 11.816 0h-5.39a5.85 5.85 0 0 0-4.16 1.73 5.85 5.85 0 0 0-1.73 4.162v5.388a5.85 5.85 0 0 0 1.73 4.162 5.85 5.85 0 0 0 4.16 1.73h5.39a5.85 5.85 0 0 0 4.16-1.73 5.85 5.85 0 0 0 1.731-4.162V5.892a5.85 5.85 0 0 0-1.73-4.162z"/>
</svg>