<svg xmlns="http://www.w3.org/2000/svg" viewBox="0 0 98 98"><g><g><path fill="#fff" d="M96.464 21.94v64.868H75.896v-9.493h11.075V21.941z"/></g><g><path fill="#fff" d="M63.24 82.062v4.746H41.864a22.112 22.112 0 0 0 3.75-9.493h17.624z"/></g><g><path fill="#fff" d="M17.357 52.001l.238.855a22.22 22.22 0 0 0-9.572 5.631l-.158-.157V21.94h9.492z"/></g><g><path fill="#fff" d="M52.164 77.315h-6.55c.143-1.029.222-2.089.222-3.164 0-7.056-3.307-13.338-8.449-17.388v-.015h5.285V44.09H23.686V52c-2.12 0-4.16.3-6.091.855L17.357 52v-37.97h22.15c6.993 0 12.657 5.663 12.657 12.656z"/></g><g><path fill="#fff" d="M79.06 14.03H64.821c-6.993 0-12.657 5.664-12.657 12.657v50.628H63.24v-37.97l6.329-9.493 1.218 1.819 5.11 7.673v37.971h11.075V14.03z"/></g><g><path fill="#4dbbeb" d="M79.06 2.955V14.03h-9.492V2.955l4.746 3.165z"/></g><g><path fill="#ffcd19" d="M46.148 46.698v12.657h-5.284v.015a21.98 21.98 0 0 0-13.702-4.762v-7.91z"/></g><g><path fill="#4dbbeb" d="M48.221 79.053a22.112 22.112 0 0 1-3.749 9.493C40.47 94.29 33.808 98.04 26.293 98.04c-12.23 0-22.15-9.92-22.15-22.15 0-6.107 2.484-11.645 6.487-15.663a22.219 22.219 0 0 1 9.572-5.632 22.044 22.044 0 0 1 6.091-.855c5.174 0 9.92 1.772 13.702 4.762 5.142 4.05 8.448 10.332 8.448 17.388 0 1.076-.079 2.135-.222 3.164z"/></g><g><path fill="#fff" d="M39.507 74.151c0 8.737-7.083 15.821-15.821 15.821S7.865 82.888 7.865 74.152c0-8.739 7.083-15.822 15.821-15.822s15.821 7.083 15.821 15.821z"/></g><g><path fill="#fff" d="M75.896 86.808v3.164a6.327 6.327 0 0 1-6.328 6.329 6.327 6.327 0 0 1-6.329-6.329v-7.91h12.657z"/></g><g><path fill="#feb756" d="M72.175 82.061h-6.328V39.344h12.656V82.06z"/></g><g><path fill="#120b69" d="M22.104 66.24v9.493h6.328V72.57h-3.164V66.24z"/></g><g><path fill="#120b69" d="M23.686 56.748a17.438 17.438 0 0 0-11.013 3.931l2.005 2.447a14.256 14.256 0 0 1 7.426-3.114v3.064h3.164v-3.071c6.588.733 11.831 5.974 12.564 12.564H34.76v3.164h3.064a14.241 14.241 0 0 1-3.115 7.425l2.45 2.006a17.437 17.437 0 0 0 3.93-11.013c0-9.595-7.809-17.403-17.404-17.403z"/></g><g><path fill="#120b69" d="M25.268 88.29v-3.064h-3.164v3.07c-6.588-.732-11.831-5.973-12.564-12.563h3.071V72.57H9.547a14.244 14.244 0 0 1 3.115-7.426l-2.45-2.005a17.435 17.435 0 0 0-3.93 11.013c0 9.596 7.808 17.403 17.404 17.403a17.44 17.44 0 0 0 11.013-3.932l-2.005-2.447a14.258 14.258 0 0 1-7.426 3.115z"/></g><g><path fill="#120b69" d="M94.882 85.226H77.478v-6.329h11.075V23.523h6.329zm-25.314 9.493a4.753 4.753 0 0 1-4.747-4.747v-6.328h9.493v6.328a4.753 4.753 0 0 1-4.746 4.747zm-24.91-9.493a23.49 23.49 0 0 0 2.28-6.329h14.719v6.329zm-20.972 9.493c-11.34 0-20.568-9.227-20.568-20.568 0-11.34 9.227-20.568 20.568-20.568 11.34 0 20.568 9.227 20.568 20.568 0 11.34-9.227 20.568-20.568 20.568zm-7.91-71.196v28.28a23.658 23.658 0 0 0-6.33 3.407V23.523zm25.313 31.643h-3.224a23.556 23.556 0 0 0-12.597-4.667v-4.826H41.09zm-1.582-39.554c6.107 0 11.075 4.97 11.075 11.075v49.046h-3.244c.034-.525.08-1.047.08-1.582 0-6.082-2.32-11.618-6.093-15.821h2.929V42.509h-22.15v7.99c-1.073.072-2.135.189-3.164.4V15.611zm30.06 17.092l3.373 5.058h-6.744zm-1.581 28.79V80.48H64.82V40.926h3.165V58.33h3.164V40.926h3.164V80.48H71.15V61.494zm17.403-45.882v60.121h-7.91V38.864l-3.9-5.848h8.646V29.85H71.47L69.568 27l-1.902 2.852h-7.591v3.165h5.482l-3.9 5.848v36.87h-7.91V26.686c0-6.106 4.967-11.075 11.074-11.075zM71.149 5.91l3.165 2.11 3.164-2.11v6.538H71.15zM98.047 20.36h-9.493v-7.91h-7.91V-.002l-6.329 4.219L67.986 0v12.448H64.82c-5.51 0-10.291 3.153-12.657 7.746-2.365-4.593-7.146-7.746-12.657-7.746H15.775v7.91H6.283V58.07C2.368 62.304-.046 67.944-.046 74.151c0 13.086 10.646 23.732 23.732 23.732 7.74 0 14.606-3.742 18.941-9.493h19.03v1.582c0 4.362 3.549 7.911 7.91 7.911 4.362 0 7.911-3.549 7.911-7.91V88.39h20.568z"/></g><g><path fill="#120b69" d="M22.104 23.523h3.164v3.164h-3.164z"/></g><g><path fill="#120b69" d="M28.432 23.523h15.822v3.164H28.432z"/></g><g><path fill="#120b69" d="M22.104 29.852h3.164v3.164h-3.164z"/></g><g><path fill="#120b69" d="M28.432 29.852h15.822v3.164H28.432z"/></g><g><path fill="#120b69" d="M22.104 36.18h22.15v3.164h-22.15z"/></g></g></svg>