<svg xmlns="http://www.w3.org/2000/svg" viewBox="0 0 97 94"><g><g><g><path fill="#fff" d="M93.461 47C93.461 72.107 73.107 92.46 48 92.46 22.892 92.461 2.538 72.107 2.538 47 2.538 21.892 22.892 1.538 48 1.538 73.107 1.538 93.46 21.892 93.46 47z"/></g><g><path fill="#f5f7fa" d="M61.638 65.184H67.7a1.52 1.52 0 0 1 1.515 1.516v7.577a4.54 4.54 0 0 1-4.546 4.546H52.546v-3.031h-9.092v3.03H31.33a4.54 4.54 0 0 1-4.547-4.545V66.7a1.52 1.52 0 0 1 1.516-1.516z"/></g><g><path fill="#f5f7fa" d="M31.33 78.823h12.124v3.03h9.092v-3.03H64.67a4.54 4.54 0 0 0 4.546-4.546v16.669A1.52 1.52 0 0 1 67.7 92.46H28.3a1.52 1.52 0 0 1-1.515-1.515v-16.67a4.54 4.54 0 0 0 4.546 4.547z"/></g><g><path fill="#ffcd19" d="M52.546 78.823v3.03h-9.092v-6.06h9.092z"/></g><g><path fill="#4dbbeb" d="M60.092 59.638v4.546H41.908v-4.546a1.52 1.52 0 0 1 1.515-1.515h15.154a1.52 1.52 0 0 1 1.515 1.515z"/></g><g><path fill="#4dbbeb" d="M64.638 48.909v16.275h-4.546v-4.546a1.52 1.52 0 0 0-1.515-1.515H43.423a1.52 1.52 0 0 0-1.515 1.515v4.546H37.36V48.91a4.542 4.542 0 0 1 3.304-4.364l7.304-2.091s0 3.03 3.03 3.03c3.032 0 3.032-3.03 3.032-3.03l7.304 2.09a4.542 4.542 0 0 1 3.303 4.365z"/></g><g><path fill="#fff" d="M88.976 66.73a46.253 46.253 0 0 1-5.926 9.228l-.196-.166V62.154H67.7v3.03h-6.062V48.91a4.542 4.542 0 0 1 3.304-4.364l7.304-2.091s0 3.03 3.03 3.03c3.032 0 3.032-3.03 3.032-3.03l7.303 2.09a4.542 4.542 0 0 1 3.304 4.365v17.79z"/></g><g><path fill="#fff" d="M28.3 62.154H13.146v13.638l-.197.167a46.253 46.253 0 0 1-5.925-9.229l.06-.03V48.909a4.542 4.542 0 0 1 3.304-4.364l7.304-2.091s0 3.03 3.03 3.03c3.032 0 3.032-3.03 3.032-3.03l7.304 2.09a4.542 4.542 0 0 1 3.303 4.365v16.275H28.3z"/></g><g><path fill="#fff" d="M82.854 75.792l.197.167a45.548 45.548 0 0 1-7.774 7.41V62.154h7.577z"/></g><g><path fill="#fff" d="M67.7 62.154h7.577v21.215a45.013 45.013 0 0 1-6.062 3.85v-20.52a1.52 1.52 0 0 0-1.515-1.515z"/></g><g><path fill="#fff" d="M20.723 62.154v21.215a45.55 45.55 0 0 1-7.774-7.41l.197-.167V62.154z"/></g><g><path fill="#fff" d="M28.3 62.154v3.03a1.52 1.52 0 0 0-1.516 1.516v20.518a45.008 45.008 0 0 1-6.061-3.85V62.155z"/></g><g><path fill="#feb756" d="M87.748 27.542a12.464 12.464 0 0 1-3.334 1.379l-.227.06a6.054 6.054 0 0 0-1.622-2.94 6.101 6.101 0 0 0-4.288-1.772 6.05 6.05 0 0 0-5.94 4.88l-3.531-3.531 1.651-2.486a12.464 12.464 0 0 1-1.378-3.334l-2.925-.575V14.16l2.925-.575a12.464 12.464 0 0 1 1.378-3.334l-1.651-2.486 1.788-1.787 1.788-1.789 2.485 1.652a12.464 12.464 0 0 1 3.334-1.379l.576-2.925h5.061l.576 2.925c1.197.303 2.319.773 3.334 1.379l2.485-1.652 3.577 3.576-1.652 2.486a12.464 12.464 0 0 1 1.378 3.334l2.925.575v5.062l-2.925.575a12.464 12.464 0 0 1-1.378 3.334l1.652 2.486-1.789 1.788-1.788 1.788zm-6.44-4.788a6.06 6.06 0 0 0 6.061-6.062 6.06 6.06 0 0 0-6.061-6.061 6.06 6.06 0 0 0-6.062 6.061 6.06 6.06 0 0 0 6.062 6.062z"/></g><g><g><path fill="#ffcd19" d="M84.37 16.692c0 3.348-1.81 6.062-4.042 6.062-2.232 0-4.041-2.714-4.041-6.062 0-3.347 1.81-6.061 4.041-6.061 2.232 0 4.041 2.714 4.041 6.061z"/></g><g><path fill="#f5f7fa" d="M78.308 38.605v3.849s0 3.03-3.031 3.03-3.031-3.03-3.031-3.03v-3.85a6.047 6.047 0 0 0 3.03.819 6.047 6.047 0 0 0 3.032-.818z"/></g><g><path fill="#f5f7fa" d="M78.308 38.605a6.047 6.047 0 0 1-3.031.818 6.047 6.047 0 0 1-3.031-.818 6.03 6.03 0 0 1-3.03-5.244v-3.03c0-.41.044-.803.12-1.182a6.05 6.05 0 0 1 5.94-4.88c1.668 0 3.183.682 4.29 1.773a6.054 6.054 0 0 1 1.62 2.94c.107.424.152.879.152 1.349v3.03a6.03 6.03 0 0 1-3.03 5.244z"/></g><g><path fill="#f5f7fa" d="M51.03 38.605v3.849s0 3.03-3.03 3.03-3.03-3.03-3.03-3.03v-3.85a6.047 6.047 0 0 0 3.03.819 6.047 6.047 0 0 0 3.03-.818z"/></g><g><path fill="#f5f7fa" d="M51.03 38.605a6.047 6.047 0 0 1-3.03.818 6.047 6.047 0 0 1-3.03-.818 6.03 6.03 0 0 1-3.032-5.244v-3.03A6.06 6.06 0 0 1 48 24.269c1.667 0 3.182.682 4.289 1.773a6.101 6.101 0 0 1 1.772 4.289v3.03a6.03 6.03 0 0 1-3.03 5.244z"/></g><g><path fill="#f5f7fa" d="M23.754 38.605v3.849s0 3.03-3.031 3.03c-3.03 0-3.03-3.03-3.03-3.03v-3.85a6.047 6.047 0 0 0 3.03.819 6.047 6.047 0 0 0 3.03-.818z"/></g><g><path fill="#f5f7fa" d="M23.754 38.605a6.048 6.048 0 0 1-3.031.818 6.048 6.048 0 0 1-3.03-.818 6.03 6.03 0 0 1-3.032-5.244v-3.03c0-1.668.683-3.183 1.773-4.29a6.101 6.101 0 0 1 4.289-1.772c.5 0 1 .06 1.47.182a6.216 6.216 0 0 1 2.819 1.59 6.101 6.101 0 0 1 1.772 4.29v3.03a6.03 6.03 0 0 1-3.03 5.244z"/></g></g><g><path fill="#feb756" d="M31.815 17.177h6.062v16.669h-6.062z"/></g><g><path fill="#fff" d="M22.238 9.54v14.729l-.045.182a5.915 5.915 0 0 0-1.47-.182 6.101 6.101 0 0 0-4.289 1.773l-.257-.258v-19.7h6.061z"/></g><g><path fill="#4dbbeb" d="M6.6 1.538v30.308H.538V1.538z"/></g><g><path fill="#120b69" d="M89.3 18.504l-.235.927a11.052 11.052 0 0 1-1.214 2.932l-.489.821 1.497 2.246-1.815 1.815-2.246-1.497-.821.49c-.593.353-1.226.627-1.877.862a7.613 7.613 0 0 0-2.486-2.963c3.555-.624 6.27-3.716 6.27-7.445 0-4.177-3.399-7.577-7.576-7.577-4.178 0-7.577 3.4-7.577 7.577 0 2.563 1.285 4.822 3.238 6.193a7.557 7.557 0 0 0-5.173 3.582l-1.038-1.038 1.496-2.246-.489-.821a11.09 11.09 0 0 1-1.214-2.933l-.234-.926-2.648-.527V15.41l2.646-.53.235-.926c.262-1.035.672-2.02 1.214-2.933l.489-.821-1.497-2.246 1.815-1.815 2.246 1.497.821-.489c.911-.543 1.898-.95 2.933-1.214l.926-.235.527-2.644h2.566l.53 2.646.926.234c1.035.263 2.02.672 2.932 1.215l.822.489 2.246-1.497 1.815 1.815-1.497 2.245.489.822c.543.91.95 1.898 1.214 2.932l.235.927 2.644.526v2.567zM91.946 47c0 3.919-.53 7.752-1.515 11.426v-9.512a6.086 6.086 0 0 0-4.396-5.828l-6.212-1.775v-1.926c1.83-1.385 3.03-3.558 3.03-6.022v-3.03c0-.092-.024-.178-.027-.269a14.027 14.027 0 0 0 1.851-.756l2.753 1.835 1.115-1.116c2.256 5.37 3.401 11.068 3.401 16.973zM76.792 80.185V63.67h4.546v11.947a43.945 43.945 0 0 1-4.546 4.57zM70.731 66.7a3.021 3.021 0 0 0-1.516-2.61v-.42h4.546v18.94a44.41 44.41 0 0 1-3.03 1.994zM28.3 90.946v-11.45c.895.521 1.921.842 3.03.842h10.608v3.031h12.123v-3.03H64.67c1.11 0 2.137-.322 3.032-.845v11.452zm-6.062-27.277h4.546v.421a3.021 3.021 0 0 0-1.515 2.61v17.904a44.404 44.404 0 0 1-3.03-1.994zm-7.577 11.947V63.67h4.547v16.516a43.944 43.944 0 0 1-4.547-4.569zM6.245 33.361h6.901c0 2.466 1.202 4.64 3.03 6.023v1.926l-6.21 1.774a6.088 6.088 0 0 0-4.397 5.83v9.512A44.101 44.101 0 0 1 4.054 47c0-4.67.757-9.247 2.19-13.639zM4.054 3.054h3.03V30.33h-3.03zM20.723 7.6v15.154a7.5 7.5 0 0 0-3.03.642V7.6zm56.07 34.835c-.02.7-.296 1.534-1.516 1.534s-1.497-.833-1.516-1.534v-1.65a7.584 7.584 0 0 0 3.031 0zm-56.07-1.497c.518 0 1.025-.053 1.515-.153v1.65c-.018.7-.295 1.534-1.515 1.534s-1.497-.833-1.515-1.534v-1.65c.49.1.997.153 1.515.153zM48 37.908a4.552 4.552 0 0 1-4.546-4.547v-3.03A4.552 4.552 0 0 1 48 25.784a4.552 4.552 0 0 1 4.546 4.547v3.03A4.552 4.552 0 0 1 48 37.908zm1.515 4.527c-.018.7-.295 1.534-1.515 1.534s-1.497-.833-1.515-1.534v-1.65a7.584 7.584 0 0 0 3.03 0zm-9.092 18.203h15.154v3.031H40.423zm19.7 3.031h-1.515v-3.03a3.021 3.021 0 0 0-1.516-2.61V50.03h-3.03v7.577H41.937V50.03h-3.03v7.998a3.021 3.021 0 0 0-1.516 2.61v3.03h-1.515V48.914c0-1.346.903-2.545 2.199-2.915l5.791-1.654C44.454 45.73 45.722 47 48 47c2.277 0 3.546-1.27 4.134-2.655l5.791 1.654a3.044 3.044 0 0 1 2.198 2.915zM28.3 33.361zm12.123 0c0 2.466 1.202 4.64 3.03 6.023v1.926l-6.211 1.774a6.01 6.01 0 0 0-2.88 1.857 6.01 6.01 0 0 0-2.881-1.857l-6.212-1.773v-1.926C27.1 38 28.3 35.827 28.3 33.361zm-6.062-3.03h-3.03V16.692h3.03zm-9.092 0v3.03a4.552 4.552 0 0 1-4.546 4.547 4.552 4.552 0 0 1-4.546-4.547v-3.03a4.552 4.552 0 0 1 4.546-4.547 4.552 4.552 0 0 1 4.546 4.547zM14.661 60.638V50.031h-3.03v21.637a43.904 43.904 0 0 1-3.031-5.21V48.913c0-1.346.903-2.545 2.199-2.915l5.791-1.654C17.177 45.73 18.445 47 20.723 47c2.277 0 3.546-1.27 4.134-2.655l5.791 1.654a3.044 3.044 0 0 1 2.198 2.915v14.755h-3.03V50.031h-3.032v10.607zm36.37 16.67v3.03h-6.062v-3.03zm-9.093-3.031v3.03H31.331a3.034 3.034 0 0 1-3.031-3.03V66.7h39.4v7.577c0 1.671-1.36 3.03-3.03 3.03H54.06v-3.03zm45.462-7.82a43.902 43.902 0 0 1-3.03 5.212V50.03h-3.032v10.607H69.215V50.031h-3.03v13.638h-3.031V48.914c0-1.346.903-2.544 2.199-2.914l5.791-1.655C71.731 45.73 73 47 75.277 47c2.277 0 3.546-1.27 4.134-2.655L85.202 46a3.044 3.044 0 0 1 2.198 2.914zm-7.577-36.126v3.03a4.552 4.552 0 0 1-4.546 4.547 4.552 4.552 0 0 1-4.546-4.547v-3.03a4.552 4.552 0 0 1 4.546-4.547 4.552 4.552 0 0 1 4.546 4.547zm-6.062-13.639a4.552 4.552 0 0 1 4.547-4.546 4.552 4.552 0 0 1 4.546 4.546 4.552 4.552 0 0 1-4.546 4.546 4.552 4.552 0 0 1-4.547-4.546zM48 3.054c5.908 0 11.606 1.144 16.974 3.399l-1.117 1.116 1.835 2.754a13.91 13.91 0 0 0-.808 1.952l-3.246.65v7.536l3.246.65c.222.671.49 1.323.808 1.952l-1.835 2.753 3.905 3.906c-.017.202-.062.4-.062.609v3.03c0 2.466 1.202 4.639 3.03 6.023v1.926l-6.211 1.774a6.01 6.01 0 0 0-2.88 1.857 6.01 6.01 0 0 0-2.881-1.857l-6.212-1.773v-1.926c1.83-1.385 3.03-3.558 3.03-6.022v-3.03c0-4.179-3.398-7.578-7.576-7.578-4.178 0-7.577 3.4-7.577 7.577h-3.03v-16.67H28.3V30.33c0-3.1-1.874-5.762-4.546-6.935V10.369A43.674 43.674 0 0 1 48 3.054zm46.977 17.405v-7.534l-3.246-.65a14.092 14.092 0 0 0-.808-1.952l1.835-2.754-5.328-5.328-2.753 1.835a13.912 13.912 0 0 0-1.952-.807l-.65-3.246h-7.536l-.65 3.246c-.671.221-1.323.49-1.952.807l-2.752-1.835-1.922 1.922A46.492 46.492 0 0 0 48 .023 46.69 46.69 0 0 0 23.754 6.78V4.57H14.66v21.215h.04c-.962 1.27-1.555 2.834-1.555 4.547h-3.03V.023H1.022V33.36h2.055C1.74 37.77 1.023 42.341 1.023 47c0 17.154 9.274 32.802 24.246 41.094v2.852c0 1.671 1.36 3.03 3.03 3.03h39.4c1.672 0 3.032-1.359 3.032-3.03v-2.852C85.703 79.802 94.977 64.154 94.977 47a46.54 46.54 0 0 0-4.139-19.265l1.92-1.92-1.835-2.754c.319-.629.588-1.28.808-1.952z"/></g></g></g></svg>