<svg xmlns="http://www.w3.org/2000/svg" viewBox="0 0 23 22">
<path fill="#fff" d="M22.081 17.159l-3.355-3.356c-.668-.665-1.774-.645-2.466.047l-1.69 1.69-.334-.186c-1.067-.591-2.528-1.402-4.065-2.94-1.542-1.542-2.353-3.005-2.947-4.073-.062-.113-.122-.222-.181-.326l1.134-1.133.558-.558c.692-.693.711-1.799.045-2.467L5.425.502C4.758-.165 3.65-.145 2.958.548l-.945.951.026.026a5.468 5.468 0 0 0-.78 1.374 5.698 5.698 0 0 0-.346 1.394c-.443 3.673 1.235 7.03 5.79 11.584 6.296 6.295 11.37 5.82 11.588 5.796.477-.057.934-.17 1.398-.35a5.45 5.45 0 0 0 1.37-.777l.02.019.958-.938c.69-.693.71-1.8.044-2.468z"/>
</svg>