<svg xmlns="http://www.w3.org/2000/svg" viewBox="0 0 21 17">
<path d="M20.858 1.983a8.81 8.81 0 0 1-2.435.667A4.202 4.202 0 0 0 20.282.314a8.444 8.444 0 0 1-2.68 1.023 4.224 4.224 0 0 0-7.31 2.89c.001.335.03.657.099.963C6.878 5.02 3.77 3.335 1.681.77a4.254 4.254 0 0 0-.578 2.136c0 1.464.754 2.76 1.877 3.512a4.173 4.173 0 0 1-1.91-.52v.046a4.245 4.245 0 0 0 3.386 4.152c-.344.094-.719.139-1.108.139-.27 0-.543-.015-.8-.072.548 1.673 2.101 2.903 3.949 2.943a8.49 8.49 0 0 1-5.24 1.803c-.346 0-.678-.016-1.01-.058a11.896 11.896 0 0 0 6.482 1.896c7.775 0 12.026-6.441 12.026-12.024 0-.187-.006-.368-.015-.547a8.43 8.43 0 0 0 2.118-2.193z"/>
</svg>