<svg xmlns="http://www.w3.org/2000/svg" viewBox="0 0 18 19">
<path d="M8.619 2.394a3.528 3.528 0 0 1 3.523 3.524 3.5 3.5 0 0 1-1.032 2.49A3.5 3.5 0 0 1 8.62 9.442a3.527 3.527 0 0 1-3.524-3.523A3.527 3.527 0 0 1 8.62 2.394zM.755 18.254c.451 0 .83-.339.878-.789a7.04 7.04 0 0 1 7.003-6.26 7.041 7.041 0 0 1 7.003 6.26.879.879 0 0 0 .875.784H16.617a.883.883 0 0 0 .775-.968 8.792 8.792 0 0 0-5.506-7.215 5.288 5.288 0 0 0 1.727-5.882A5.29 5.29 0 0 0 8.619.628a5.29 5.29 0 0 0-4.995 3.556 5.29 5.29 0 0 0 1.727 5.882 8.796 8.796 0 0 0-5.48 7.206.88.88 0 0 0 .19.651.88.88 0 0 0 .693.332z"/>
</svg>