<svg xmlns="http://www.w3.org/2000/svg" xmlns:xlink="http://www.w3.org/1999/xlink" width="0" height="0" style="position:absolute">
	
		<symbol id="LinkedIn" viewBox="0 0 19 17">
			<path d="M.926 16.747h3.756v-11.3H.926zM2.829 0C1.543 0 .702.843.702 1.952c0 1.085.817 1.953 2.077 1.953h.025c1.31 0 2.125-.868 2.125-1.953C4.904.843 4.114 0 2.83 0zm15.399 10.267c0-3.47-1.853-5.085-4.325-5.085-1.996 0-2.887 1.098-3.387 1.867v.036h-.024l.024-.036V5.447H6.76c.05 1.06 0 11.3 0 11.3h3.758v-6.31c0-.339.025-.675.124-.917.272-.675.89-1.374 1.928-1.374 1.36 0 1.903 1.037 1.903 2.555v6.046h3.756v-6.48z"></path>
		</symbol>
	
		<symbol id="arrow" viewBox="0 0 11 18">
			<path d="M10.585 9.87l-7.723 7.723a1.257 1.257 0 1 1-1.78-1.778L7.918 8.98 1.083 2.147A1.258 1.258 0 0 1 2.863.368l7.722 7.724a1.253 1.253 0 0 1 0 1.778z"></path>
		</symbol>
	
		<symbol id="arrowleft" viewBox="0 0 11 18">
			<path d="M1.075 9.87l7.723 7.724a1.257 1.257 0 1 0 1.779-1.78L3.743 8.982l6.834-6.834A1.258 1.258 0 0 0 8.797.37L1.075 8.092a1.253 1.253 0 0 0 0 1.778z"></path>
		</symbol>
	
		<symbol id="bg_1" viewBox="0 0 66.795 86.479">
			<defs><filter id="a" x="0" y="0" width="44.246" height="76.932" filterUnits="userSpaceOnUse"><feOffset dx="10" dy="28"></feOffset><feGaussianBlur stdDeviation="3" result="blur"></feGaussianBlur><feFlood flood-opacity=".09"></feFlood><feComposite operator="in" in2="blur"></feComposite><feComposite in="SourceGraphic"></feComposite></filter><filter id="b" x="19.122" y="1.625" width="47.673" height="71.146" filterUnits="userSpaceOnUse"><feOffset dx="10" dy="28"></feOffset><feGaussianBlur stdDeviation="3" result="blur-2"></feGaussianBlur><feFlood flood-opacity=".09"></feFlood><feComposite operator="in" in2="blur-2"></feComposite><feComposite in="SourceGraphic"></feComposite></filter><filter id="c" x="2.396" y="23.232" width="62.391" height="63.248" filterUnits="userSpaceOnUse"><feOffset dx="10" dy="28"></feOffset><feGaussianBlur stdDeviation="3" result="blur-3"></feGaussianBlur><feFlood flood-opacity=".09"></feFlood><feComposite operator="in" in2="blur-3"></feComposite><feComposite in="SourceGraphic"></feComposite></filter></defs><g data-name="Group 5740" transform="matrix(1 0 0 1 .002 .003)"><path data-name="Path 11" d="M0 15.107L3.347 38.16 22 21.516 18.934 0z" transform="rotate(-175 11.832 19.486)" fill="#ff5895" filter="url(#a)"></path><path data-name="Path 12" d="M0 0l4.339 21.184L25.982 32 22.635 8.951z" transform="rotate(-175 23.286 16.902)" fill="#ff6fa4" filter="url(#b)"></path><path data-name="Path 13" d="M22.635 22.711L41.569 7.6 21.484 0 0 13.76z" transform="rotate(-175 22.985 23.784)" fill="#c32961" filter="url(#c)"></path></g>
		</symbol>
	
		<symbol id="card" viewBox="0 0 98 80">
			<path fill="#4dbbeb" d="M91.416 16.556l-5.314-.483v42.512c0 2.737-2.094 4.83-4.831 4.83H7.037l-.161.806c-.323 2.576 1.61 4.992 4.347 5.314l74.396 8.373c2.576.322 4.991-1.61 5.314-4.348l4.83-51.69c.322-2.576-1.61-4.992-4.347-5.314"></path><path fill="#fff" d="M81.27 63.416H7.198c-2.737 0-4.83-2.094-4.83-4.831V7.055c0-2.737 2.093-4.83 4.83-4.83h74.074c2.737 0 4.83 2.093 4.83 4.83v51.53c0 2.737-2.093 4.83-4.83 4.83"></path><path fill="#feb756" d="M5.367 26.437h81.668V12.909H5.367z"></path><path fill="#ffcd19" d="M55.286 56.754H81.05V42.26H55.286z"></path><path fill="#120b69" d="M81.27 3.835a3.23 3.23 0 0 1 3.221 3.22v51.53a3.23 3.23 0 0 1-3.22 3.22H7.197a3.23 3.23 0 0 1-3.22-3.22V7.055a3.23 3.23 0 0 1 3.22-3.22zm0 61.191c3.543 0 6.442-2.898 6.442-6.441V7.055c0-3.542-2.899-6.44-6.441-6.44H7.197c-3.542 0-6.44 2.898-6.44 6.44v51.53c0 3.543 2.898 6.441 6.44 6.441h74.074z"></path><path fill="#120b69" d="M3.977 11.887h80.514v9.661H3.978zm83.735 11.272V10.276c0-.966-.644-1.61-1.61-1.61H2.367c-.967 0-1.61.644-1.61 1.61V23.16c0 .966.643 1.61 1.61 1.61h83.735c.966 0 1.61-.644 1.61-1.61zM53.896 40.872H76.44v11.272H53.896zM79.66 53.754V39.262c0-.967-.644-1.61-1.61-1.61H52.286c-.967 0-1.61.643-1.61 1.61v14.492c0 .966.643 1.61 1.61 1.61H78.05c.966 0 1.61-.644 1.61-1.61zM21.69 34.43H8.808c-.966 0-1.61-.644-1.61-1.61 0-.966.644-1.61 1.61-1.61H21.69c.966 0 1.61.644 1.61 1.61 0 .966-.644 1.61-1.61 1.61zM41.014 34.43H28.13c-.966 0-1.61-.644-1.61-1.61 0-.966.644-1.61 1.61-1.61h12.882c.967 0 1.61.644 1.61 1.61 0 .966-.643 1.61-1.61 1.61zM29.742 40.872H8.808c-.966 0-1.61-.644-1.61-1.61 0-.967.644-1.61 1.61-1.61h20.934c.966 0 1.61.643 1.61 1.61 0 .966-.644 1.61-1.61 1.61zM41.014 40.872h-4.831c-.967 0-1.61-.644-1.61-1.61 0-.967.643-1.61 1.61-1.61h4.83c.967 0 1.61.643 1.61 1.61.001.966-.643 1.61-1.61 1.61z"></path><path fill="#120b69" d="M8.647 65.026H81.27c3.542 0 6.44-2.899 6.44-6.441v-40.74l3.705.322c.805 0 1.61.483 2.093 1.127.483.644.805 1.61.644 2.415l-4.83 51.69c-.162 1.772-1.772 3.06-3.543 2.899l-74.235-8.373c-1.61-.161-2.737-1.45-2.898-2.899zm77.455 14.493c3.22 0 6.119-2.416 6.441-5.475l4.83-51.69c.162-1.611-.321-3.382-1.448-4.67-1.128-1.45-2.577-2.255-4.348-2.416l-5.314-.644c-.483-.161-.966 0-1.288.322-.323.161-.484.644-.484 1.127v42.512a3.23 3.23 0 0 1-3.22 3.22H7.036c-.805 0-1.449.645-1.449 1.45l-.16.805a6.266 6.266 0 0 0 5.635 7.085l74.396 8.374h.644z"></path>
		</symbol>
	
		<symbol id="condominium" viewBox="0 0 64 64">
			<g data-name="Condominium"><path d="M9 11h46v47H9z" fill="#c6c5ca"></path><path d="M27 29h10v10H27z" fill="#c2dff6"></path><g fill="#83d8f4"><path d="M13 29h10v10H13zM41 29h10v10H41zM27 15h10v10H27z"></path></g><path d="M13 15h10v10H13z" fill="#c2dff6"></path><path d="M41 15h10v10H41zM13 43h10v10H13zM27 43h10v10H27z" fill="#83d8f4"></path><path d="M42 43h8v12h-8z" fill="#898890"></path><path d="M40 55h12v3H40z" fill="#57565c"></path><path d="M6 7h52v4H6z" fill="#ed1c24"></path><path d="M62 57h-1a1 1 0 0 0 0 2h1a1 1 0 0 0 0-2zM27 40h10a1 1 0 0 0 1-1V29a1 1 0 0 0-1-1H27a1 1 0 0 0-1 1v10a1 1 0 0 0 1 1zm1-2v-2h3v2zm8 0h-3v-2h3zm-8-8h8v4h-8zM13 40h10a1 1 0 0 0 1-1V29a1 1 0 0 0-1-1H13a1 1 0 0 0-1 1v10a1 1 0 0 0 1 1zm1-2v-2h3v2zm8 0h-3v-2h3zm-8-8h8v4h-8zM41 40h10a1 1 0 0 0 1-1V29a1 1 0 0 0-1-1H41a1 1 0 0 0-1 1v10a1 1 0 0 0 1 1zm1-2v-2h3v2zm8 0h-3v-2h3zm-8-8h8v4h-8zM27 26h10a1 1 0 0 0 1-1V15a1 1 0 0 0-1-1H27a1 1 0 0 0-1 1v10a1 1 0 0 0 1 1zm1-2v-2h3v2zm8 0h-3v-2h3zm-8-8h8v4h-8zM13 26h10a1 1 0 0 0 1-1V15a1 1 0 0 0-1-1H13a1 1 0 0 0-1 1v10a1 1 0 0 0 1 1zm1-2v-2h3v2zm8 0h-3v-2h3zm-8-8h8v4h-8zM41 26h10a1 1 0 0 0 1-1V15a1 1 0 0 0-1-1H41a1 1 0 0 0-1 1v10a1 1 0 0 0 1 1zm1-2v-2h3v2zm8 0h-3v-2h3zm-8-8h8v4h-8zM13 54h10a1 1 0 0 0 1-1V43a1 1 0 0 0-1-1H13a1 1 0 0 0-1 1v10a1 1 0 0 0 1 1zm1-2v-2h3v2zm8 0h-3v-2h3zm-8-8h8v4h-8zM27 54h10a1 1 0 0 0 1-1V43a1 1 0 0 0-1-1H27a1 1 0 0 0-1 1v10a1 1 0 0 0 1 1zm1-2v-2h3v2zm8 0h-3v-2h3zm-8-8h8v4h-8z"></path><path d="M58 6H6a1 1 0 0 0-1 1v4a1 1 0 0 0 1 1h2v45H2a1 1 0 0 0 0 2h56a1 1 0 0 0 0-2h-2V12h2a1 1 0 0 0 1-1V7a1 1 0 0 0-1-1zM41 57v-1h10v1zm8-3h-6V44h6zm5 3h-1v-2a1 1 0 0 0-1-1h-1V43a1 1 0 0 0-1-1h-8a1 1 0 0 0-1 1v11h-1a1 1 0 0 0-1 1v2H10V12h44zm3-47H7V8h50z"></path></g>
		</symbol>
	
		<symbol id="deg-icon" viewBox="0 0 95 97">
			<path fill="#fff" d="M30.757 9.353a1.405 1.405 0 1 1 2.152-1.806 1.405 1.405 0 0 1-2.152 1.806zM20.097 18.298a1.181 1.181 0 1 1 1.81-1.52 1.181 1.181 0 0 1-1.81 1.52zM55.063 15.597a1.628 1.628 0 1 1 2.302-2.303 1.628 1.628 0 0 1-2.302 2.303zM45.223 25.435a1.405 1.405 0 1 1 1.987-1.987 1.405 1.405 0 0 1-1.987 1.987zM35.384 35.276a1.18 1.18 0 0 1 0-1.67 1.181 1.181 0 1 1 0 1.67zM87.87 8.218a2.074 2.074 0 1 1 2.667-3.177 2.074 2.074 0 0 1-2.667 3.177zM78.925 18.876a1.85 1.85 0 1 1 2.378-2.834 1.85 1.85 0 0 1-2.378 2.834zM69.981 29.537a1.627 1.627 0 1 1 2.092-2.494 1.627 1.627 0 0 1-2.092 2.494zM61.036 40.196a1.405 1.405 0 1 1 1.806-2.152 1.405 1.405 0 0 1-1.806 2.153zM52.092 50.856a1.182 1.182 0 1 1 1.519-1.811 1.182 1.182 0 0 1-1.52 1.81zM102.02 19.327a2.073 2.073 0 1 1 2.378-3.397 2.073 2.073 0 0 1-2.377 3.397zM94.038 30.726a1.85 1.85 0 1 1 2.124-3.032 1.85 1.85 0 0 1-2.124 3.032zM86.057 42.124a1.627 1.627 0 1 1 1.865-2.666 1.627 1.627 0 0 1-1.865 2.666zM78.076 53.523a1.404 1.404 0 1 1 1.609-2.301 1.404 1.404 0 0 1-1.61 2.301zM70.094 64.92a1.182 1.182 0 1 1 1.356-1.936 1.182 1.182 0 0 1-1.356 1.936zM103.17 53.264a1.63 1.63 0 0 1-.596-2.225 1.628 1.628 0 1 1 .596 2.225zM96.212 65.315a1.406 1.406 0 0 1 1.405-2.435 1.405 1.405 0 0 1-1.405 2.435zM89.254 77.365a1.183 1.183 0 1 1 1.184-2.048 1.183 1.183 0 0 1-1.184 2.048z" opacity=".34"></path><path fill="#fff" d="M30.033 11.759H73.26a6.65 6.65 0 0 1 6.65 6.65v71.488a6.65 6.65 0 0 1-6.65 6.65H30.033a6.65 6.65 0 0 1-6.65-6.65V18.409a6.65 6.65 0 0 1 6.65-6.65z"></path><path fill="#ffcd19" d="M84.983 18.409a6.65 6.65 0 1 1-13.3 0 6.65 6.65 0 0 1 13.3 0z"></path><path fill="#649454" d="M64.946 43.347H36.683a1.663 1.663 0 0 1 0-3.326h28.263a1.662 1.662 0 1 1 0 3.326zM64.946 51.659H41.67a1.663 1.663 0 1 1 0-3.325h23.275a1.662 1.662 0 1 1 0 3.325zM64.946 59.972H53.308a1.663 1.663 0 1 1 0-3.326h11.638a1.662 1.662 0 1 1 0 3.326z"></path><path fill="#d87d00" d="M31.099 96.291l-1.097-4.1a.832.832 0 0 0-1.01-.582l-4.098 1.1a.83.83 0 0 1-.926-1.208l9.39-16.566 8.645 4.987-9.39 16.567a.831.831 0 0 1-1.514-.198z"></path><path fill="#2695c6" d="M15.16 39l30.093 26.015L79.95 76.406l-7.481 12.96L7.678 51.96z"></path><path fill="#4dbbeb" d="M58.44 92.64l-26.317-17L4.242 61.35a7.822 7.822 0 0 1-2.864-10.686l.783-1.355a7.824 7.824 0 0 1 10.686-2.865l26.317 17.008 27.881 14.29a7.823 7.823 0 0 1 2.865 10.685l-.001.002-.783 1.354A7.822 7.822 0 0 1 58.44 92.64z"></path><path fill="#feb756" d="M39.101 60.3l5.759 3.325a1.663 1.663 0 0 1 .609 2.271L34.663 84.613a1.663 1.663 0 0 1-2.271.61l-5.76-3.326a1.663 1.663 0 0 1-.608-2.271L36.83 60.909a1.663 1.663 0 0 1 2.271-.61z"></path><path fill="#120b69" d="M89.402 18.92l1.792 5.539-5.184 2.649a1.659 1.659 0 0 0-.723.724l-2.652 5.183-5.54-1.792a1.638 1.638 0 0 0-1.022 0l-5.54 1.792-2.648-5.183a1.656 1.656 0 0 0-.725-.724l-5.184-2.65 1.792-5.538c.11-.332.11-.69 0-1.023l-1.792-5.538 5.185-2.649c.311-.159.565-.413.724-.724l2.649-5.184 5.54 1.793c.331.107.69.107 1.022 0l5.54-1.793 2.647 5.184c.16.311.412.565.724.724l5.184 2.65-1.793 5.537a1.67 1.67 0 0 0 0 1.023zm3.324-.511l2.063-6.374c.252-.78-.1-1.626-.831-1.995l-5.96-3.046-3.048-5.967a1.661 1.661 0 0 0-1.994-.831l-6.373 2.07L70.207.201a1.663 1.663 0 0 0-1.995.832l-3.043 5.96-5.967 3.047c-.027.015-.046.04-.072.055H30.033a8.323 8.323 0 0 0-8.313 8.313v22.86a1.662 1.662 0 0 0 3.326 0v-22.86a4.988 4.988 0 0 1 4.987-4.988h28.793l1.615 4.988-2.063 6.373c-.253.78.1 1.626.83 1.995l5.967 3.048 3.048 5.967a1.663 1.663 0 0 0 1.995.831l6.366-2.071 1.663.539v36.518a1.662 1.662 0 1 0 3.325 0V36.166l1.388.449c.778.252 1.625-.1 1.995-.83l3.048-5.968 5.966-3.048a1.662 1.662 0 0 0 .832-1.994z"></path><path fill="#120b69" d="M76.583 23.396a4.987 4.987 0 1 1 0-9.974 4.987 4.987 0 0 1 0 9.974zm0-13.3a8.312 8.312 0 1 0 8.313 8.312 8.323 8.323 0 0 0-8.313-8.312zM36.683 43.347h28.263a1.663 1.663 0 0 0 0-3.326H36.683a1.663 1.663 0 1 0 0 3.326zM64.946 48.334H41.67a1.663 1.663 0 1 0 0 3.326h23.275a1.663 1.663 0 0 0 0-3.326z"></path><g><path fill="#120b69" d="M64.946 56.646H53.308a1.663 1.663 0 0 0 0 3.326h11.638a1.662 1.662 0 1 0 0-3.326z"></path></g><g><path fill="#120b69" d="M40.008 26.722h9.975a1.663 1.663 0 0 0 0-3.326h-9.975a4.988 4.988 0 0 0 0 9.975h9.975a1.663 1.663 0 1 0 0-3.325h-9.975a1.662 1.662 0 0 1 0-3.324z"></path></g>
		</symbol>
	
		<symbol id="facebook-icon" viewBox="0 0 10 17">
			<path d="M8.946.003L6.774 0c-2.44 0-4.016 1.617-4.016 4.121v1.9H.575a.341.341 0 0 0-.342.342v2.753c0 .188.153.341.342.341h2.183v6.947c0 .188.153.341.342.341h2.848a.341.341 0 0 0 .342-.341V9.457h2.552a.341.341 0 0 0 .342-.341V6.363a.342.342 0 0 0-.34-.342H6.29v-1.61c0-.775.184-1.168 1.193-1.168h1.462a.341.341 0 0 0 .342-.342V.345a.342.342 0 0 0-.341-.342z"></path>
		</symbol>
	
		<symbol id="glub-icon" viewBox="0 0 111 111">
			<path fill="#fff" d="M80.805 60.875h.293c-7.332 10.997-6.58 11.987-8.358 20.547-.605 2.95-3.116 5.113-6.14 5.113H44.275c-3.024 0-5.535-2.162-6.14-5.113-1.778-8.56-1.026-9.55-8.358-20.547h.294a34.611 34.611 0 0 1-9.458-23.827c0-19.227 15.598-34.825 34.825-34.825 19.226 0 34.824 15.598 34.824 34.825 0 9.22-3.592 17.614-9.457 23.827z"></path><path fill="#feb756" d="M47.772 55.377V13.22h-5.499a3.666 3.666 0 0 0-3.665 3.665v1.833h-3.666a3.666 3.666 0 0 0-3.666 3.666v7.331h-1.833a3.666 3.666 0 0 0-3.666 3.666v12.83h7.332v5.499a3.666 3.666 0 0 0 3.666 3.666z"></path><path fill="#4dbbeb" d="M62.103 55.377V13.22h5.499a3.666 3.666 0 0 1 3.666 3.665v1.833h3.665a3.666 3.666 0 0 1 3.666 3.666v7.331h1.833a3.666 3.666 0 0 1 3.666 3.666v9.164h-7.332v9.165a3.666 3.666 0 0 1-3.665 3.666z"></path><path fill="#2e5166" d="M68.268 46.212h-3.666v-3.665c0-1.013.82-1.833 1.833-1.833h7.331v3.665h-5.498zM68.268 31.55h-3.666v-3.666h-5.499v-3.666h7.332c1.013 0 1.833.82 1.833 1.833z"></path><path fill="#e15d2d" d="M38.942 46.212h-3.666v-7.331c0-1.012.82-1.833 1.833-1.833h5.499v3.666h-3.666zM40.775 24.218v-5.499h3.665v5.499z"></path><path fill="#ffbe00" d="M44.44 86.535h21.995a3.666 3.666 0 1 1 0 7.331H44.44a3.666 3.666 0 1 1 0-7.331z"></path><path fill="#ffbe00" d="M46.273 93.867h18.329a3.666 3.666 0 1 1 0 7.331H46.273a3.666 3.666 0 1 1 0-7.331z"></path><path fill="#ffbe00" d="M48.106 101.198H62.77a3.666 3.666 0 1 1 0 7.331H48.106a3.666 3.666 0 1 1 0-7.331z"></path><g><path fill="#e15d2d" d="M46.242 55.057l5.5 31.16-3.61.636-5.498-31.16z"></path></g><g><path fill="#2e5166" d="M64.63 55.057l3.608.638-5.503 31.16-3.608-.638z"></path></g><g><path fill="#e7343a" d="M103.092 66.374a1.835 1.835 0 0 1-1.768-1.35l-4.237-15.535-3.353 6.707a1.833 1.833 0 0 1-1.639 1.013h-7.332v-3.666h6.199l4.992-9.984a1.813 1.813 0 0 1 1.82-1.004 1.835 1.835 0 0 1 1.588 1.342l4.06 14.885 1.634-4.087c.284-.708 1.02-1.128 1.74-1.152l3.665.074-.075 3.666-2.396-.049-3.195 7.988a1.834 1.834 0 0 1-1.703 1.152z"></path></g><g><path fill="#120b69" d="M38.942 46.212v-5.498h3.666v-3.666h-5.5c-1.012 0-1.832.82-1.832 1.833v5.498H31.61V33.382c0-1.01.822-1.833 1.833-1.833h1.833c1.013 0 1.833-.82 1.833-1.833v-7.331c0-1.01.821-1.833 1.833-1.833h1.833v3.666h3.665v-7.332c0-1.01.822-1.833 1.833-1.833h3.666v38.49h-9.164a1.835 1.835 0 0 1-1.833-1.832zm21.994-18.328h3.666v3.665h3.666v-5.498c0-1.013-.82-1.833-1.833-1.833h-5.499v-9.165h3.666c1.011 0 1.833.823 1.833 1.833v1.833c0 1.012.82 1.833 1.833 1.833h3.665c1.012 0 1.833.823 1.833 1.833v7.331c0 1.013.82 1.833 1.833 1.833h1.833c1.011 0 1.833.823 1.833 1.833v7.332h-12.83c-1.013 0-1.833.82-1.833 1.832v3.666h3.666V44.38h3.665v7.332c0 1.01-.821 1.833-1.832 1.833h-9.165zm18.535 31.733a1.84 1.84 0 0 0-.496 1.144c-5.862 8.898-6.315 11.313-7.366 16.896-.187 1-.397 2.11-.664 3.397-.44 2.148-2.228 3.648-4.345 3.648h-3.48l4.852-27.493H70.1a5.505 5.505 0 0 0 5.498-5.498v-7.332h5.499c1.013 0 1.833-.82 1.833-1.832v-9.165a5.505 5.505 0 0 0-5.499-5.498v-5.499a5.505 5.505 0 0 0-5.499-5.499H70.1a5.505 5.505 0 0 0-5.5-5.498h-5.498c-1.013 0-1.833.82-1.833 1.833v42.156c0 1.012.82 1.832 1.833 1.832h5.148l-4.852 27.493h-7.923L46.624 57.21h5.148c1.013 0 1.833-.82 1.833-1.832V13.22c0-1.013-.82-1.833-1.833-1.833h-5.499a5.505 5.505 0 0 0-5.498 5.498h-1.833a5.505 5.505 0 0 0-5.499 5.499v5.499a5.505 5.505 0 0 0-5.498 5.498v12.83c0 1.012.82 1.833 1.832 1.833h5.5v3.666a5.505 5.505 0 0 0 5.498 5.498h2.129l4.851 27.493h-3.48c-2.117 0-3.905-1.5-4.345-3.653a173.455 173.455 0 0 1-.664-3.392c-1.05-5.583-1.504-7.998-7.366-16.896a1.84 1.84 0 0 0-.495-1.144c-5.778-6.12-8.959-14.134-8.959-22.57 0-18.19 14.8-32.99 32.992-32.99 18.19 0 32.991 14.8 32.991 32.99 0 8.436-3.18 16.45-8.958 22.57zm-16.702 47.08H48.106a1.835 1.835 0 0 1-1.833-1.833c0-1.01.822-1.833 1.833-1.833H62.77c1.011 0 1.833.823 1.833 1.833s-.822 1.833-1.833 1.833zm3.666-9.164c0 1.01-.822 1.832-1.833 1.832H46.273a1.835 1.835 0 0 1-1.833-1.832c0-1.01.822-1.833 1.833-1.833h18.329c1.011 0 1.833.822 1.833 1.833zm0-9.165c1.011 0 1.833.823 1.833 1.833s-.822 1.833-1.833 1.833H44.44a1.835 1.835 0 0 1-1.832-1.833c0-1.01.821-1.833 1.832-1.833zm40.36-34.824c-.72.023-1.455.444-1.74 1.151l-1.634 4.088-4.06-14.886a1.835 1.835 0 0 0-1.587-1.342 1.813 1.813 0 0 0-1.82 1.005l-4.992 9.984h-2.807a36.457 36.457 0 0 0 3.94-16.496C92.095 16.835 75.65.39 55.437.39S18.78 16.835 18.78 37.048a36.46 36.46 0 0 0 3.942 16.5l-.239-.004c-.737.023-1.455.444-1.74 1.151l-1.634 4.088-4.06-14.886a1.835 1.835 0 0 0-1.587-1.342 1.807 1.807 0 0 0-1.82 1.005L6.65 53.544H.452v3.665h7.331c.694 0 1.328-.392 1.64-1.013l3.352-6.706 4.237 15.533a1.835 1.835 0 0 0 3.47.2l3.195-7.988 1.23.025c.94 1.413 1.952 2.786 3.095 4.07.05.197.134.388.25.562 6.016 9.023 6.367 10.893 7.41 16.443.194 1.02.407 2.152.677 3.455a8.208 8.208 0 0 0 3.59 5.282 5.46 5.46 0 0 0-.987 3.13c0 1.952 1.03 3.66 2.568 4.635a5.433 5.433 0 0 0-.735 2.696c0 1.953 1.03 3.66 2.568 4.636a5.433 5.433 0 0 0-.735 2.696 5.505 5.505 0 0 0 5.498 5.498H62.77a5.505 5.505 0 0 0 5.499-5.498c0-.985-.281-1.896-.736-2.696 1.538-.976 2.569-2.683 2.569-4.636 0-.984-.281-1.896-.736-2.696 1.538-.976 2.568-2.683 2.568-4.635 0-1.164-.368-2.24-.987-3.13a8.203 8.203 0 0 0 3.59-5.278c.27-1.307.483-2.44.676-3.459 1.044-5.55 1.395-7.42 7.41-16.443.117-.174.201-.365.251-.562 1.157-1.3 2.18-2.689 3.129-4.12h6.093c.694 0 1.328-.392 1.64-1.013l3.352-6.707 4.237 15.534a1.835 1.835 0 0 0 3.47.199l3.195-7.988 2.397.049.075-3.666z"></path></g>
		</symbol>
	
		<symbol id="handd-icon" viewBox="0 0 94 86">
			<path fill="#fff" d="M-9.657 22.222a2.52 2.52 0 1 1 .44-5.02 2.52 2.52 0 0 1-.44 5.02zM5.88 23.1a2.518 2.518 0 1 1 0-5.039 2.52 2.52 0 0 1 0 5.039zM5.88 37.013a2.295 2.295 0 1 1-.001-4.591 2.296 2.296 0 1 1 0 4.591zM5.88 50.93a2.074 2.074 0 1 1 .001-4.147 2.074 2.074 0 0 1-.001 4.147zM5.88 64.846a1.85 1.85 0 1 1 0-3.7 1.85 1.85 0 1 1 0 3.7zM5.88 78.76a1.628 1.628 0 1 1 0-3.255 1.628 1.628 0 0 1 0 3.255zM21.435 22.62a2.518 2.518 0 1 1-.44-5.019 2.518 2.518 0 0 1 2.73 2.29 2.521 2.521 0 0 1-2.29 2.73zM22.648 36.481a2.296 2.296 0 1 1-.402-4.573 2.296 2.296 0 0 1 .402 4.573zM23.862 50.344a2.074 2.074 0 0 1-2.247-1.884 2.07 2.07 0 0 1 1.883-2.246 2.072 2.072 0 1 1 .364 4.13zM25.073 64.206a1.85 1.85 0 1 1-.321-3.687 1.85 1.85 0 0 1 .321 3.687zM26.287 78.07a1.628 1.628 0 1 1-.285-3.245 1.628 1.628 0 0 1 .285 3.245zM36.888 20.786a2.517 2.517 0 0 1-2.918-2.042 2.518 2.518 0 1 1 2.918 2.042zM39.305 34.491a2.296 2.296 0 1 1-.797-4.522 2.296 2.296 0 0 1 .797 4.522zM41.722 48.193a2.073 2.073 0 1 1-.721-4.083 2.073 2.073 0 0 1 .721 4.083zM44.137 61.898a1.852 1.852 0 0 1-2.143-1.502 1.85 1.85 0 1 1 2.143 1.502zM46.554 75.602a1.627 1.627 0 1 1-.567-3.203 1.627 1.627 0 0 1 .567 3.203zM52.125 17.614a2.52 2.52 0 1 1-1.304-4.867 2.52 2.52 0 0 1 1.304 4.867zM55.726 31.054a2.297 2.297 0 1 1-1.189-4.436 2.297 2.297 0 0 1 1.189 4.436zM59.327 44.496a2.074 2.074 0 1 1-1.071-4.006 2.074 2.074 0 0 1 1.071 4.006zM62.929 57.937a1.85 1.85 0 1 1-.958-3.574 1.85 1.85 0 0 1 .958 3.574zM66.53 71.377a1.627 1.627 0 1 1-.841-3.144 1.628 1.628 0 0 1 .841 3.144zM71.785 26.2a2.296 2.296 0 1 1-1.572-4.315 2.296 2.296 0 0 1 1.572 4.315zM76.543 39.277a2.073 2.073 0 1 1-1.418-3.896 2.074 2.074 0 1 1 1.417 3.896zM81.303 52.352a1.85 1.85 0 1 1-1.266-3.476 1.85 1.85 0 0 1 1.266 3.476zM86.063 65.428a1.626 1.626 0 1 1-1.114-3.058 1.628 1.628 0 0 1 1.114 3.058zM90.822 78.506a1.406 1.406 0 0 1-.96-2.642 1.405 1.405 0 0 1 .96 2.642zM87.358 19.965a2.297 2.297 0 1 1-1.94-4.164 2.297 2.297 0 0 1 1.94 4.164zM93.24 32.578a2.073 2.073 0 1 1-1.752-3.759 2.073 2.073 0 0 1 1.751 3.76zM99.12 45.191a1.852 1.852 0 0 1-1.563-3.356 1.85 1.85 0 0 1 1.564 3.356z" opacity=".34"></path><path fill="#feb756" d="M75.815 31.679a9.151 9.151 0 0 0-5.946 8.57 9.151 9.151 0 0 0 5.946 8.57 9.151 9.151 0 0 0 5.946-8.57 9.151 9.151 0 0 0-5.946-8.57zM68.497 2.407a9.151 9.151 0 0 0-5.946 8.57 9.151 9.151 0 0 0 5.946 8.57 9.151 9.151 0 0 0 5.946-8.57 9.151 9.151 0 0 0-5.946-8.57zM46.183 25.63a9.148 9.148 0 0 0-5.305 8.3 9.148 9.148 0 0 0 5.305 8.302 9.148 9.148 0 0 0 5.306-8.301 9.148 9.148 0 0 0-5.306-8.302z"></path><path fill="#4dbbeb" d="M1.995 50.122v28.546h15.184V50.122z"></path><path fill="#120b69" d="M9.862 51.226a1.83 1.83 0 1 0 .001 3.66 1.83 1.83 0 0 0-.001-3.66z"></path><path fill="#120b69" d="M88.042 66.208a1.67 1.67 0 0 0-.105.047L58.81 80.102a24.66 24.66 0 0 1-10.275 2.225 24.76 24.76 0 0 1-9.322-1.814l-17.785-7.2a1.836 1.836 0 0 0-.687-.133H19.01V51.226h12.106c1.57 0 3.12.406 4.485 1.175l9.667 5.437a5.5 5.5 0 0 0 2.692.706h11.848a3.663 3.663 0 0 1 3.659 3.659 3.667 3.667 0 0 1-1.743 3.113l-.014.005a1.853 1.853 0 0 0-.382.208 3.646 3.646 0 0 1-1.52.333h-18.6a5.494 5.494 0 0 0-5.488 5.488 1.83 1.83 0 1 0 3.659 0c0-1.009.82-1.83 1.83-1.83h18.598a7.283 7.283 0 0 0 3.496-.894l22.347-8.768a3.355 3.355 0 0 1 3.083.422 3.352 3.352 0 0 1 1.443 2.777 3.378 3.378 0 0 1-2.134 3.151zM15.35 76.838H3.824v-29.27H15.35zm75.486-19.553a7.06 7.06 0 0 0-6.496-.843l-17.29 6.783c.047-.336.074-.677.074-1.022 0-4.035-3.284-7.318-7.318-7.318H47.958a1.83 1.83 0 0 1-.897-.235l-9.666-5.437a12.819 12.819 0 0 0-6.28-1.646H19.009v-1.83a1.83 1.83 0 0 0-1.83-1.83H1.995a1.83 1.83 0 0 0-1.83 1.83v32.931c0 1.01.82 1.83 1.83 1.83h15.184a1.83 1.83 0 0 0 1.83-1.83v-1.83h1.376l17.455 7.066a28.396 28.396 0 0 0 10.695 2.082 28.3 28.3 0 0 0 11.804-2.559l.028-.013 29.092-13.831a7.022 7.022 0 0 0 4.376-6.526 7.06 7.06 0 0 0-3-5.772z"></path><path fill="#120b69" d="M9.862 58.544a1.83 1.83 0 0 0-1.83 1.83V71.35a1.83 1.83 0 1 0 3.659 0V60.373a1.83 1.83 0 0 0-1.83-1.83zM79.931 40.249c0 4.035-3.283 7.318-7.318 7.318s-7.318-3.283-7.318-7.318 3.283-7.318 7.318-7.318 7.318 3.283 7.318 7.318zm-18.295 0c0 6.053 4.924 10.977 10.977 10.977S83.59 46.302 83.59 40.249s-4.924-10.977-10.977-10.977-10.977 4.924-10.977 10.977zM65.295 3.659c4.035 0 7.318 3.283 7.318 7.318s-3.283 7.318-7.318 7.318-7.318-3.283-7.318-7.318 3.283-7.318 7.318-7.318zm0 18.295c6.053 0 10.977-4.924 10.977-10.977S71.348 0 65.295 0 54.318 4.924 54.318 10.977s4.924 10.977 10.977 10.977zM43.341 25.613c4.035 0 7.318 3.283 7.318 7.318s-3.283 7.318-7.318 7.318-7.318-3.283-7.318-7.318 3.283-7.318 7.318-7.318zm0 18.295c6.053 0 10.977-4.924 10.977-10.977s-4.924-10.977-10.977-10.977-10.977 4.924-10.977 10.977 4.924 10.977 10.977 10.977z"></path>
		</symbol>
	
		<symbol id="insta-icon" viewBox="0 0 18 18">
			<path d="M9.121 5.048a3.542 3.542 0 0 0-3.538 3.538 3.542 3.542 0 0 0 3.538 3.538 3.542 3.542 0 0 0 3.539-3.538 3.542 3.542 0 0 0-3.54-3.538z"></path><path d="M14.156 4.263a.507.507 0 0 1-.712 0 .506.506 0 0 1 0-.712.506.506 0 0 1 .712 0 .506.506 0 0 1 0 .712zM9.12 13.13a4.55 4.55 0 0 1-4.544-4.544A4.55 4.55 0 0 1 9.12 4.04a4.55 4.55 0 0 1 4.545 4.545A4.55 4.55 0 0 1 9.12 13.13zm6.856-11.4A5.85 5.85 0 0 0 11.816 0h-5.39a5.85 5.85 0 0 0-4.16 1.73 5.85 5.85 0 0 0-1.73 4.162v5.388a5.85 5.85 0 0 0 1.73 4.162 5.85 5.85 0 0 0 4.16 1.73h5.39a5.85 5.85 0 0 0 4.16-1.73 5.85 5.85 0 0 0 1.731-4.162V5.892a5.85 5.85 0 0 0-1.73-4.162z"></path>
		</symbol>
	
		<symbol id="line-icon" viewBox="0 0 64 10">
			<path fill="none" stroke="#fff" stroke-miterlimit="50" stroke-width="2.31" d="M1.324 8.333L12.01 1.757l9.453 6.576L31.74 2.168l9.453 6.165L52.7 2.168l9.864 6.165"></path>
		</symbol>
	
		<symbol id="linee-icon" viewBox="0 0 35 13">
			<path fill="none" stroke="#ff1b25" stroke-miterlimit="50" stroke-width="2" d="M34.944 12.046c-4.369 0-4.369-4.474-8.738-4.474-4.37 0-4.37 4.474-8.738 4.474-4.37 0-4.37-4.474-8.739-4.474-4.37 0-4.37 4.474-8.74 4.474M34.944 5.993c-4.369 0-4.369-4.475-8.738-4.475-4.37 0-4.37 4.475-8.738 4.475-4.37 0-4.37-4.475-8.739-4.475-4.37 0-4.37 4.475-8.74 4.475"></path>
		</symbol>
	
		<symbol id="notee" viewBox="0 0 98 98">
			<path fill="#fff" d="M96.464 21.94v64.868H75.896v-9.493h11.075V21.941zM63.24 82.062v4.746H41.864a22.112 22.112 0 0 0 3.75-9.493h17.624zM17.357 52.001l.238.855a22.22 22.22 0 0 0-9.572 5.631l-.158-.157V21.94h9.492z"></path><path fill="#fff" d="M52.164 77.315h-6.55c.143-1.029.222-2.089.222-3.164 0-7.056-3.307-13.338-8.449-17.388v-.015h5.285V44.09H23.686V52c-2.12 0-4.16.3-6.091.855L17.357 52V14.03h22.15c6.993 0 12.657 5.663 12.657 12.656zM79.06 14.03H64.821c-6.993 0-12.657 5.664-12.657 12.657v50.628H63.24v-37.97l6.329-9.493 1.218 1.819 5.11 7.673v37.971h11.075V14.03z"></path><path fill="#4dbbeb" d="M79.06 2.955V14.03h-9.492V2.955l4.746 3.165z"></path><path fill="#ffcd19" d="M46.148 46.698v12.657h-5.284v.015a21.98 21.98 0 0 0-13.702-4.762v-7.91z"></path><path fill="#4dbbeb" d="M48.221 79.053a22.112 22.112 0 0 1-3.749 9.493C40.47 94.29 33.808 98.04 26.293 98.04c-12.23 0-22.15-9.92-22.15-22.15 0-6.107 2.484-11.645 6.487-15.663a22.219 22.219 0 0 1 9.572-5.632 22.044 22.044 0 0 1 6.091-.855c5.174 0 9.92 1.772 13.702 4.762 5.142 4.05 8.448 10.332 8.448 17.388 0 1.076-.079 2.135-.222 3.164z"></path><path fill="#fff" d="M39.507 74.151c0 8.737-7.083 15.821-15.821 15.821S7.865 82.888 7.865 74.152c0-8.739 7.083-15.822 15.821-15.822s15.821 7.083 15.821 15.821zM75.896 86.808v3.164a6.327 6.327 0 0 1-6.328 6.329 6.327 6.327 0 0 1-6.329-6.329v-7.91h12.657z"></path><path fill="#feb756" d="M72.175 82.061h-6.328V39.344h12.656V82.06z"></path><path fill="#120b69" d="M22.104 66.24v9.493h6.328V72.57h-3.164v-6.33z"></path><path fill="#120b69" d="M23.686 56.748a17.438 17.438 0 0 0-11.013 3.931l2.005 2.447a14.256 14.256 0 0 1 7.426-3.114v3.064h3.164v-3.071c6.588.733 11.831 5.974 12.564 12.564H34.76v3.164h3.064a14.241 14.241 0 0 1-3.115 7.425l2.45 2.006a17.437 17.437 0 0 0 3.93-11.013c0-9.595-7.809-17.403-17.404-17.403zM25.268 88.29v-3.064h-3.164v3.07c-6.588-.732-11.831-5.973-12.564-12.563h3.071V72.57H9.547a14.244 14.244 0 0 1 3.115-7.426l-2.45-2.005a17.435 17.435 0 0 0-3.93 11.013c0 9.596 7.808 17.403 17.404 17.403a17.44 17.44 0 0 0 11.013-3.932l-2.005-2.447a14.258 14.258 0 0 1-7.426 3.115z"></path><path fill="#120b69" d="M94.882 85.226H77.478v-6.329h11.075V23.523h6.329zm-25.314 9.493a4.753 4.753 0 0 1-4.747-4.747v-6.328h9.493v6.328a4.753 4.753 0 0 1-4.746 4.747zm-24.91-9.493a23.49 23.49 0 0 0 2.28-6.329h14.719v6.329zm-20.972 9.493c-11.34 0-20.568-9.227-20.568-20.568 0-11.34 9.227-20.568 20.568-20.568 11.34 0 20.568 9.227 20.568 20.568 0 11.34-9.227 20.568-20.568 20.568zm-7.91-71.196v28.28a23.658 23.658 0 0 0-6.33 3.407V23.523zm25.313 31.643h-3.224a23.556 23.556 0 0 0-12.597-4.667v-4.826H41.09zm-1.582-39.554c6.107 0 11.075 4.97 11.075 11.075v49.046h-3.244c.034-.525.08-1.047.08-1.582 0-6.082-2.32-11.618-6.093-15.821h2.929V42.509h-22.15v7.99c-1.073.072-2.135.189-3.164.4V15.611zm30.06 17.092l3.373 5.058h-6.744zm-1.581 28.79V80.48H64.82V40.926h3.165V58.33h3.164V40.926h3.164V80.48H71.15V61.494zm17.403-45.882v60.121h-7.91V38.864l-3.9-5.848h8.646V29.85H71.47L69.568 27l-1.902 2.852h-7.591v3.165h5.482l-3.9 5.848v36.87h-7.91V26.686c0-6.106 4.967-11.075 11.074-11.075zM71.149 5.91l3.165 2.11 3.164-2.11v6.538H71.15zm26.898 14.45h-9.493v-7.91h-7.91V-.002l-6.329 4.219L67.986 0v12.448H64.82c-5.51 0-10.291 3.153-12.657 7.746-2.365-4.593-7.146-7.746-12.657-7.746H15.775v7.91H6.283V58.07C2.368 62.304-.046 67.944-.046 74.151c0 13.086 10.646 23.732 23.732 23.732 7.74 0 14.606-3.742 18.941-9.493h19.03v1.582c0 4.362 3.549 7.911 7.91 7.911 4.362 0 7.911-3.549 7.911-7.91V88.39h20.568z"></path><path fill="#120b69" d="M22.104 23.523h3.164v3.164h-3.164zM28.432 23.523h15.822v3.164H28.432zM22.104 29.852h3.164v3.164h-3.164zM28.432 29.852h15.822v3.164H28.432zM22.104 36.18h22.15v3.164h-22.15z"></path>
		</symbol>
	
		<symbol id="pepolee-icon" viewBox="0 0 97 94">
			<path fill="#fff" d="M93.461 47c0 25.107-20.354 45.46-45.461 45.46C22.892 92.461 2.538 72.107 2.538 47 2.538 21.892 22.892 1.538 48 1.538c25.107 0 45.46 20.354 45.46 45.462z"></path><path fill="#f5f7fa" d="M61.638 65.184H67.7a1.52 1.52 0 0 1 1.515 1.516v7.577a4.54 4.54 0 0 1-4.546 4.546H52.546v-3.031h-9.092v3.03H31.33a4.54 4.54 0 0 1-4.547-4.545V66.7a1.52 1.52 0 0 1 1.516-1.516z"></path><path fill="#f5f7fa" d="M31.33 78.823h12.124v3.03h9.092v-3.03H64.67a4.54 4.54 0 0 0 4.546-4.546v16.669A1.52 1.52 0 0 1 67.7 92.46H28.3a1.52 1.52 0 0 1-1.515-1.515v-16.67a4.54 4.54 0 0 0 4.546 4.547z"></path><path fill="#ffcd19" d="M52.546 78.823v3.03h-9.092v-6.06h9.092z"></path><path fill="#4dbbeb" d="M60.092 59.638v4.546H41.908v-4.546a1.52 1.52 0 0 1 1.515-1.515h15.154a1.52 1.52 0 0 1 1.515 1.515z"></path><path fill="#4dbbeb" d="M64.638 48.909v16.275h-4.546v-4.546a1.52 1.52 0 0 0-1.515-1.515H43.423a1.52 1.52 0 0 0-1.515 1.515v4.546H37.36V48.91a4.542 4.542 0 0 1 3.304-4.364l7.304-2.091s0 3.03 3.03 3.03c3.032 0 3.032-3.03 3.032-3.03l7.304 2.09a4.542 4.542 0 0 1 3.303 4.365z"></path><path fill="#fff" d="M88.976 66.73a46.253 46.253 0 0 1-5.926 9.228l-.196-.166V62.154H67.7v3.03h-6.062V48.91a4.542 4.542 0 0 1 3.304-4.364l7.304-2.091s0 3.03 3.03 3.03c3.032 0 3.032-3.03 3.032-3.03l7.303 2.09a4.542 4.542 0 0 1 3.304 4.365V66.7zM28.3 62.154H13.146v13.638l-.197.167a46.253 46.253 0 0 1-5.925-9.229l.06-.03V48.909a4.542 4.542 0 0 1 3.304-4.364l7.304-2.091s0 3.03 3.03 3.03c3.032 0 3.032-3.03 3.032-3.03l7.304 2.09a4.542 4.542 0 0 1 3.303 4.365v16.275H28.3z"></path><path fill="#fff" d="M82.854 75.792l.197.167a45.548 45.548 0 0 1-7.774 7.41V62.154h7.577zM67.7 62.154h7.577v21.215a45.013 45.013 0 0 1-6.062 3.85v-20.52a1.52 1.52 0 0 0-1.515-1.515zM20.723 62.154v21.215a45.55 45.55 0 0 1-7.774-7.41l.197-.167V62.154zM28.3 62.154v3.03a1.52 1.52 0 0 0-1.516 1.516v20.518a45.008 45.008 0 0 1-6.061-3.85V62.155z"></path><path fill="#feb756" d="M87.748 27.542a12.464 12.464 0 0 1-3.334 1.379l-.227.06a6.054 6.054 0 0 0-1.622-2.94 6.101 6.101 0 0 0-4.288-1.772 6.05 6.05 0 0 0-5.94 4.88l-3.531-3.531 1.651-2.486a12.464 12.464 0 0 1-1.378-3.334l-2.925-.575V14.16l2.925-.575a12.464 12.464 0 0 1 1.378-3.334l-1.651-2.486 1.788-1.787 1.788-1.789 2.485 1.652a12.464 12.464 0 0 1 3.334-1.379l.576-2.925h5.061l.576 2.925c1.197.303 2.319.773 3.334 1.379l2.485-1.652 3.577 3.576-1.652 2.486a12.464 12.464 0 0 1 1.378 3.334l2.925.575v5.062l-2.925.575a12.464 12.464 0 0 1-1.378 3.334l1.652 2.486-1.789 1.788-1.788 1.788zm-6.44-4.788a6.06 6.06 0 0 0 6.061-6.062 6.06 6.06 0 0 0-6.061-6.061 6.06 6.06 0 0 0-6.062 6.061 6.06 6.06 0 0 0 6.062 6.062z"></path><path fill="#ffcd19" d="M84.37 16.692c0 3.348-1.81 6.062-4.042 6.062-2.232 0-4.041-2.714-4.041-6.062 0-3.347 1.81-6.061 4.041-6.061 2.232 0 4.041 2.714 4.041 6.061z"></path><path fill="#f5f7fa" d="M78.308 38.605v3.849s0 3.03-3.031 3.03-3.031-3.03-3.031-3.03v-3.85a6.047 6.047 0 0 0 3.03.819 6.047 6.047 0 0 0 3.032-.818z"></path><path fill="#f5f7fa" d="M78.308 38.605a6.047 6.047 0 0 1-3.031.818 6.047 6.047 0 0 1-3.031-.818 6.03 6.03 0 0 1-3.03-5.244v-3.03c0-.41.044-.803.12-1.182a6.05 6.05 0 0 1 5.94-4.88c1.668 0 3.183.682 4.29 1.773a6.054 6.054 0 0 1 1.62 2.94c.107.424.152.879.152 1.349v3.03a6.03 6.03 0 0 1-3.03 5.244zM51.03 38.605v3.849s0 3.03-3.03 3.03-3.03-3.03-3.03-3.03v-3.85a6.047 6.047 0 0 0 3.03.819 6.047 6.047 0 0 0 3.03-.818z"></path><path fill="#f5f7fa" d="M51.03 38.605a6.047 6.047 0 0 1-3.03.818 6.047 6.047 0 0 1-3.03-.818 6.03 6.03 0 0 1-3.032-5.244v-3.03A6.06 6.06 0 0 1 48 24.269c1.667 0 3.182.682 4.289 1.773a6.101 6.101 0 0 1 1.772 4.289v3.03a6.03 6.03 0 0 1-3.03 5.244zM23.754 38.605v3.849s0 3.03-3.031 3.03c-3.03 0-3.03-3.03-3.03-3.03v-3.85a6.047 6.047 0 0 0 3.03.819 6.047 6.047 0 0 0 3.03-.818z"></path><path fill="#f5f7fa" d="M23.754 38.605a6.048 6.048 0 0 1-3.031.818 6.048 6.048 0 0 1-3.03-.818 6.03 6.03 0 0 1-3.032-5.244v-3.03c0-1.668.683-3.183 1.773-4.29a6.101 6.101 0 0 1 4.289-1.772c.5 0 1 .06 1.47.182a6.216 6.216 0 0 1 2.819 1.59 6.101 6.101 0 0 1 1.772 4.29v3.03a6.03 6.03 0 0 1-3.03 5.244z"></path><g><path fill="#feb756" d="M31.815 17.177h6.062v16.669h-6.062z"></path></g><g><path fill="#fff" d="M22.238 9.54v14.729l-.045.182a5.915 5.915 0 0 0-1.47-.182 6.101 6.101 0 0 0-4.289 1.773l-.257-.258v-19.7h6.061z"></path></g><g><path fill="#4dbbeb" d="M6.6 1.538v30.308H.538V1.538z"></path></g><g><path fill="#120b69" d="M89.3 18.504l-.235.927a11.052 11.052 0 0 1-1.214 2.932l-.489.821 1.497 2.246-1.815 1.815-2.246-1.497-.821.49c-.593.353-1.226.627-1.877.862a7.613 7.613 0 0 0-2.486-2.963c3.555-.624 6.27-3.716 6.27-7.445 0-4.177-3.399-7.577-7.576-7.577-4.178 0-7.577 3.4-7.577 7.577 0 2.563 1.285 4.822 3.238 6.193a7.557 7.557 0 0 0-5.173 3.582l-1.038-1.038 1.496-2.246-.489-.821a11.09 11.09 0 0 1-1.214-2.933l-.234-.926-2.648-.527V15.41l2.646-.53.235-.926c.262-1.035.672-2.02 1.214-2.933l.489-.821-1.497-2.246 1.815-1.815 2.246 1.497.821-.489c.911-.543 1.898-.95 2.933-1.214l.926-.235.527-2.644h2.566l.53 2.646.926.234c1.035.263 2.02.672 2.932 1.215l.822.489 2.246-1.497 1.815 1.815-1.497 2.245.489.822c.543.91.95 1.898 1.214 2.932l.235.927 2.644.526v2.567zM91.946 47c0 3.919-.53 7.752-1.515 11.426v-9.512a6.086 6.086 0 0 0-4.396-5.828l-6.212-1.775v-1.926c1.83-1.385 3.03-3.558 3.03-6.022v-3.03c0-.092-.024-.178-.027-.269a14.027 14.027 0 0 0 1.851-.756l2.753 1.835 1.115-1.116c2.256 5.37 3.401 11.068 3.401 16.973zM76.792 80.185V63.67h4.546v11.947a43.945 43.945 0 0 1-4.546 4.57zM70.731 66.7a3.021 3.021 0 0 0-1.516-2.61v-.42h4.546v18.94a44.41 44.41 0 0 1-3.03 1.994zM28.3 90.946v-11.45c.895.521 1.921.842 3.03.842h10.608v3.031h12.123v-3.03H64.67c1.11 0 2.137-.322 3.032-.845v11.452zm-6.062-27.277h4.546v.421a3.021 3.021 0 0 0-1.515 2.61v17.904a44.404 44.404 0 0 1-3.03-1.994zm-7.577 11.947V63.67h4.547v16.516a43.944 43.944 0 0 1-4.547-4.569zM6.245 33.361h6.901c0 2.466 1.202 4.64 3.03 6.023v1.926l-6.21 1.774a6.088 6.088 0 0 0-4.397 5.83v9.512A44.101 44.101 0 0 1 4.054 47c0-4.67.757-9.247 2.19-13.639zM4.054 3.054h3.03V30.33h-3.03zM20.723 7.6v15.154a7.5 7.5 0 0 0-3.03.642V7.6zm56.07 34.835c-.02.7-.296 1.534-1.516 1.534s-1.497-.833-1.516-1.534v-1.65a7.584 7.584 0 0 0 3.031 0zm-56.07-1.497c.518 0 1.025-.053 1.515-.153v1.65c-.018.7-.295 1.534-1.515 1.534s-1.497-.833-1.515-1.534v-1.65c.49.1.997.153 1.515.153zM48 37.908a4.552 4.552 0 0 1-4.546-4.547v-3.03A4.552 4.552 0 0 1 48 25.784a4.552 4.552 0 0 1 4.546 4.547v3.03A4.552 4.552 0 0 1 48 37.908zm1.515 4.527c-.018.7-.295 1.534-1.515 1.534s-1.497-.833-1.515-1.534v-1.65a7.584 7.584 0 0 0 3.03 0zm-9.092 18.203h15.154v3.031H40.423zm19.7 3.031h-1.515v-3.03a3.021 3.021 0 0 0-1.516-2.61V50.03h-3.03v7.577H41.937V50.03h-3.03v7.998a3.021 3.021 0 0 0-1.516 2.61v3.03h-1.515V48.914c0-1.346.903-2.545 2.199-2.915l5.791-1.654C44.454 45.73 45.722 47 48 47c2.277 0 3.546-1.27 4.134-2.655l5.791 1.654a3.044 3.044 0 0 1 2.198 2.915zM28.3 33.361zm12.123 0c0 2.466 1.202 4.64 3.03 6.023v1.926l-6.211 1.774a6.01 6.01 0 0 0-2.88 1.857 6.01 6.01 0 0 0-2.881-1.857l-6.212-1.773v-1.926C27.1 38 28.3 35.827 28.3 33.361zm-6.062-3.03h-3.03V16.692h3.03zm-9.092 0v3.03a4.552 4.552 0 0 1-4.546 4.547 4.552 4.552 0 0 1-4.546-4.547v-3.03a4.552 4.552 0 0 1 4.546-4.547 4.552 4.552 0 0 1 4.546 4.547zM14.661 60.638V50.031h-3.03v21.637a43.904 43.904 0 0 1-3.031-5.21V48.913c0-1.346.903-2.545 2.199-2.915l5.791-1.654C17.177 45.73 18.445 47 20.723 47c2.277 0 3.546-1.27 4.134-2.655l5.791 1.654a3.044 3.044 0 0 1 2.198 2.915v14.755h-3.03V50.031h-3.032v10.607zm36.37 16.67v3.03h-6.062v-3.03zm-9.093-3.031v3.03H31.331a3.034 3.034 0 0 1-3.031-3.03V66.7h39.4v7.577c0 1.671-1.36 3.03-3.03 3.03H54.06v-3.03zm45.462-7.82a43.902 43.902 0 0 1-3.03 5.212V50.03h-3.032v10.607H69.215V50.031h-3.03v13.638h-3.031V48.914c0-1.346.903-2.544 2.199-2.914l5.791-1.655C71.731 45.73 73 47 75.277 47s3.546-1.27 4.134-2.655L85.202 46a3.044 3.044 0 0 1 2.198 2.914zm-7.577-36.126v3.03a4.552 4.552 0 0 1-4.546 4.547 4.552 4.552 0 0 1-4.546-4.547v-3.03a4.552 4.552 0 0 1 4.546-4.547 4.552 4.552 0 0 1 4.546 4.547zm-6.062-13.639a4.552 4.552 0 0 1 4.547-4.546 4.552 4.552 0 0 1 4.546 4.546 4.552 4.552 0 0 1-4.546 4.546 4.552 4.552 0 0 1-4.547-4.546zM48 3.054c5.908 0 11.606 1.144 16.974 3.399l-1.117 1.116 1.835 2.754a13.91 13.91 0 0 0-.808 1.952l-3.246.65v7.536l3.246.65c.222.671.49 1.323.808 1.952l-1.835 2.753 3.905 3.906c-.017.202-.062.4-.062.609v3.03c0 2.466 1.202 4.639 3.03 6.023v1.926l-6.211 1.774a6.01 6.01 0 0 0-2.88 1.857 6.01 6.01 0 0 0-2.881-1.857l-6.212-1.773v-1.926c1.83-1.385 3.03-3.558 3.03-6.022v-3.03c0-4.179-3.398-7.578-7.576-7.578-4.178 0-7.577 3.4-7.577 7.577h-3.03v-16.67H28.3V30.33c0-3.1-1.874-5.762-4.546-6.935V10.369A43.674 43.674 0 0 1 48 3.054zm46.977 17.405v-7.534l-3.246-.65a14.092 14.092 0 0 0-.808-1.952l1.835-2.754-5.328-5.328-2.753 1.835a13.912 13.912 0 0 0-1.952-.807l-.65-3.246h-7.536l-.65 3.246c-.671.221-1.323.49-1.952.807l-2.752-1.835-1.922 1.922A46.492 46.492 0 0 0 48 .023 46.69 46.69 0 0 0 23.754 6.78V4.57H14.66v21.215h.04c-.962 1.27-1.555 2.834-1.555 4.547h-3.03V.023H1.022V33.36h2.055C1.74 37.77 1.023 42.341 1.023 47c0 17.154 9.274 32.802 24.246 41.094v2.852c0 1.671 1.36 3.03 3.03 3.03h39.4a3.034 3.034 0 0 0 3.032-3.03v-2.852C85.703 79.802 94.977 64.154 94.977 47a46.54 46.54 0 0 0-4.139-19.265l1.92-1.92-1.835-2.754c.319-.629.588-1.28.808-1.952z"></path></g>
		</symbol>
	
		<symbol id="phone-icon" viewBox="0 0 23 22">
			<path fill="#fff" d="M22.081 17.159l-3.355-3.356c-.668-.665-1.774-.645-2.466.047l-1.69 1.69-.334-.186c-1.067-.591-2.528-1.402-4.065-2.94-1.542-1.542-2.353-3.005-2.947-4.073a26.537 26.537 0 0 0-.181-.326l1.134-1.133.558-.558c.692-.693.711-1.799.045-2.467L5.425.502C4.758-.165 3.65-.145 2.958.548l-.945.951.026.026a5.468 5.468 0 0 0-.78 1.374 5.698 5.698 0 0 0-.346 1.394c-.443 3.673 1.235 7.03 5.79 11.584 6.296 6.295 11.37 5.82 11.588 5.796.477-.057.934-.17 1.398-.35a5.45 5.45 0 0 0 1.37-.777l.02.019.958-.938c.69-.693.71-1.8.044-2.468z"></path>
		</symbol>
	
		<symbol id="twitter-icon" viewBox="0 0 21 17">
			<path d="M20.858 1.983a8.81 8.81 0 0 1-2.435.667A4.202 4.202 0 0 0 20.282.314a8.444 8.444 0 0 1-2.68 1.023 4.224 4.224 0 0 0-7.31 2.89c.001.335.03.657.099.963C6.878 5.02 3.77 3.335 1.681.77a4.254 4.254 0 0 0-.578 2.136c0 1.464.754 2.76 1.877 3.512a4.173 4.173 0 0 1-1.91-.52v.046a4.245 4.245 0 0 0 3.386 4.152 4.22 4.22 0 0 1-1.108.139c-.27 0-.543-.015-.8-.072.548 1.673 2.101 2.903 3.949 2.943a8.49 8.49 0 0 1-5.24 1.803 7.99 7.99 0 0 1-1.01-.058 11.896 11.896 0 0 0 6.482 1.896c7.775 0 12.026-6.441 12.026-12.024 0-.187-.006-.368-.015-.547a8.43 8.43 0 0 0 2.118-2.193z"></path>
		</symbol>
	
		<symbol id="user-icon" viewBox="0 0 18 19">
			<path d="M8.619 2.394a3.528 3.528 0 0 1 3.523 3.524 3.5 3.5 0 0 1-1.032 2.49 3.5 3.5 0 0 1-2.49 1.034 3.527 3.527 0 0 1-3.524-3.523A3.527 3.527 0 0 1 8.62 2.394zM.755 18.254c.451 0 .83-.339.878-.789a7.04 7.04 0 0 1 7.003-6.26 7.041 7.041 0 0 1 7.003 6.26.879.879 0 0 0 .875.784h.103a.883.883 0 0 0 .775-.968 8.792 8.792 0 0 0-5.506-7.215 5.288 5.288 0 0 0 1.727-5.882A5.29 5.29 0 0 0 8.619.628a5.29 5.29 0 0 0-4.995 3.556 5.29 5.29 0 0 0 1.727 5.882 8.796 8.796 0 0 0-5.48 7.206.88.88 0 0 0 .19.651.88.88 0 0 0 .693.332z"></path>
		</symbol>
	
</svg>
