<?xml version="1.0" encoding="utf-8"?>
<!-- Generator: Adobe Illustrator 24.2.3, SVG Export Plug-In . SVG Version: 6.00 Build 0)  -->
<svg version="1.1" id="Layer_1" xmlns="http://www.w3.org/2000/svg" xmlns:xlink="http://www.w3.org/1999/xlink" x="0px" y="0px"
	 viewBox="0 0 404.4 323.2" style="enable-background:new 0 0 404.4 323.2;" xml:space="preserve">
<style type="text/css">
	.st0{fill:#C7D2FF;}
	.st1{fill:#FC9F42;}
	.st2{fill:#F48725;}
	.st3{fill:#FFFFFF;}
	.st4{fill:#3303E2;}
	.st5{fill:#2105AA;}
	.st6{fill:#FC007F;}
	.st7{fill:#C6056F;}
</style>
<g id="Group_5745" transform="translate(-1381 -1350)">
	<g id="Group_5631" transform="translate(1341.199 1273.621)">
		<g id="Group_5617">
			<path id="Path_10937" class="st0" d="M149.9,115.7l66.7-5.9l-74.3-17L149.9,115.7z"/>
			<g id="Group_5616">
				<path id="Path_10938" class="st0" d="M432.1,230.2l8.7-35.1l-8.7-1.7v-86l-40.2,8.8l1.7-17.3l-24.7,5.1l-12.5-22.5l-23.1,29.9
					l-23.7,4.9l6.9-6.1l-10.9-22.7l-7.4,31.2l-19.8,4.1l1.9-38l-23,20.7l9.8,19.6L197,139.7l19.6-29.9L73.7,122.5L85.6,183
					l-39.2,8.6l64.2,141.6l-24.1,10l18,5.6l9.4-8.3l4.8,10.7l4.8-0.6l-37.7,24l16,20.9l31.6-46.1l32.7-3.8l0.4,1.3l96.1,12.6
					l-9,34.1l65.9-26.7l-10-22.1l89,21l12.1-48.9l21.5-2.5L432.1,230.2z M419.9,122.6V191l-34.6-6.8l5.3-55.2L419.9,122.6z
					 M121.9,328.6L63.8,200.3L88,195L108,297.3l30.9,7.3l13.4,30.4l-26.1,3.1l-2.7-6l8.9-7.9L121.9,328.6z M413.7,304.4l6.2-24.9
					v24.1L413.7,304.4z"/>
				<path id="Path_10939" class="st0" d="M150.6,387.7l4.1-40.7L131,393.6L150.6,387.7z"/>
			</g>
		</g>
		<g id="Group_5630">
			<g id="Group_5618">
				<path id="Path_10940" class="st1" d="M67.1,117.4L434.2,190l-42.4,170.8l-290.4-68.6L67.1,117.4z"/>
				<path id="Path_10941" class="st2" d="M67.1,117.4L210,104.6l-23.8,36.3L67.1,117.4z"/>
				<path id="Path_10942" class="st1" d="M210,104.6l-74.3-17l7.6,23L210,104.6z"/>
			</g>
			<g id="Group_5619">
				<path id="Path_10943" class="st3" d="M112.2,346.1L39.8,186.5l385.7-84.2v207.1L112.2,346.1z M57.2,195.2l62.4,137.7l293.7-34.4
					v-181L57.2,195.2z"/>
			</g>
			<g id="Group_5620">
				<path id="Path_10944" class="st1" d="M125.8,319.1l-45.9,19l18,5.6L125.8,319.1z"/>
				<path id="Path_10945" class="st1" d="M79.2,369.5l16,20.9l37.8-55.2L79.2,369.5z"/>
				<path id="Path_10946" class="st1" d="M124.4,388.5l19.6-5.9l4.1-40.7L124.4,388.5z"/>
			</g>
			<g id="Group_5628">
				<g id="Group_5627">
					<g id="Group_5624">
						<g id="Group_5621">
							<path id="Path_10947" class="st4" d="M387,93.7l-288.9,60l61.8,188.1l205.5-24.4L387,93.7z"/>
							<path id="Path_10948" class="st5" d="M159.9,341.9l153,20l-16.5-36.2L159.9,341.9z"/>
							<path id="Path_10949" class="st4" d="M312.9,361.9L247,388.5l9-34.1L312.9,361.9z"/>
						</g>
					</g>
					<g id="Group_5626">
						<path id="Path_10950" class="st6" d="M124.4,281.5l116.3-10.4l-6.1,55.5l-86.3,8.9L124.4,281.5z"/>
						<path id="Path_10951" class="st7" d="M124.4,281.5l5.8-30.1l9.4,28.7L124.4,281.5z"/>
					</g>
				</g>
			</g>
			<g id="Group_5629">
				<path id="Path_10952" class="st6" d="M297.9,143.4l51.8-67l17,30.7L297.9,143.4z"/>
				<path id="Path_10953" class="st6" d="M270.7,140.4l-20-40l23-20.7L270.7,140.4z"/>
				<path id="Path_10954" class="st6" d="M289.2,123.3l9.7-40.9l10.9,22.7L289.2,123.3z"/>
			</g>
		</g>
	</g>
	<path id="Path_12129" class="st3" d="M1495.4,1473.1c-0.1-0.4-0.1-0.8-0.1-1c0-0.2,0-0.4,0-0.6l-0.9,0.1c-0.2,0-0.4,0.1-0.5,0.3
		c-0.1,0.2-0.2,0.3-0.2,0.5l2.8,20.2l-8.4,1.2l-2.8-19.7c-0.2-1.2-0.2-2.5,0-3.7c0.2-1.2,0.6-2.3,1.3-3.3c0.7-1.1,1.6-1.9,2.7-2.6
		c1.3-0.8,2.8-1.3,4.3-1.4l9.7-1.4c1.4-0.2,2.8-0.2,4.2,0.1c1.1,0.2,2.1,0.8,2.9,1.5c0.8,0.7,1.4,1.6,1.8,2.6
		c0.4,1.1,0.7,2.2,0.9,3.3l0.3,2.3c0.2,1.4,0.2,2.8-0.2,4.1c-0.3,1.1-0.9,2.1-1.7,3c-0.8,0.8-1.7,1.5-2.8,2c-1.1,0.5-2.3,0.8-3.4,1
		c-1.2,0.2-2.4,0.2-3.6,0c-1.1-0.2-2.1-0.6-3-1.2c-0.9-0.6-1.6-1.4-2.2-2.4c-0.6-1.1-1-2.3-1.1-3.6L1495.4,1473.1z M1504.6,1473.4
		c0.3,0,0.6-0.2,0.9-0.4c0.2-0.2,0.3-0.5,0.3-0.8l-0.2-1.3c0-0.3-0.2-0.6-0.5-0.7c-0.3-0.1-0.6-0.2-0.9-0.1c-0.3,0-0.6,0.2-0.9,0.4
		c-0.2,0.2-0.4,0.5-0.3,0.8l0.2,1.3c0,0.3,0.2,0.6,0.5,0.7C1504,1473.4,1504.3,1473.4,1504.6,1473.4z M1527.5,1469.3
		c0.2,0,0.3,0,0.5,0c0.2,0.1,0.3,0.3,0.4,0.5c0.2,0.4,0.3,0.8,0.3,1.3c0.1,0.6,0.2,1.4,0.4,2.4c0.2,1.1,0.3,1.9,0.3,2.6
		c0.1,0.5,0.1,0.9,0,1.4c0,0.3-0.1,0.5-0.2,0.6c-0.1,0.1-0.3,0.1-0.5,0.2l-2.3,0.3c-1.4,0.2-2.8,0.2-4.2-0.1
		c-1.1-0.3-2.1-0.8-2.9-1.6c-0.8-0.7-1.5-1.6-1.9-2.7c-0.5-1.1-0.8-2.2-1-3.4l-2.7-19.4l8.5-1.2l2.6,18.7c0,0.4,0.3,0.7,0.7,0.7
		c0.1,0,0.1,0,0.2,0L1527.5,1469.3z M1530.3,1468.9c0.2,0,0.4-0.1,0.5-0.3c0.1-0.2,0.2-0.4,0.2-0.6l-1-6.9l8.4-1.2l1.1,7.7
		c0.2,1.3,0.2,2.7-0.1,4c-0.2,1.1-0.7,2.1-1.4,3c-0.7,0.9-1.5,1.6-2.4,2.1c-1,0.5-2.1,0.9-3.3,1.1l-3.6,0.5c-0.2,0-0.3,0-0.5,0
		c-0.1,0-0.3-0.2-0.4-0.5c-0.2-0.4-0.3-0.9-0.3-1.3c-0.1-0.6-0.2-1.4-0.4-2.4c-0.2-1.1-0.3-1.9-0.3-2.6c-0.1-0.5-0.1-0.9,0-1.4
		c0-0.2,0.1-0.4,0.2-0.6c0.1-0.1,0.3-0.2,0.5-0.2L1530.3,1468.9z M1538.1,1457.4l-8.5,1.2l-0.9-6.4l8.5-1.2L1538.1,1457.4z
		 M1557.2,1474.3c-1.4,0.2-2.8,0.2-4.2-0.1c-1.1-0.3-2.1-0.8-2.9-1.6c-0.8-0.7-1.5-1.6-1.9-2.7c-0.5-1.1-0.8-2.2-1-3.4l-1.1-7.7
		l8.4-1.2l1,6.9c0,0.2,0.1,0.4,0.3,0.5c0.2,0.1,0.4,0.2,0.6,0.1l11.8-1.7c0.2,0,0.4-0.1,0.5-0.3c0.1-0.2,0.2-0.4,0.2-0.6l-1-6.9
		l8.4-1.2l1,6.9c0,0.2,0.1,0.4,0.3,0.5c0.2,0.1,0.4,0.2,0.6,0.1l1.8-0.3c0.2,0,0.3,0,0.5,0.1c0.2,0.1,0.3,0.3,0.4,0.5
		c0.2,0.4,0.3,0.8,0.4,1.3c0.1,0.6,0.2,1.4,0.4,2.4c0.2,1.1,0.3,1.9,0.3,2.6c0.1,0.5,0.1,0.9,0,1.4c0,0.3-0.1,0.5-0.2,0.6
		c-0.1,0.1-0.3,0.1-0.5,0.2l-1.5,0.2c-1,0.1-2,0.2-3,0.1c-0.9-0.1-1.7-0.4-2.5-0.9c-0.6,0.7-1.3,1.2-2.1,1.6c-0.6,0.3-1.3,0.5-2,0.6
		L1557.2,1474.3z M1567.5,1453.3l-13.3,1.9l-0.9-6.4l13.3-1.9L1567.5,1453.3z M1581.8,1461.7c0.2,0,0.4-0.1,0.5-0.3
		c0.1-0.2,0.2-0.4,0.2-0.6l-1-6.9l8.5-1.2l1,6.9c0,0.4,0.3,0.7,0.7,0.7c0.1,0,0.1,0,0.2,0l1.8-0.2c0.2,0,0.3,0,0.5,0
		c0.2,0.1,0.3,0.3,0.4,0.5c0.2,0.4,0.3,0.8,0.3,1.3c0.1,0.6,0.2,1.4,0.4,2.4c0.2,1.1,0.3,1.9,0.3,2.6c0.1,0.5,0.1,0.9,0,1.4
		c0,0.3-0.1,0.5-0.2,0.6c-0.1,0.1-0.3,0.1-0.5,0.2l-1.4,0.2c-1,0.1-2,0.2-2.9,0.1c-0.9-0.1-1.8-0.4-2.5-0.9
		c-0.6,0.7-1.3,1.2-2.1,1.6c-0.7,0.3-1.3,0.5-2,0.6l-2.6,0.4c-0.2,0-0.3,0-0.5,0c-0.1,0-0.3-0.2-0.4-0.5c-0.2-0.4-0.3-0.9-0.3-1.3
		c-0.1-0.6-0.2-1.4-0.4-2.4c-0.2-1.1-0.3-1.9-0.3-2.6c-0.1-0.5-0.1-0.9,0-1.4c0-0.2,0.1-0.4,0.2-0.6c0.1-0.1,0.3-0.2,0.5-0.2
		L1581.8,1461.7z M1593.8,1478.3l-8.5,1.2l-0.9-6.4l8.5-1.2L1593.8,1478.3z M1596.4,1459.7c0.2,0,0.4-0.1,0.5-0.3
		c0.1-0.2,0.2-0.4,0.2-0.6l-1-6.9l8.4-1.2l1.1,7.7c0.2,1.3,0.2,2.7-0.1,4c-0.2,1.1-0.7,2.1-1.4,3c-0.7,0.9-1.5,1.6-2.4,2.1
		c-1,0.5-2.1,0.9-3.3,1.1l-3.6,0.5c-0.2,0-0.3,0-0.5,0c-0.1,0-0.3-0.2-0.4-0.5c-0.2-0.4-0.3-0.9-0.3-1.3c-0.1-0.6-0.2-1.4-0.4-2.4
		c-0.2-1.1-0.3-1.9-0.3-2.6c-0.1-0.5-0.1-0.9,0-1.4c0-0.2,0.1-0.4,0.2-0.6c0.1-0.1,0.3-0.2,0.5-0.2L1596.4,1459.7z M1601,1440.7
		l-6.7,0.9l-0.9-6.4l6.7-0.9L1601,1440.7z M1605.4,1448l-13.3,1.9l-0.9-6.4l13.3-1.9L1605.4,1448z M1639.3,1445.8l1,6.9
		c0,0.2,0.1,0.4,0.3,0.5c0.2,0.1,0.4,0.2,0.6,0.1c0.4,0,0.7-0.3,0.7-0.7c0-0.1,0-0.1,0-0.2l-1-6.9l8.2-1.2l1,6.9
		c0,0.4,0.3,0.7,0.7,0.7c0.1,0,0.1,0,0.2,0c0.2,0,0.4-0.1,0.5-0.3c0.1-0.2,0.2-0.4,0.2-0.6l-1-6.9l8.1-1.1l1,6.9
		c0,0.2,0.1,0.4,0.3,0.5c0.2,0.1,0.4,0.2,0.6,0.1l1.8-0.2c0.2,0,0.3,0,0.5,0c0.2,0.1,0.3,0.3,0.4,0.5c0.2,0.4,0.3,0.8,0.3,1.3
		c0.1,0.6,0.2,1.4,0.4,2.4c0.2,1.1,0.3,1.9,0.3,2.6c0.1,0.5,0.1,0.9,0,1.4c0,0.3-0.1,0.5-0.2,0.6c-0.1,0.1-0.3,0.1-0.5,0.2l-1.4,0.2
		c-0.9,0.1-1.9,0.2-2.8,0.1c-0.9-0.1-1.7-0.4-2.3-1c-0.6,0.7-1.4,1.3-2.3,1.6c-0.8,0.3-1.7,0.5-2.6,0.7c-0.8,0.1-1.5,0.1-2.3,0
		c-0.9-0.1-1.8-0.4-2.5-0.9c-0.6,0.7-1.3,1.2-2,1.6c-0.5,0.2-1.1,0.4-1.6,0.5c-0.6,0.1-1.2,0.1-1.9,0.1c-0.5,0-1.1-0.1-1.5-0.4
		l1-2.3c0.3,1.7,0.2,3.5-0.1,5.2c-0.3,1.6-0.9,3.1-1.9,4.5c-0.9,1.4-2.1,2.5-3.5,3.4c-1.6,0.9-3.3,1.5-5.2,1.8l-2.3,0.3
		c-1.8,0.3-3.5,0.2-5.3-0.2c-1.5-0.3-3-1-4.2-2c-1.2-1-2.3-2.3-3-3.7c-0.8-1.6-1.4-3.4-1.6-5.2l-1.4-9.7l8.4-1.2l1.4,10
		c0.1,1,0.6,1.9,1.4,2.6c1,0.6,2.3,0.7,3.4,0.5l1.5-0.2c1.3-0.1,2.5-0.6,3.4-1.5c0.6-0.8,0.9-1.8,0.7-2.8l-2-14.3L1639.3,1445.8z
		 M1646.5,1434.3l-6.7,0.9l-0.9-6.4l6.7-0.9L1646.5,1434.3z M1651,1441.5l-13.3,1.9l-0.9-6.4l13.3-1.9L1651,1441.5z M1664.1,1450.1
		c0.2,0,0.4-0.1,0.5-0.3c0.1-0.2,0.2-0.4,0.2-0.6l-1-6.9l8.5-1.2l1,6.9c0,0.4,0.3,0.7,0.7,0.7c0.1,0,0.1,0,0.2,0l1.8-0.2
		c0.2,0,0.3,0,0.5,0c0.2,0.1,0.3,0.3,0.4,0.5c0.2,0.4,0.3,0.8,0.3,1.3c0.1,0.6,0.2,1.4,0.4,2.4c0.2,1.1,0.3,1.9,0.3,2.6
		c0.1,0.5,0.1,0.9,0,1.4c0,0.3-0.1,0.5-0.2,0.6c-0.1,0.1-0.3,0.1-0.5,0.2l-1.4,0.2c-1,0.1-2,0.2-2.9,0.1c-0.9-0.1-1.8-0.4-2.5-0.9
		c-0.6,0.7-1.3,1.2-2.1,1.6c-0.7,0.3-1.3,0.5-2,0.6l-2.6,0.4c-0.2,0-0.3,0-0.5,0c-0.1,0-0.3-0.2-0.4-0.5c-0.2-0.4-0.3-0.9-0.3-1.3
		c-0.1-0.6-0.2-1.4-0.4-2.4c-0.2-1.1-0.3-1.9-0.3-2.6c-0.1-0.5-0.1-0.9,0-1.4c0-0.2,0.1-0.4,0.2-0.6c0.1-0.1,0.3-0.2,0.5-0.2
		L1664.1,1450.1z M1678.2,1466.4l-13.3,1.9l-0.9-6.4l13.3-1.9L1678.2,1466.4z M1678.8,1448.1c0.2,0,0.4-0.1,0.5-0.3
		c0.1-0.2,0.2-0.4,0.2-0.6l-1-6.9l8.4-1.2l1.1,7.7c0.2,1.3,0.2,2.7-0.1,4c-0.2,1.1-0.7,2.1-1.4,3c-0.7,0.9-1.5,1.6-2.4,2.1
		c-1,0.5-2.1,0.9-3.3,1.1l-3.6,0.5c-0.2,0-0.3,0-0.5,0c-0.1,0-0.3-0.2-0.4-0.5c-0.2-0.4-0.3-0.9-0.3-1.3c-0.1-0.6-0.2-1.4-0.4-2.4
		c-0.2-1.1-0.3-1.9-0.3-2.6c-0.1-0.5-0.1-0.9,0-1.4c0-0.2,0.1-0.4,0.2-0.6c0.1-0.1,0.3-0.2,0.5-0.2L1678.8,1448.1z M1689.5,1472.7
		l-6.7,0.9l-0.9-6.4l6.7-0.9L1689.5,1472.7z M1691.7,1464.5l-13.3,1.9l-0.9-6.4l13.3-1.9L1691.7,1464.5z"/>
	<path id="Path_12130" class="st3" d="M1512,1585c0.1,1,0.1,2.1-0.2,3.1c-0.2,0.9-0.6,1.8-1.2,2.6c-0.6,0.8-1.3,1.4-2.1,1.9
		c-0.9,0.5-1.9,0.8-2.9,0.9l-1.8,0.2c-1.9,0.3-3.8-0.2-5.2-1.5c-1.4-1.4-2.3-3.3-2.4-5.3l-0.5-5.2l2.9-0.3l0.5,5
		c0.1,0.6,0.2,1.2,0.4,1.8c0.2,0.5,0.5,0.9,0.9,1.3c0.4,0.4,0.9,0.6,1.4,0.8c0.7,0.2,1.4,0.2,2,0.1l1.3-0.1c0.7-0.1,1.4-0.3,2-0.6
		c0.5-0.3,0.9-0.7,1.3-1.1c0.3-0.5,0.5-1,0.6-1.5c0.1-0.6,0.1-1.2,0-1.8l-0.8-7.8l2.9-0.3L1512,1585z M1504.4,1577.5l-3.3,0.3
		l-0.3-2.9l3.3-0.3L1504.4,1577.5z M1519.5,1584.9c-0.5,0.1-1.1,0-1.6-0.1c-0.5-0.1-1-0.3-1.4-0.6c-0.4-0.3-0.8-0.8-1-1.3
		c-0.3-0.7-0.5-1.4-0.5-2.1l-1.4-13.4l2.9-0.3l1.3,12.7c0,0.5,0.2,1,0.6,1.4c0.3,0.3,0.8,0.5,1.3,0.4l0.7-0.1c0.4,0,0.7,0.4,0.8,1.5
		c0.1,1.1,0,1.7-0.5,1.7L1519.5,1584.9z M1520.8,1565.3l8.3-4.2l0.7,2l-8.6,4.4L1520.8,1565.3z M1527.6,1580.8c0.4,0,0.8-0.2,1-0.4
		c0.2-0.2,0.3-0.5,0.2-0.8c0-0.3-0.1-0.6-0.2-0.8c-0.2-0.3-0.5-0.6-0.8-0.8l-6-4.9l-0.3-3.3l9.2-4.6l1,2.9l-7.1,3.5l4.7,3.9
		c1,0.8,1.8,1.4,2.5,2c0.7,0.5,1.3,1,1.8,1.3c0.4,0.3,0.9,0.5,1.3,0.8c0.3,0.2,0.7,0.3,1,0.4c0.3,0.1,0.6,0.1,0.9,0.1
		c0.3,0,0.6,0,1-0.1c0.2,0,0.5,0.1,0.5,0.3c0.1,0.4,0.2,0.7,0.2,1.1c0.1,0.4,0.1,0.8,0,1.3c0,0.2-0.2,0.4-0.5,0.5
		c-0.5,0.1-1.1,0.1-1.6,0.1c-0.5,0-1-0.1-1.4-0.2c-0.5-0.2-1-0.4-1.5-0.7c-0.7-0.4-1.3-0.8-1.9-1.3c0,0.9-0.4,1.7-1.1,2.3
		c-0.7,0.5-1.6,0.8-2.5,0.9l-7.5,0.8c-0.2,0-0.5-0.1-0.5-0.3c-0.1-0.4-0.2-0.7-0.2-1.1c-0.1-0.4-0.1-0.8,0-1.3
		c0-0.2,0.2-0.4,0.5-0.5L1527.6,1580.8z M1540.5,1579.5c0.9,0,1.7-0.7,1.8-1.6c0-0.2,0-0.3,0-0.5l-0.4-3.4l2.9-0.3l0.4,3.6
		c0.2,1.3-0.1,2.7-0.8,3.7c-0.8,1-2,1.5-3.3,1.6l-2.9,0.3c-0.2,0-0.5-0.1-0.5-0.3c-0.1-0.4-0.2-0.7-0.3-1.1c-0.1-0.4-0.1-0.8,0-1.3
		c0-0.2,0.2-0.4,0.5-0.5L1540.5,1579.5z M1545.9,1588.2l-3,0.3l-0.3-2.8l3-0.3L1545.9,1588.2z M1541.7,1588.7l-3,0.3l-0.3-2.8l3-0.3
		L1541.7,1588.7z M1547.1,1563.9l2.9-0.3l1.9,17.9l-2.9,0.3L1547.1,1563.9z M1559.3,1580.2c0.1,1,0,2-0.2,3
		c-0.2,0.9-0.7,1.8-1.2,2.5c-0.6,0.7-1.3,1.4-2.1,1.8c-0.8,0.5-1.7,0.8-2.7,0.9l-1.8,0.2l-0.5-3.1l1.2-0.1c0.8-0.1,1.5-0.3,2.2-0.6
		c0.5-0.3,1-0.7,1.4-1.1c0.3-0.4,0.6-0.9,0.7-1.5c0.1-0.5,0.1-1.1,0.1-1.6l-0.8-8l2.9-0.3L1559.3,1580.2z"/>
	<path id="Path_12128" class="st3" d="M1511.5,1531.6c-1.5,0.3-3.1-0.1-4.3-1.1c-1-0.8-1.6-1.9-1.8-3.1c-0.1-0.7,0-1.5,0.1-2.2
		c0.2-0.7,0.4-1.4,0.8-2.1c0.1-0.3,0.4-0.4,0.7-0.5c0.3-0.1,0.6,0,0.8,0.1c0.3,0.2,0.4,0.4,0.5,0.7c0.1,0.3,0,0.6-0.1,0.8
		c-0.3,0.4-0.4,0.9-0.5,1.4c-0.1,0.5-0.1,1-0.1,1.5c0.1,0.7,0.4,1.3,0.9,1.7c0.8,0.6,1.8,0.8,2.7,0.6c1.1,0,2.2-0.6,2.8-1.5
		c0.3-0.8,0.4-1.6,0.3-2.5c-0.2-1.1-0.6-2.2-1.1-3.1c-0.1-0.3-0.2-0.6-0.1-0.8c0.1-0.3,0.3-0.5,0.5-0.6c0.3-0.1,0.6-0.2,0.8-0.1
		c0.3,0.1,0.5,0.3,0.6,0.5c0.6,1.2,1.1,2.5,1.3,3.8c0.3,1.3,0.1,2.6-0.5,3.8c-0.4,0.7-1,1.4-1.7,1.8
		C1513.4,1531.2,1512.5,1531.5,1511.5,1531.6z M1511.8,1521.6c0,0.3-0.1,0.7-0.3,1c-0.2,0.3-0.5,0.5-0.8,0.5c-0.4,0-0.8-0.1-1.1-0.3
		c-0.3-0.2-0.5-0.5-0.5-0.9c0-0.3,0.1-0.7,0.3-0.9c0.2-0.3,0.5-0.5,0.9-0.6c0.4,0,0.7,0.1,1,0.3
		C1511.6,1520.9,1511.8,1521.2,1511.8,1521.6L1511.8,1521.6z M1521.6,1525.3c-0.4,0-0.7,0.1-0.8,0.1c-0.3,0-0.6,0-0.9-0.1
		c-0.4-0.1-0.7-0.3-1-0.5c-0.4-0.3-0.7-0.8-0.9-1.3c-0.3-1.2-0.5-2.4-0.6-3.6l-0.2-1.4c-0.1-0.5-0.1-1-0.2-1.4
		c-0.1-0.8-0.3-1.6-0.5-2.4c-0.1-0.3,0-0.6,0.1-0.8c0.1-0.3,0.4-0.4,0.7-0.5c0.3-0.1,0.6,0,0.8,0.1c0.3,0.1,0.4,0.4,0.5,0.7
		c0.2,0.8,0.4,1.7,0.5,2.6c0.1,0.4,0.1,0.9,0.2,1.5l0.3,2.4c0,0.4,0.1,0.7,0.1,0.9c0,0.4,0.1,0.8,0.2,1.3c0,0.2,0.2,0.3,0.3,0.4
		c0.3,0.1,0.6,0.1,1,0c0.3,0,0.6,0,0.8,0.2c0.2,0.2,0.4,0.4,0.4,0.7c0,0.3,0,0.6-0.2,0.8C1522.2,1525.1,1521.9,1525.2,1521.6,1525.3
		z M1526.6,1522.6c0.7-0.1,0.9-0.5,0.9-1.3c0-0.3-0.2-0.6-0.4-0.8c-0.2-0.3-0.6-0.5-1-0.4c-0.2,0-0.3,0.2-0.4,0.4
		c-0.2,0.4-0.3,0.8-0.4,1.2l-0.1,0.2l-0.1,0.2C1525.5,1522.3,1526,1522.6,1526.6,1522.6z M1530.3,1522c0.3,0,0.6,0,0.8,0.2
		c0.2,0.2,0.4,0.4,0.4,0.7c0,0.3,0,0.6-0.2,0.8c-0.2,0.2-0.5,0.4-0.8,0.4c-0.6,0.1-1.3,0-1.8-0.4c-0.5,0.5-1.1,0.8-1.8,0.9l-0.2,0
		c-0.9,0-1.9-0.3-2.6-0.9c-0.6,0.8-1.5,1.3-2.5,1.4c-0.3,0-0.6,0-0.8-0.2c-0.2-0.2-0.4-0.4-0.4-0.7c0-0.3,0-0.6,0.2-0.8
		c0.2-0.2,0.4-0.4,0.7-0.4c0.4,0,0.8-0.3,1.1-0.6c0.3-0.5,0.5-1.1,0.7-1.6l0.1-0.5c0.1-0.2,0.1-0.3,0.2-0.5c0.1-0.3,0.2-0.6,0.4-0.9
		c0.4-0.7,1.1-1.2,1.9-1.3c1.1-0.2,2.1,0.3,2.7,1.2c0.3,0.4,0.5,0.8,0.6,1.2c0.1,0.2,0.1,0.3,0.1,0.5c0,0.1,0.1,0.2,0.1,0.4
		c0,0.3,0.2,0.6,0.4,0.9l0,0l0,0c0,0,0.1,0,0.1,0C1530,1522,1530.1,1522,1530.3,1522L1530.3,1522z M1533.9,1518.5l-0.1,0.1
		c-0.4,0.3-0.6,0.8-0.7,1.2c-0.2,0.6-0.2,1.1-0.2,1.7c0.7-0.1,1.3-0.7,1.5-1.4c0-0.4,0-0.7-0.1-1c0-0.1-0.1-0.3-0.2-0.4
		L1533.9,1518.5C1534,1518.6,1534,1518.5,1533.9,1518.5L1533.9,1518.5z M1536.4,1528.1c-0.1,0-0.3,0-0.4,0c-1.2-0.2-2.3-0.8-3.1-1.7
		c-0.4-0.4-0.7-0.8-1-1.2c-0.2-0.3-0.4-0.7-0.6-1l-0.9,0.1c-0.3,0-0.6,0-0.8-0.2c-0.2-0.2-0.4-0.4-0.4-0.7c0-0.3,0-0.6,0.2-0.8
		c0.2-0.2,0.4-0.4,0.7-0.4l0.4,0l0.2,0c-0.1-0.9,0-1.9,0.3-2.8c0.2-0.9,0.8-1.7,1.5-2.3c0.4-0.3,0.8-0.4,1.3-0.5
		c0.4,0,0.9,0.1,1.2,0.3c0.6,0.4,1.1,1,1.3,1.7c0.3,0.7,0.3,1.4,0.2,2.1c-0.1,0.6-0.3,1.1-0.6,1.6c-0.5,0.6-1.1,1.1-1.9,1.4
		c-0.1,0-0.2,0.1-0.3,0.1l-0.2,0.1l-0.1,0c0.2,0.4,0.4,0.8,0.6,1.1c0.3,0.4,0.6,0.7,0.9,1c-0.4-1.1-0.1-2.4,0.6-3.3
		c0.6-0.7,1.4-1.2,2.3-1.4c0.3-0.1,0.6,0,0.8,0.2c0.2,0.2,0.4,0.4,0.5,0.7c0.1,0.3,0,0.6-0.2,0.8c-0.2,0.3-0.6,0.5-0.9,0.5
		c-0.6,0.1-1.1,0.5-1.4,1.1c-0.2,0.7-0.1,1.4,0.2,2c0.1,0.2,0.2,0.4,0.2,0.6c0,0.2-0.1,0.4-0.2,0.6
		C1537,1527.9,1536.7,1528,1536.4,1528.1L1536.4,1528.1z M1541.8,1519.8c0.6,0.6,1.1,0.8,1.6,0.8c0.3-0.1,0.5-0.2,0.7-0.5
		c0.2-0.2,0.2-0.5,0.2-0.8c0-0.4-0.2-0.7-0.4-1c-0.2-0.3-0.6-0.5-1-0.3c-0.2,0.1-0.3,0.2-0.4,0.4c-0.2,0.4-0.3,0.8-0.5,1.1
		L1541.8,1519.8z M1543.5,1522.7c-0.5,0-1-0.1-1.5-0.3c-0.4-0.2-0.8-0.4-1.2-0.7c-0.6,0.8-1.5,1.3-2.6,1.4c-0.3,0-0.6,0-0.8-0.2
		c-0.2-0.2-0.4-0.4-0.4-0.7c0-0.3,0-0.6,0.2-0.8c0.2-0.2,0.4-0.4,0.7-0.4c0.4,0,0.9-0.3,1.1-0.6c0.3-0.5,0.6-1.1,0.7-1.7l0.2-0.5
		c0.1-0.2,0.1-0.3,0.2-0.5c0.1-0.3,0.3-0.6,0.4-0.9c0.4-0.7,1.1-1.2,1.9-1.3c1.1-0.2,2.1,0.3,2.7,1.1c0.5,0.6,0.8,1.3,0.9,2.1
		c0.2,0.9,0,1.9-0.6,2.6c-0.5,0.6-1.2,1.1-2,1.2L1543.5,1522.7z M1560.9,1520.4c-1.3,0.2-2.6-0.4-3.2-1.6c-0.3-0.4-0.5-0.9-0.6-1.4
		c-0.1-0.2-0.1-0.5-0.2-0.7l-0.1-0.4l-0.1-0.4l0-0.1l0-0.1l-0.1-0.2c0-0.2-0.1-0.3-0.1-0.4c-0.5,0.4-1,0.9-1.3,1.5
		c-0.2,0.3-0.4,0.7-0.5,1.1c0,0.1-0.1,0.2-0.1,0.3c0,0.1,0,0.1,0,0.2l0,0l0,0c0,0,0.1,0,0.1,0c0,0,0.1,0,0.1,0c0.1,0,0.1,0,0.2,0
		c0.2,0,0.5,0,0.7,0c0.3,0,0.6,0,0.8,0.2c0.2,0.2,0.4,0.4,0.4,0.7c0,0.3-0.1,0.6-0.2,0.8c-0.2,0.2-0.4,0.4-0.7,0.4
		c-0.7,0.1-1.5,0-2.2-0.2c-0.6-0.2-1.1-0.8-1.3-1.4c-0.3-1.2,0-2.4,0.7-3.4c0.6-1,1.4-1.9,2.4-2.6c0.3-0.2,0.6-0.3,0.9-0.3
		c0.2,0,0.5,0,0.7,0.1c0.3,0.1,0.6,0.4,0.8,0.7c0.1,0.1,0.2,0.2,0.2,0.4c0,0,0,0.1,0.1,0.2l0,0.1c0.1,0.3,0.2,0.7,0.4,1.4
		c0.2,0.8,0.4,1.6,0.8,2.3c0.2,0.4,0.6,0.6,1.1,0.5c0.3,0,0.6,0,0.8,0.2c0.2,0.2,0.4,0.4,0.4,0.7c0,0.3,0,0.6-0.2,0.8
		C1561.4,1520.3,1561.2,1520.4,1560.9,1520.4z M1565.4,1519.9c-0.8,0.2-1.7,0-2.3-0.5c-0.6,0.6-1.4,1-2.2,1.1c-0.3,0-0.6,0-0.8-0.2
		c-0.2-0.2-0.4-0.4-0.4-0.7c0-0.3,0-0.6,0.2-0.8c0.2-0.2,0.4-0.4,0.7-0.4c0.7-0.1,1.3-0.6,1.5-1.2c0.1-0.3,0.2-0.6,0.3-0.9
		c0-0.1,0.1-0.3,0.1-0.4c0-0.1,0-0.1,0-0.2l0-0.1l0-0.1c0-0.3,0.2-0.5,0.4-0.7c0.2-0.2,0.5-0.3,0.8-0.2c0.3,0,0.5,0.2,0.7,0.4
		c0.2,0.2,0.2,0.5,0.2,0.8c0,0.1,0,0.2,0,0.3l0,0.2l0,0.2c0,0.2-0.1,0.5,0,0.7c0,0.5,0.2,0.8,0.6,0.8c0.4,0,0.7-0.1,0.9-0.4
		c0.4-0.8,0.6-1.7,0.6-2.5c0-0.3,0.1-0.6,0.4-0.7c0.2-0.2,0.5-0.3,0.8-0.3c0.3,0,0.6,0.1,0.7,0.4c0.2,0.2,0.3,0.5,0.3,0.8l0,0.4
		c0,0.1,0,0.3,0,0.4c0,0.3,0,0.5,0.1,0.8c0.1,0.5,0.4,0.8,0.9,0.7c0.4,0,0.7-0.3,0.8-0.7c0-0.6-0.1-1.3-0.2-1.9
		c-0.1-0.3,0-0.6,0.1-0.8c0.1-0.2,0.4-0.4,0.7-0.5c0.3-0.1,0.6,0,0.8,0.1c0.2,0.1,0.4,0.4,0.5,0.6c0.2,0.7,0.5,1.5,0.8,2.1
		c0.1,0.2,0.3,0.3,0.5,0.4c0.3,0.1,0.5,0.1,0.8,0c0.3-0.1,0.6,0,0.8,0.2c0.2,0.2,0.4,0.4,0.4,0.7c0,0.3,0,0.6-0.2,0.8
		c-0.2,0.2-0.5,0.4-0.7,0.4c-1,0.2-1.9-0.1-2.7-0.7c0,0.1-0.1,0.1-0.1,0.2c-0.5,0.6-1.2,1-2,1.1c-0.8,0.1-1.6-0.1-2.2-0.7l-0.1,0
		C1567.2,1519.4,1566.3,1519.8,1565.4,1519.9z M1579.5,1516c0.3,0,0.6,0,0.8,0.2c0.2,0.2,0.4,0.4,0.4,0.7c0,0.3,0,0.6-0.2,0.8
		c-0.2,0.2-0.4,0.4-0.7,0.4c-0.8,0.1-1.6-0.1-2.3-0.5c-0.3,0.4-0.8,0.7-1.3,0.9c-0.2,0.1-0.5,0.1-0.7,0.2l-0.4,0.1l-0.4,0
		c-0.3,0-0.6,0-0.8-0.2c-0.2-0.2-0.4-0.4-0.4-0.7c0-0.3,0-0.6,0.2-0.8c0.2-0.2,0.4-0.4,0.7-0.4c0.8-0.1,1.2-0.2,1.3-0.4
		c0,0,0.1-0.1,0.1-0.2c0-0.1,0.1-0.2,0.1-0.3c0.1-0.4,0.1-0.8,0-1.2l-0.1-0.4c0-0.2,0-0.3,0-0.4c-0.2-1.4-0.4-3.4-0.7-6.1l0-0.4
		c0-0.3,0-0.6,0.2-0.8c0.2-0.2,0.4-0.4,0.7-0.4c0.3,0,0.6,0.1,0.8,0.2c0.2,0.2,0.4,0.4,0.4,0.7l0,0.4c0.3,2.7,0.5,4.7,0.7,6
		c0,0.3,0.1,0.6,0.1,0.8c0,0.3,0.1,0.6,0.2,0.9c0.1,0.2,0.2,0.5,0.4,0.6l0,0l0,0c0,0,0.1,0,0.1,0.1
		C1579.1,1516,1579.3,1516,1579.5,1516L1579.5,1516z M1579.8,1518.1c-0.3,0-0.6,0-0.8-0.2c-0.2-0.2-0.4-0.4-0.4-0.7
		c0-0.3,0-0.6,0.2-0.8c0.2-0.2,0.4-0.4,0.7-0.4c1.5-0.2,3.1-0.6,4.5-1.1c1.5-0.5,3-1.3,4.3-2.3c-0.3,0-0.7,0-1.3-0.1
		c-0.2,0-0.5,0-0.8-0.1l-0.4,0l-0.4,0c-0.7-0.1-1.4-0.1-2.2,0c-0.2,0-0.5,0.1-0.6,0.3c-0.1,0.3-0.2,0.6-0.2,1c0,0.3-0.2,0.6-0.4,0.7
		c-0.2,0.2-0.5,0.3-0.8,0.2c-0.3,0-0.6-0.2-0.7-0.4c-0.2-0.2-0.3-0.5-0.2-0.8c0.1-0.6,0.2-1.2,0.5-1.7c0.4-0.7,1.1-1.1,1.8-1.3
		c0.9-0.3,3.3-0.1,7.3,0.5c0.1,0,0.2,0,0.3,0.1c0.4,0.1,0.7,0.3,0.8,0.7c0.2,0.3,0.1,0.7-0.1,1c-1.3,1.8-3.1,3.1-5.2,4
		C1583.8,1517.3,1581.8,1517.9,1579.8,1518.1z M1587.1,1519.7c0,0.3-0.1,0.6-0.3,0.9c-0.2,0.3-0.5,0.4-0.8,0.5c-0.4,0-0.7-0.1-1-0.3
		c-0.3-0.2-0.4-0.5-0.5-0.8c0-0.3,0.1-0.6,0.3-0.9c0.2-0.3,0.5-0.5,0.8-0.5c0.3,0,0.7,0.1,0.9,0.3
		C1586.9,1519.1,1587.1,1519.3,1587.1,1519.7L1587.1,1519.7z M1613.5,1511.8c0.3,0,0.6,0,0.8,0.2c0.2,0.2,0.4,0.4,0.4,0.7
		c0,0.3,0,0.6-0.2,0.8c-0.2,0.2-0.4,0.4-0.7,0.4c-0.9,0.1-1.8-0.1-2.6-0.5c-0.5-0.3-1-0.6-1.4-1c-0.5,0.8-1.3,1.5-2.2,1.8
		c-1,0.4-2.1,0.7-3.2,0.8c-1.3,0.2-2.7,0.2-4,0.1c-1.1-0.1-2.2-0.6-2.9-1.3c-0.4-0.4-0.7-1-0.8-1.6c-0.1-0.6-0.1-1.2,0.1-1.9
		c0.1-0.3,0.2-0.5,0.5-0.7c0.2-0.2,0.5-0.2,0.8-0.1c0.3,0.1,0.5,0.2,0.7,0.5c0.2,0.2,0.2,0.5,0.1,0.8c-0.1,0.3-0.1,0.7,0,1.1
		c0,0.1,0.1,0.2,0.1,0.3c0,0,0,0.1,0.1,0.1l0,0l0,0c0.5,0.4,1,0.6,1.6,0.6c1.1,0.1,2.3,0.1,3.4-0.1c0.8-0.1,1.7-0.3,2.5-0.6
		c0.5-0.2,1-0.5,1.3-1l0,0l0,0c0,0,0-0.1,0-0.1c0-0.1,0-0.2,0-0.2c0-0.3-0.1-0.5-0.2-0.8c-0.3-0.4-0.6-0.8-0.9-1.3
		c-0.1-0.2-0.3-0.4-0.4-0.7l-0.2-0.3l-0.2-0.3l-0.5-0.8c-0.1-0.2-0.2-0.4-0.2-0.7l0,0c-0.1,0.1-0.2,0.1-0.3,0.1
		c-0.2,0-0.5,0-0.6-0.1c-0.2-0.1-0.4-0.3-0.5-0.5c-0.1-0.3-0.2-0.6-0.1-0.8c0.1-0.3,0.3-0.5,0.5-0.6c2.6-1.2,5-2.9,7-5
		c0.2-0.2,0.5-0.3,0.8-0.4c0.3,0,0.6,0.1,0.8,0.3c0.2,0.2,0.3,0.5,0.4,0.8c0,0.3-0.1,0.6-0.3,0.8c-1.7,1.9-3.8,3.4-6,4.7
		c0.2,0.1,0.3,0.2,0.4,0.4c0.1,0.2,0.3,0.5,0.6,0.9l0.2,0.3l0.2,0.3l0.3,0.5c0.3,0.4,0.5,0.7,0.7,1.1c0.5,0.7,1,1.3,1.5,1.9
		C1611.8,1511.4,1612.7,1511.9,1613.5,1511.8z M1613.8,1513.9c-0.3,0-0.6,0-0.8-0.2c-0.2-0.2-0.4-0.4-0.4-0.7c0-0.3,0-0.6,0.2-0.8
		c0.2-0.2,0.4-0.4,0.7-0.4c0.8-0.1,1.5-0.2,2.3-0.4c0.4-0.1,0.8-0.3,1-0.7c0-0.1,0.1-0.3,0-0.4c0-0.3-0.1-0.6-0.2-0.8
		c-0.2-0.7-0.6-1.3-1-2c-0.2-0.2-0.2-0.5-0.1-0.8c0.1-0.3,0.2-0.5,0.5-0.7c0.2-0.2,0.5-0.2,0.8-0.1c0.3,0.1,0.5,0.2,0.7,0.5
		c0.1,0.1,0.2,0.2,0.2,0.4c0.1,0.2,0.2,0.3,0.3,0.5c0.2,0.4,0.4,0.9,0.6,1.4c0.4,0.9,0.5,2,0.1,3c-0.4,0.8-1.1,1.5-2,1.8
		c-0.4,0.2-0.8,0.3-1.3,0.3c-0.2,0-0.4,0.1-0.8,0.1L1613.8,1513.9z M1615.2,1517.5c-0.2,0-0.4,0-0.5-0.1c-0.2-0.1-0.3-0.2-0.4-0.4
		c-0.1-0.2-0.2-0.5-0.1-0.7c0.1-0.3,0.2-0.5,0.4-0.6c0.6-0.4,1.3-0.6,1.9-0.8c0.7-0.2,1.5-0.3,2.2-0.2c0.3,0,0.5,0.1,0.7,0.3
		c0.2,0.2,0.3,0.4,0.3,0.7c0,0.3-0.1,0.5-0.3,0.7c-0.2,0.2-0.4,0.3-0.7,0.3c-0.5,0-1,0-1.5,0.1c-0.5,0.1-1,0.4-1.5,0.6
		C1615.5,1517.4,1615.3,1517.5,1615.2,1517.5L1615.2,1517.5z M1626.6,1517.9c-0.4,0.1-0.8-0.1-1-0.5c-0.2-0.2-0.2-0.5-0.2-0.8
		c0-0.3,0.2-0.5,0.4-0.7c1.1-0.7,1.9-1.7,2.4-2.9c0.6-1.7,0.7-3.5,0.4-5.3c0-0.3,0-0.6,0.2-0.8c0.2-0.2,0.4-0.4,0.7-0.4
		c0.3,0,0.6,0,0.8,0.2c0.2,0.2,0.4,0.4,0.4,0.7c0.4,2.1,0.2,4.3-0.5,6.3c-0.7,1.6-1.8,3-3.2,4
		C1627,1517.8,1626.8,1517.8,1626.6,1517.9z M1634.3,1511.5c-0.8,0.1-1.6,0.1-2.4-0.2c-0.3-0.1-0.5-0.3-0.6-0.5
		c-0.1-0.3-0.2-0.6-0.1-0.8c0.1-0.3,0.3-0.5,0.5-0.6c0.3-0.1,0.6-0.2,0.8-0.1c0.5,0.1,1,0.2,1.4,0.1c0.5-0.1,1-0.2,1.5-0.4
		c0.2-0.1,0.3-0.2,0.5-0.3c0.2-0.1,0.3-0.3,0.4-0.5c0-0.1,0-0.1-0.1-0.2c0-0.1-0.1-0.2-0.2-0.3c-0.2-0.4-0.5-0.7-0.8-1
		c-0.8-0.8-1.7-1.5-2.6-2c-0.3-0.1-0.4-0.4-0.5-0.7c-0.1-0.3-0.1-0.6,0.1-0.8c0.1-0.3,0.4-0.5,0.6-0.5c0.3-0.1,0.6-0.1,0.8,0.1
		c1.3,0.7,2.4,1.6,3.4,2.7c1.1,1.3,1.6,2.4,1.3,3.3c-0.3,1-1,1.8-1.9,2.3C1635.9,1511.2,1635.1,1511.4,1634.3,1511.5z
		 M1646.4,1515.4c-0.4,0.1-0.8-0.1-1-0.5c-0.2-0.2-0.2-0.5-0.2-0.8c0-0.3,0.2-0.5,0.4-0.7c1.1-0.7,1.9-1.7,2.4-2.9
		c0.6-1.7,0.7-3.5,0.4-5.3c0-0.3,0-0.6,0.2-0.8c0.2-0.2,0.4-0.4,0.7-0.4c0.3,0,0.6,0,0.8,0.2c0.2,0.2,0.4,0.4,0.4,0.7
		c0.4,2.1,0.2,4.3-0.5,6.3c-0.7,1.6-1.8,3-3.2,4C1646.8,1515.3,1646.6,1515.4,1646.4,1515.4z M1653.3,1504.5
		c-0.3,0.4-0.4,0.9-0.3,1.4c0,0.3,0.2,0.5,0.4,0.6c0.2,0.1,0.4,0.1,0.6,0.2c0.4,0,0.8,0,1.1,0l0.7-0.1c-0.1-0.6-0.4-1.1-0.8-1.6
		c-0.4-0.6-0.8-0.8-1.3-0.8C1653.7,1504.2,1653.5,1504.3,1653.3,1504.5z M1658.3,1506.3c0.2,0,0.5,0.1,0.7,0.2
		c0.2,0.2,0.4,0.4,0.4,0.7c0,0.3,0,0.6-0.2,0.8c-0.1,0.2-0.3,0.3-0.6,0.4l-0.5,0.1c0,0.2-0.1,0.5-0.2,0.7c-0.2,0.8-0.6,1.5-1.1,2.2
		c-0.9,1.3-2.3,2.3-3.8,2.8c-0.1,0-0.2,0-0.2,0.1c-0.2,0-0.5,0-0.7-0.2c-0.2-0.1-0.4-0.3-0.5-0.6c-0.1-0.3-0.1-0.6,0-0.8
		c0.1-0.3,0.3-0.5,0.6-0.6c0.8-0.3,1.5-0.7,2-1.3c0.6-0.6,1.1-1.3,1.4-2.1l-0.2,0c-1.3,0.3-2.6,0-3.7-0.8c-0.3-0.3-0.5-0.6-0.7-1
		c-0.1-0.3-0.2-0.6-0.3-0.9c-0.2-1.1,0.1-2.2,0.7-3c0.5-0.7,1.2-1.1,2-1.2c0.6-0.1,1.2,0,1.8,0.3c0.6,0.3,1.1,0.8,1.5,1.4
		c0.6,0.8,1,1.7,1.1,2.6L1658.3,1506.3z M1664.8,1505.3C1664.8,1505.3,1664.8,1505.3,1664.8,1505.3
		C1664.8,1505.3,1664.9,1505.4,1664.8,1505.3c0.1,0.1,0.1,0.1,0.2,0.1c0.2,0,0.4,0.1,0.6,0.1c0.2,0,0.4,0,0.6,0c0.2,0,0.4,0,0.6-0.1
		c0.3-0.1,0.6-0.2,0.9-0.3c0.2-0.1,0.4-0.2,0.6-0.3c0.2-0.1,0.4-0.3,0.6-0.4c0.4-0.3,0.7-0.7,0.7-1.2c0-0.3-0.1-0.6-0.3-0.7
		c-0.3-0.2-0.7-0.3-1.1-0.2c-0.7,0.2-1.3,0.5-1.8,0.9c-0.5,0.4-1,0.9-1.3,1.5c-0.1,0.2-0.2,0.3-0.2,0.5
		C1664.8,1505.1,1664.8,1505.2,1664.8,1505.3C1664.8,1505.3,1664.8,1505.3,1664.8,1505.3L1664.8,1505.3z M1665.8,1507.8
		c-0.2,0-0.3,0-0.4,0c-1,0.1-2.1-0.1-3-0.6c-0.3-0.2-0.6-0.4-0.8-0.6c-0.6,1.1-1.8,1.8-3,1.9c-0.3,0-0.6,0-0.8-0.2
		c-0.2-0.2-0.4-0.4-0.4-0.7c0-0.3,0-0.6,0.2-0.8c0.2-0.2,0.4-0.4,0.7-0.4c0.2,0,0.5-0.1,0.7-0.2c0.2-0.1,0.3-0.2,0.5-0.4
		c0.5-0.8,0.8-1.7,0.6-2.7c0-0.3,0.1-0.6,0.3-0.8c0.2-0.2,0.5-0.4,0.7-0.4c0.3,0,0.6,0.1,0.8,0.3c0.2,0.2,0.4,0.4,0.4,0.7
		c0,0.6,0.2,1.2,0.5,1.7c0-0.2,0.1-0.4,0.2-0.5c0.4-1,1.1-1.9,1.9-2.5c0.8-0.8,1.9-1.3,3-1.5c1-0.3,2.1,0,3,0.7
		c0.7,0.6,1.1,1.5,1.1,2.5c0,0.5-0.1,1-0.4,1.5c0.4-0.1,0.8-0.1,1.2-0.2c0.3,0,0.6,0,0.8,0.2c0.2,0.2,0.4,0.4,0.4,0.7
		c0,0.3,0,0.6-0.2,0.8c-0.2,0.2-0.4,0.4-0.7,0.4c-1.5,0.2-3.3,0.4-5.3,0.7c0,0-0.1,0-0.2,0l-0.1,0
		C1666.8,1507.6,1666.3,1507.8,1665.8,1507.8z M1669,1497.7c0,0.3-0.1,0.7-0.3,1c-0.2,0.3-0.5,0.5-0.8,0.5c-0.4,0-0.8-0.1-1.1-0.3
		c-0.3-0.2-0.5-0.5-0.5-0.9c0-0.3,0.1-0.7,0.3-0.9c0.2-0.3,0.5-0.5,0.9-0.6c0.4,0,0.7,0.1,1,0.3
		C1668.7,1497.1,1668.9,1497.4,1669,1497.7z M1673,1506.7c-0.3,0-0.6,0-0.8-0.2c-0.2-0.2-0.4-0.4-0.4-0.7c0-0.3,0-0.6,0.2-0.8
		c0.2-0.2,0.4-0.4,0.7-0.4c1.5-0.2,3.1-0.6,4.5-1.1c1.5-0.5,3-1.3,4.3-2.3c-0.3,0-0.7,0-1.3-0.1c-0.2,0-0.5,0-0.8-0.1l-0.4,0l-0.4,0
		c-0.7-0.1-1.4-0.1-2.2,0c-0.2,0-0.5,0.1-0.6,0.3c-0.1,0.3-0.2,0.6-0.2,1c0,0.3-0.2,0.6-0.4,0.7c-0.2,0.2-0.5,0.3-0.8,0.2
		c-0.3,0-0.6-0.2-0.7-0.4c-0.2-0.2-0.3-0.5-0.2-0.8c0.1-0.6,0.2-1.2,0.5-1.7c0.4-0.7,1.1-1.1,1.8-1.3c0.9-0.3,3.3-0.1,7.3,0.5
		c0.1,0,0.2,0,0.3,0.1c0.4,0,0.7,0.3,0.8,0.7c0.2,0.3,0.1,0.7-0.1,1c-1.3,1.8-3.1,3.1-5.2,4C1677,1505.9,1675,1506.4,1673,1506.7z"
		/>
</g>
</svg>
