<svg
      xmlns="http://www.w3.org/2000/svg"
      xmlns:xlink="http://www.w3.org/1999/xlink"
      width="0"
      height="0"
      style="position: absolute"
    >
      <symbol id="line-icon" viewBox="0 0 64 10">
        <path
          fill="none"
          stroke="#fff"
          stroke-miterlimit="50"
          stroke-width="2.31"
          d="M1.324 8.333L12.01 1.757l9.453 6.576L31.74 2.168l9.453 6.165L52.7 2.168l9.864 6.165"
        ></path>
      </symbol>

      <symbol id="phone-icon" viewBox="0 0 23 22">
        <path
          d="M22.081 17.159l-3.355-3.356c-.668-.665-1.774-.645-2.466.047l-1.69 1.69-.334-.186c-1.067-.591-2.528-1.402-4.065-2.94-1.542-1.542-2.353-3.005-2.947-4.073a26.537 26.537 0 0 0-.181-.326l1.134-1.133.558-.558c.692-.693.711-1.799.045-2.467L5.425.502C4.758-.165 3.65-.145 2.958.548l-.945.951.026.026a5.468 5.468 0 0 0-.78 1.374 5.698 5.698 0 0 0-.346 1.394c-.443 3.673 1.235 7.03 5.79 11.584 6.296 6.295 11.37 5.82 11.588 5.796.477-.057.934-.17 1.398-.35a5.45 5.45 0 0 0 1.37-.777l.02.019.958-.938c.69-.693.71-1.8.044-2.468z"
        ></path>
      </symbol>

      <symbol id="user-icon" viewBox="0 0 18 19">
        <path
          d="M8.619 2.394a3.528 3.528 0 0 1 3.523 3.524 3.5 3.5 0 0 1-1.032 2.49 3.5 3.5 0 0 1-2.49 1.034 3.527 3.527 0 0 1-3.524-3.523A3.527 3.527 0 0 1 8.62 2.394zM.755 18.254c.451 0 .83-.339.878-.789a7.04 7.04 0 0 1 7.003-6.26 7.041 7.041 0 0 1 7.003 6.26.879.879 0 0 0 .875.784h.103a.883.883 0 0 0 .775-.968 8.792 8.792 0 0 0-5.506-7.215 5.288 5.288 0 0 0 1.727-5.882A5.29 5.29 0 0 0 8.619.628a5.29 5.29 0 0 0-4.995 3.556 5.29 5.29 0 0 0 1.727 5.882 8.796 8.796 0 0 0-5.48 7.206.88.88 0 0 0 .19.651.88.88 0 0 0 .693.332z"
        ></path>
      </symbol>

      <symbol id="arrow" viewBox="0 0 11 18">
        <path
          d="M10.585 9.87l-7.723 7.723a1.257 1.257 0 1 1-1.78-1.778L7.918 8.98 1.083 2.147A1.258 1.258 0 0 1 2.863.368l7.722 7.724a1.253 1.253 0 0 1 0 1.778z"
        ></path>
      </symbol>

      <symbol id="arrowleft" viewBox="0 0 11 18">
        <path
          d="M1.075 9.87l7.723 7.724a1.257 1.257 0 1 0 1.779-1.78L3.743 8.982l6.834-6.834A1.258 1.258 0 0 0 8.797.37L1.075 8.092a1.253 1.253 0 0 0 0 1.778z"
        ></path>
      </symbol>
    </svg>