<?xml version="1.0" encoding="utf-8"?>
<!-- Generator: Adobe Illustrator 24.2.3, SVG Export Plug-In . SVG Version: 6.00 Build 0)  -->
<svg version="1.1" id="Layer_1" xmlns="http://www.w3.org/2000/svg" xmlns:xlink="http://www.w3.org/1999/xlink" x="0px" y="0px"
	 viewBox="0 0 97 94" style="enable-background:new 0 0 97 94;" xml:space="preserve">
<style type="text/css">
	.st0{fill:#FFFFFF;}
	.st1{fill:#F5F7FA;}
	.st2{fill:#FFCD19;}
	.st3{fill:#4DBBEB;}
	.st4{fill:#FEB756;}
	.st5{fill:#120B69;}
</style>
<path class="st0" d="M93.5,47c0,25.1-20.4,45.5-45.5,45.5C22.9,92.5,2.5,72.1,2.5,47C2.5,21.9,22.9,1.5,48,1.5
	C73.1,1.5,93.5,21.9,93.5,47L93.5,47z"/>
<path class="st1" d="M61.6,65.2h6.1c0.8,0,1.5,0.7,1.5,1.5v7.6c0,2.5-2,4.5-4.5,4.5c0,0,0,0,0,0H52.5v-3h-9.1v3H31.3
	c-2.5,0-4.5-2-4.5-4.5c0,0,0,0,0,0v-7.6c0-0.8,0.7-1.5,1.5-1.5H61.6z"/>
<path class="st1" d="M31.3,78.8h12.1v3h9.1v-3h12.1c2.5,0,4.5-2,4.5-4.5c0,0,0,0,0,0v16.7c0,0.8-0.7,1.5-1.5,1.5H28.3
	c-0.8,0-1.5-0.7-1.5-1.5V74.3C26.8,76.8,28.8,78.8,31.3,78.8C31.3,78.8,31.3,78.8,31.3,78.8L31.3,78.8z"/>
<path class="st2" d="M52.5,78.8v3h-9.1v-6.1h9.1V78.8z"/>
<path class="st3" d="M60.1,59.6v4.5H41.9v-4.5c0-0.8,0.7-1.5,1.5-1.5h15.2C59.4,58.1,60.1,58.8,60.1,59.6z"/>
<path class="st3" d="M64.6,48.9v16.3h-4.5v-4.5c0-0.8-0.7-1.5-1.5-1.5H43.4c-0.8,0-1.5,0.7-1.5,1.5v4.5h-4.5V48.9
	c0-2,1.4-3.8,3.3-4.4l7.3-2.1c0,0,0,3,3,3c3,0,3-3,3-3l7.3,2.1C63.3,45.1,64.6,46.9,64.6,48.9L64.6,48.9z"/>
<path class="st0" d="M89,66.7C87.4,70,85.4,73.1,83,76l-0.2-0.2V62.2H67.7v3h-6.1V48.9c0-2,1.4-3.8,3.3-4.4l7.3-2.1c0,0,0,3,3,3
	c3,0,3-3,3-3l7.3,2.1c2,0.6,3.3,2.3,3.3,4.4L89,66.7L89,66.7z M28.3,62.2H13.1v13.6L12.9,76C10.6,73.1,8.6,70,7,66.7l0.1,0V48.9
	c0-2,1.4-3.8,3.3-4.4l7.3-2.1c0,0,0,3,3,3c3,0,3-3,3-3l7.3,2.1c2,0.6,3.3,2.3,3.3,4.4v16.3h-6.1V62.2z"/>
<path class="st0" d="M82.9,75.8l0.2,0.2c-2.3,2.8-4.9,5.3-7.8,7.4V62.2h7.6V75.8z M67.7,62.2h7.6v21.2c-1.9,1.4-3.9,2.7-6.1,3.8
	V66.7c0-0.8-0.7-1.5-1.5-1.5L67.7,62.2z M20.7,62.2v21.2c-2.9-2.2-5.5-4.6-7.8-7.4l0.2-0.2V62.2H20.7z M28.3,62.2v3
	c-0.8,0-1.5,0.7-1.5,1.5v20.5c-2.1-1.1-4.1-2.4-6.1-3.8V62.2L28.3,62.2z"/>
<path class="st4" d="M87.7,27.5c-1,0.6-2.2,1.1-3.3,1.4L84.2,29c-0.3-1.1-0.8-2.1-1.6-2.9c-1.1-1.1-2.7-1.8-4.3-1.8
	c-2.9,0-5.4,2-5.9,4.9l-3.5-3.5l1.7-2.5c-0.6-1-1.1-2.2-1.4-3.3l-2.9-0.6v-5.1l2.9-0.6c0.3-1.2,0.8-2.3,1.4-3.3l-1.7-2.5L70.6,6
	l1.8-1.8l2.5,1.7c1-0.6,2.2-1.1,3.3-1.4l0.6-2.9h5.1l0.6,2.9c1.2,0.3,2.3,0.8,3.3,1.4l2.5-1.7l3.6,3.6l-1.7,2.5
	c0.6,1,1.1,2.2,1.4,3.3l2.9,0.6v5.1l-2.9,0.6c-0.3,1.2-0.8,2.3-1.4,3.3l1.7,2.5L92,27.4l-1.8,1.8L87.7,27.5z M81.3,22.8
	c3.3,0,6.1-2.7,6.1-6.1c0,0,0,0,0,0c0-3.3-2.7-6.1-6.1-6.1c0,0,0,0,0,0c-3.3,0-6.1,2.7-6.1,6.1c0,0,0,0,0,0
	C75.2,20,78,22.8,81.3,22.8C81.3,22.8,81.3,22.8,81.3,22.8z"/>
<path class="st2" d="M84.4,16.7c0,3.3-1.8,6.1-4,6.1s-4-2.7-4-6.1c0-3.3,1.8-6.1,4-6.1C82.6,10.6,84.4,13.3,84.4,16.7L84.4,16.7z"/>
<path class="st1" d="M78.3,38.6v3.8c0,0,0,3-3,3s-3-3-3-3v-3.8c0.9,0.5,2,0.8,3,0.8C76.3,39.4,77.4,39.1,78.3,38.6z"/>
<path class="st1" d="M78.3,38.6c-0.9,0.5-2,0.8-3,0.8c-1.1,0-2.1-0.3-3-0.8c-1.9-1.1-3-3.1-3-5.2v-3c0-0.4,0-0.8,0.1-1.2
	c0.6-2.8,3-4.9,5.9-4.9c1.7,0,3.2,0.7,4.3,1.8c0.8,0.8,1.4,1.8,1.6,2.9c0.1,0.4,0.2,0.9,0.2,1.3v3C81.3,35.5,80.2,37.5,78.3,38.6
	L78.3,38.6z M51,38.6v3.8c0,0,0,3-3,3s-3-3-3-3v-3.8c0.9,0.5,2,0.8,3,0.8C49.1,39.4,50.1,39.1,51,38.6z"/>
<path class="st1" d="M51,38.6c-0.9,0.5-2,0.8-3,0.8c-1.1,0-2.1-0.3-3-0.8c-1.9-1.1-3-3.1-3-5.2v-3c0-3.3,2.7-6.1,6.1-6.1
	c0,0,0,0,0,0c1.7,0,3.2,0.7,4.3,1.8c1.1,1.1,1.8,2.7,1.8,4.3v3C54.1,35.5,52.9,37.5,51,38.6L51,38.6z M23.8,38.6v3.8c0,0,0,3-3,3
	c-3,0-3-3-3-3v-3.8c0.9,0.5,2,0.8,3,0.8C21.8,39.4,22.8,39.1,23.8,38.6L23.8,38.6z"/>
<path class="st1" d="M23.8,38.6c-0.9,0.5-2,0.8-3,0.8c-1.1,0-2.1-0.3-3-0.8c-1.9-1.1-3-3.1-3-5.2v-3c0-1.7,0.7-3.2,1.8-4.3
	c1.1-1.1,2.7-1.8,4.3-1.8c0.5,0,1,0.1,1.5,0.2c1.1,0.3,2,0.8,2.8,1.6c1.1,1.1,1.8,2.7,1.8,4.3v3C26.8,35.5,25.6,37.5,23.8,38.6z"/>
<g>
	<path class="st4" d="M31.8,17.2h6.1v16.7h-6.1L31.8,17.2z"/>
</g>
<g>
	<path class="st0" d="M22.2,9.5v14.7l0,0.2c-0.5-0.1-1-0.2-1.5-0.2c-1.6,0-3.1,0.6-4.3,1.8l-0.3-0.3V6.1h6.1L22.2,9.5z"/>
</g>
<g>
	<path class="st3" d="M6.6,1.5v30.3H0.5V1.5H6.6z"/>
</g>
<g>
	<path class="st5" d="M89.3,18.5l-0.2,0.9c-0.3,1-0.7,2-1.2,2.9l-0.5,0.8l1.5,2.2L87,27.2l-2.2-1.5L84,26.2
		c-0.6,0.4-1.2,0.6-1.9,0.9c-0.6-1.2-1.4-2.2-2.5-3c3.6-0.6,6.3-3.7,6.3-7.4c0-4.2-3.4-7.6-7.6-7.6c-4.2,0-7.6,3.4-7.6,7.6
		c0,2.6,1.3,4.8,3.2,6.2c-2.2,0.4-4.1,1.7-5.2,3.6l-1-1l1.5-2.2l-0.5-0.8c-0.5-0.9-1-1.9-1.2-2.9l-0.2-0.9L64.7,18v-2.6l2.6-0.5
		l0.2-0.9c0.3-1,0.7-2,1.2-2.9l0.5-0.8L67.8,8l1.8-1.8l2.2,1.5l0.8-0.5c0.9-0.5,1.9-0.9,2.9-1.2l0.9-0.2L77,3.1h2.6l0.5,2.6L81,5.9
		c1,0.3,2,0.7,2.9,1.2l0.8,0.5L87,6.1L88.9,8l-1.5,2.2l0.5,0.8c0.5,0.9,0.9,1.9,1.2,2.9l0.2,0.9l2.6,0.5V18L89.3,18.5z M91.9,47
		c0,3.9-0.5,7.8-1.5,11.4v-9.5c0-2.7-1.8-5.1-4.4-5.8l-6.2-1.8v-1.9c1.8-1.4,3-3.6,3-6v-3c0-0.1,0-0.2,0-0.3
		c0.6-0.2,1.3-0.5,1.9-0.8l2.8,1.8l1.1-1.1C90.8,35.4,91.9,41.1,91.9,47z M76.8,80.2V63.7h4.5v11.9C79.9,77.2,78.4,78.8,76.8,80.2
		L76.8,80.2z M70.7,66.7c0-1.1-0.6-2.1-1.5-2.6v-0.4h4.5v18.9c-1,0.7-2,1.4-3,2V66.7z M28.3,90.9V79.5c0.9,0.5,1.9,0.8,3,0.8h10.6v3
		h12.1v-3h10.6c1.1,0,2.1-0.3,3-0.8v11.5H28.3z M22.2,63.7h4.5v0.4c-0.9,0.5-1.5,1.5-1.5,2.6v17.9c-1-0.6-2-1.3-3-2L22.2,63.7z
		 M14.7,75.6V63.7h4.5v16.5C17.6,78.8,16.1,77.2,14.7,75.6L14.7,75.6z M6.2,33.4h6.9c0,2.5,1.2,4.6,3,6v1.9L10,43.1
		c-2.6,0.8-4.4,3.1-4.4,5.8v9.5c-1-3.7-1.5-7.6-1.5-11.4C4.1,42.3,4.8,37.8,6.2,33.4L6.2,33.4z M4.1,3.1h3v27.3h-3V3.1z M20.7,7.6
		v15.2c-1,0-2.1,0.2-3,0.6V7.6H20.7z M76.8,42.4c0,0.7-0.3,1.5-1.5,1.5s-1.5-0.8-1.5-1.5v-1.7c1,0.2,2,0.2,3,0L76.8,42.4z
		 M20.7,40.9c0.5,0,1-0.1,1.5-0.2v1.7c0,0.7-0.3,1.5-1.5,1.5s-1.5-0.8-1.5-1.5v-1.7C19.7,40.9,20.2,40.9,20.7,40.9z M48,37.9
		c-2.5,0-4.5-2-4.5-4.5v-3c0-2.5,2-4.5,4.5-4.5c2.5,0,4.5,2,4.5,4.5v3C52.5,35.9,50.5,37.9,48,37.9z M49.5,42.4
		c0,0.7-0.3,1.5-1.5,1.5s-1.5-0.8-1.5-1.5v-1.7c1,0.2,2,0.2,3,0V42.4z M40.4,60.6h15.2v3H40.4V60.6z M60.1,63.7h-1.5v-3
		c0-1.1-0.6-2.1-1.5-2.6v-8h-3v7.6H41.9V50h-3v8c-0.9,0.5-1.5,1.5-1.5,2.6v3h-1.5V48.9c0-1.3,0.9-2.5,2.2-2.9l5.8-1.7
		c0.6,1.4,1.9,2.7,4.1,2.7c2.3,0,3.5-1.3,4.1-2.7l5.8,1.7c1.3,0.4,2.2,1.6,2.2,2.9V63.7z M40.4,33.4c0,2.5,1.2,4.6,3,6v1.9l-6.2,1.8
		c-1.1,0.3-2.1,1-2.9,1.9c-0.8-0.9-1.8-1.5-2.9-1.9l-6.2-1.8v-1.9c1.8-1.4,3-3.6,3-6H40.4z M34.4,30.3h-3V16.7h3V30.3z M25.3,30.3v3
		c0,2.5-2,4.5-4.5,4.5c-2.5,0-4.5-2-4.5-4.5v-3c0-2.5,2-4.5,4.5-4.5C23.2,25.8,25.3,27.8,25.3,30.3z M14.7,60.6V50h-3v21.6
		c-1.1-1.7-2.1-3.4-3-5.2V48.9c0-1.3,0.9-2.5,2.2-2.9l5.8-1.7c0.6,1.4,1.9,2.7,4.1,2.7c2.3,0,3.5-1.3,4.1-2.7l5.8,1.7
		c1.3,0.4,2.2,1.6,2.2,2.9v14.8h-3V50h-3v10.6H14.7z M51,77.3v3H45v-3H51z M41.9,74.3v3H31.3c-1.7,0-3-1.4-3-3v-7.6h39.4v7.6
		c0,1.7-1.4,3-3,3H54.1v-3H41.9z M87.4,66.5c-0.9,1.8-1.9,3.5-3,5.2V50h-3v10.6H69.2V50h-3v13.6h-3V48.9c0-1.3,0.9-2.5,2.2-2.9
		l5.8-1.7c0.6,1.4,1.9,2.7,4.1,2.7s3.5-1.3,4.1-2.7l5.8,1.7c1.3,0.4,2.2,1.6,2.2,2.9L87.4,66.5z M79.8,30.3v3c0,2.5-2,4.5-4.5,4.5
		c-2.5,0-4.5-2-4.5-4.5v-3c0-2.5,2-4.5,4.5-4.5C77.8,25.8,79.8,27.8,79.8,30.3z M73.8,16.7c0-2.5,2-4.5,4.5-4.5c2.5,0,4.5,2,4.5,4.5
		c0,2.5-2,4.5-4.5,4.5C75.8,21.2,73.8,19.2,73.8,16.7z M48,3.1c5.9,0,11.6,1.1,17,3.4l-1.1,1.1l1.8,2.8c-0.3,0.6-0.6,1.3-0.8,2
		l-3.2,0.6v7.5l3.2,0.6c0.2,0.7,0.5,1.3,0.8,2l-1.8,2.8l3.9,3.9c0,0.2-0.1,0.4-0.1,0.6v3c0,2.5,1.2,4.6,3,6v1.9l-6.2,1.8
		c-1.1,0.3-2.1,1-2.9,1.9c-0.8-0.9-1.8-1.5-2.9-1.9l-6.2-1.8v-1.9c1.8-1.4,3-3.6,3-6v-3c0-4.2-3.4-7.6-7.6-7.6s-7.6,3.4-7.6,7.6h-3
		V13.7h-9.1v16.7c0-3.1-1.9-5.8-4.5-6.9v-13C30.9,5.6,39.4,3,48,3.1z M95,20.5v-7.5l-3.2-0.6c-0.2-0.7-0.5-1.3-0.8-2l1.8-2.8
		l-5.3-5.3l-2.8,1.8c-0.6-0.3-1.3-0.6-2-0.8L82.1,0h-7.5l-0.7,3.2c-0.7,0.2-1.3,0.5-2,0.8l-2.8-1.8l-1.9,1.9C61.2,1.4,54.6,0,48,0
		c-8.5,0-16.9,2.3-24.2,6.8V4.6h-9.1v21.2h0c-1,1.3-1.6,2.8-1.6,4.5h-3V0H1v33.3h2.1C1.7,37.8,1,42.3,1,47
		c0,17.2,9.3,32.8,24.2,41.1v2.9c0,1.7,1.4,3,3,3h39.4c1.7,0,3-1.4,3-3v-2.9C85.7,79.8,95,64.2,95,47c0-6.6-1.4-13.2-4.1-19.3
		l1.9-1.9l-1.8-2.8c0.3-0.6,0.6-1.3,0.8-2L95,20.5z"/>
</g>
</svg>
