<?xml version="1.0" encoding="utf-8"?>
<!-- Generator: Adobe Illustrator 24.2.3, SVG Export Plug-In . SVG Version: 6.00 Build 0)  -->
<svg version="1.1" id="Layer_1" xmlns="http://www.w3.org/2000/svg" xmlns:xlink="http://www.w3.org/1999/xlink" x="0px" y="0px"
	 viewBox="0 0 99.8 99.8" style="enable-background:new 0 0 99.8 99.8;" xml:space="preserve">
<style type="text/css">
	.st0{fill:#FFFFFF;}
	.st1{fill:#FEB756;}
	.st2{fill:#FFCD19;}
	.st3{fill:#649454;}
	.st4{fill:#D87D00;}
	.st5{fill:#2695C6;}
	.st6{fill:#4DBBEB;}
	.st7{fill:#120B69;}
</style>
<g id="diploma" transform="translate(-0.001 -0.228)">
	<path id="Path_10966" class="st0" d="M34.9,11.9h43.2c3.7,0,6.6,3,6.6,6.7V90c0,3.7-3,6.7-6.6,6.7H34.9c-3.7,0-6.7-3-6.7-6.6
		c0,0,0,0,0,0V18.5C28.3,14.8,31.2,11.9,34.9,11.9L34.9,11.9z"/>
	<path id="Path_10969" class="st1" d="M83.3,5.2l4.4-1.5c0.7-0.2,1.4,0.1,1.7,0.8l2.1,4.3c0.1,0.3,0.4,0.5,0.6,0.7l4.1,2.2
		c0.6,0.4,0.9,1.1,0.7,1.8l-1.4,4.6c-0.1,0.3-0.1,0.6,0,0.9l1.4,4.6c0.2,0.7-0.1,1.5-0.7,1.8l-4.1,2.2c-0.3,0.1-0.5,0.4-0.6,0.7
		l-2.1,4.3c-0.3,0.7-1,1-1.7,0.8l-4.4-1.5c-0.3-0.1-0.6-0.1-0.9,0l-4.4,1.5c-0.7,0.2-1.4-0.1-1.7-0.8l-2.1-4.3
		c-0.1-0.3-0.4-0.5-0.6-0.7l-4.1-2.2c-0.6-0.4-0.9-1.1-0.7-1.8l1.4-4.6c0.1-0.3,0.1-0.6,0-0.9l-1.4-4.6c-0.2-0.7,0.1-1.5,0.7-1.8
		l4.1-2.2c0.3-0.1,0.5-0.4,0.6-0.7l2.1-4.3c0.3-0.7,1-1,1.7-0.8l4.4,1.5C82.7,5.3,83,5.3,83.3,5.2z"/>
	<path id="Path_10970" class="st2" d="M89.9,18.5c0,3.7-3,6.6-6.6,6.6s-6.6-3-6.6-6.7c0-3.7,3-6.6,6.6-6.6l0,0
		C86.9,11.9,89.9,14.8,89.9,18.5C89.9,18.5,89.9,18.5,89.9,18.5z"/>
	<g id="Group_5635" transform="translate(39.899 40.134)">
		<path id="Path_10971" class="st3" d="M29.9,3.3H1.7C0.7,3.3,0,2.6,0,1.7S0.7,0,1.6,0c0,0,0.1,0,0.1,0h28.3c0.9,0,1.6,0.8,1.6,1.7
			C31.5,2.6,30.8,3.3,29.9,3.3z"/>
		<path id="Path_10972" class="st3" d="M29.9,11.6H6.7C5.7,11.6,5,10.9,5,10s0.7-1.7,1.7-1.7h23.3c0.9,0,1.7,0.7,1.7,1.7
			S30.8,11.6,29.9,11.6L29.9,11.6z"/>
		<path id="Path_10973" class="st3" d="M29.9,20H18.3c-0.9,0-1.7-0.7-1.7-1.6s0.7-1.7,1.6-1.7c0,0,0.1,0,0.1,0h11.6
			c0.9,0,1.6,0.8,1.6,1.7C31.5,19.2,30.8,19.9,29.9,20z"/>
	</g>
	<path id="Path_10975" class="st4" d="M36,96.4l-1.1-4.1c-0.1-0.4-0.6-0.7-1-0.6l-4.1,1.1c-0.4,0.1-0.9-0.2-1-0.6
		c0-0.2,0-0.4,0.1-0.6L38.2,75l8.6,5l-9.4,16.6c-0.2,0.4-0.7,0.5-1.1,0.3C36.2,96.8,36,96.6,36,96.4L36,96.4z"/>
	<path id="Path_10976" class="st5" d="M20,39.1l30.1,26l34.7,11.4l-7.5,13L12.6,52.1L20,39.1z"/>
	<path id="Path_10977" class="st6" d="M63.3,92.8L37,75.8L9.1,61.5c-3.7-2.2-5-6.9-2.9-10.7c0,0,0,0,0,0L7,49.4
		c2.2-3.7,6.9-5,10.7-2.9l0,0l26.3,17l27.9,14.3c3.7,2.2,5,6.9,2.9,10.7l0,0L74,89.9C71.8,93.6,67.1,94.9,63.3,92.8L63.3,92.8z"/>
	<path id="Path_10978" class="st1" d="M44,60.4l5.8,3.3c0.8,0.5,1.1,1.5,0.6,2.3L39.5,84.7c-0.5,0.8-1.5,1.1-2.3,0.6L31.5,82
		c-0.8-0.5-1.1-1.5-0.6-2.3L41.7,61C42.2,60.2,43.2,59.9,44,60.4L44,60.4z"/>
	<path id="Path_10979" class="st7" d="M83.6,77.6L51,66.9c0.3-3.6-2.4-6.8-6-7.1c-0.9-0.1-1.9,0.1-2.8,0.4L19.4,40.5
		c-0.7-0.6-1.7-0.5-2.3,0.2c0,0,0,0,0,0c-0.1,0.1-0.1,0.2-0.2,0.3l-2.6,4.4c-4.6-1.7-9.7,0.1-12.1,4.4l-0.8,1.4
		C-1.4,55.9,0.2,62,5,64.8l0.1,0l25.4,13c-0.5,2,0,4,1.2,5.6l-5.2,9.1c-0.5,0.8-0.2,1.8,0.6,2.3c0.4,0.2,0.8,0.3,1.3,0.2l5.2-1.4
		l1.4,5.2c0.2,0.6,0.7,1.1,1.4,1.2c0.1,0,0.1,0,0.2,0c0.6,0,1.1-0.3,1.4-0.8l7.2-12.4L62.6,98c4.8,2.8,10.9,1.1,13.6-3.6
		c0,0,0,0,0,0l0,0l0.8-1.4l7.5-13c0.5-0.8,0.2-1.8-0.6-2.3C83.8,77.6,83.7,77.6,83.6,77.6L83.6,77.6z M46,63.5
		c1.6,0.9,2.1,3,1.2,4.5l-7.5,13c-0.9,1.6-3,2.1-4.6,1.2c-1.6-0.9-2.1-2.9-1.2-4.5l7.5-13C42.4,63.1,44.4,62.6,46,63.5
		C46,63.5,46,63.5,46,63.5L46,63.5L46,63.5z M18.7,44.3l16.6,14.4L17.2,47L18.7,44.3z M3.6,57.9c-0.5-1.7-0.2-3.5,0.7-5L5,51.4
		c1.8-3.2,5.8-4.3,9-2.5l23.8,15.4l-6.1,10.5L6.6,61.9C5.1,61,4,59.6,3.6,57.9L3.6,57.9z M37.1,94l-0.8-2.9c-0.2-0.9-1.1-1.4-2-1.2
		l0,0l-2.9,0.8l3-5.2c2.4,1,5.1,0.5,7-1.2l1,0.6L37.1,94z M64.3,95.2l-21-13.6l6.2-10.8l22.2,11.4c3.2,1.8,4.3,5.9,2.4,9.1l-0.8,1.4
		C71.5,95.9,67.5,97,64.3,95.2L64.3,95.2z M77.8,84.9c-0.8-2.4-2.4-4.4-4.5-5.6l-8.6-4.4l15.9,5.2L77.8,84.9z"/>
	<path id="Path_10980" class="st7" d="M97.6,18.5l2.1-6.4c0.3-0.8-0.1-1.6-0.8-2l-6-3l-3-6c-0.4-0.7-1.2-1.1-2-0.8l-6.4,2.1
		l-6.4-2.1c-0.8-0.3-1.6,0.1-2,0.8l-3,6l-6,3c0,0,0,0-0.1,0.1H34.9c-4.6,0-8.3,3.7-8.3,8.3v22.9c0,0.9,0.8,1.6,1.7,1.6
		c0.9,0,1.6-0.7,1.6-1.6V18.5c0-2.8,2.2-5,5-5h28.8l1.6,5l-2.1,6.4c-0.3,0.8,0.1,1.6,0.8,2l6,3l3,6c0.4,0.7,1.2,1.1,2,0.8l6.4-2.1
		l1.7,0.5v36.5c0,0.9,0.8,1.6,1.7,1.6c0.9,0,1.6-0.7,1.6-1.6V36.3l1.4,0.4c0.8,0.3,1.6-0.1,2-0.8l3-6l6-3c0.7-0.4,1.1-1.2,0.8-2
		L97.6,18.5z M94.3,19l1.8,5.5l-5.2,2.6c-0.3,0.2-0.6,0.4-0.7,0.7l-2.7,5.2L82,31.3c-0.3-0.1-0.7-0.1-1,0l-5.5,1.8l-2.6-5.2
		c-0.2-0.3-0.4-0.6-0.7-0.7l-5.2-2.6l1.8-5.5c0.1-0.3,0.1-0.7,0-1l-1.8-5.5L72,9.8c0.3-0.2,0.6-0.4,0.7-0.7l2.6-5.2L81,5.7
		c0.3,0.1,0.7,0.1,1,0l5.5-1.8l2.6,5.2c0.2,0.3,0.4,0.6,0.7,0.7l5.2,2.6L94.3,18C94.2,18.3,94.2,18.7,94.3,19L94.3,19z"/>
	<path id="Path_10981" class="st7" d="M81.5,10.2c-4.6,0-8.3,3.7-8.3,8.3s3.7,8.3,8.3,8.3c4.6,0,8.3-3.7,8.3-8.3c0,0,0,0,0,0
		C89.8,13.9,86.1,10.2,81.5,10.2C81.5,10.2,81.5,10.2,81.5,10.2z M81.5,23.5c-2.8,0-5-2.2-5-5c0-2.8,2.2-5,5-5c2.8,0,5,2.2,5,5
		C86.5,21.3,84.2,23.5,81.5,23.5C81.5,23.5,81.5,23.5,81.5,23.5z"/>
	<path id="Path_10982" class="st7" d="M41.6,43.5h28.3c0.9,0,1.6-0.8,1.6-1.7c0-0.9-0.7-1.6-1.6-1.6H41.6c-0.9,0-1.7,0.7-1.7,1.6
		S40.6,43.4,41.6,43.5C41.5,43.5,41.5,43.5,41.6,43.5z"/>
	<path id="Path_10983" class="st7" d="M69.8,48.4H46.6c-0.9,0-1.7,0.7-1.7,1.6s0.7,1.7,1.6,1.7c0,0,0.1,0,0.1,0h23.3
		c0.9,0,1.6-0.8,1.6-1.7C71.4,49.2,70.7,48.5,69.8,48.4L69.8,48.4z"/>
	<path id="Path_10984" class="st7" d="M69.8,56.8H58.2c-0.9,0-1.7,0.7-1.7,1.6s0.7,1.7,1.6,1.7c0,0,0.1,0,0.1,0h11.6
		c0.9,0,1.6-0.8,1.6-1.7C71.4,57.5,70.7,56.8,69.8,56.8z"/>
	<path id="Path_10985" class="st7" d="M44.9,26.8h10c0.9,0,1.7-0.7,1.7-1.6s-0.7-1.7-1.6-1.7c0,0-0.1,0-0.1,0h-10
		c-2.8,0-5,2.3-4.9,5.1c0,2.7,2.2,4.9,4.9,4.9h10c0.9,0,1.7-0.7,1.7-1.6s-0.7-1.7-1.6-1.7c0,0-0.1,0-0.1,0h-10
		c-0.9,0-1.7-0.7-1.7-1.7C43.2,27.6,44,26.8,44.9,26.8C44.9,26.8,44.9,26.8,44.9,26.8L44.9,26.8z"/>
</g>
</svg>
