<?xml version="1.0" encoding="utf-8"?>
<!-- Generator: Adobe Illustrator 24.2.3, SVG Export Plug-In . SVG Version: 6.00 Build 0)  -->
<svg version="1.1" id="Layer_1" xmlns="http://www.w3.org/2000/svg" xmlns:xlink="http://www.w3.org/1999/xlink" x="0px" y="0px"
	 viewBox="0 0 97 94" style="enable-background:new 0 0 97 94;" xml:space="preserve">
<style type="text/css">
	.st0{fill:#4DBBEB;}
	.st1{fill:#FFFFFF;}
	.st2{fill:#FEB756;}
	.st3{fill:#FFCD19;}
	.st4{fill:#120B69;}
</style>
<path class="st0" d="M91.4,16.6l-5.3-0.5v42.5c0,2.7-2.1,4.8-4.8,4.8H7l-0.2,0.8c-0.3,2.6,1.6,5,4.3,5.3l74.4,8.4
	c2.6,0.3,5-1.6,5.3-4.3l4.8-51.7C96.1,19.3,94.2,16.9,91.4,16.6"/>
<path class="st1" d="M81.3,63.4H7.2c-2.7,0-4.8-2.1-4.8-4.8V7.1c0-2.7,2.1-4.8,4.8-4.8h74.1c2.7,0,4.8,2.1,4.8,4.8v51.5
	C86.1,61.3,84,63.4,81.3,63.4"/>
<path class="st2" d="M5.4,26.4H87V12.9H5.4V26.4z"/>
<path class="st3" d="M55.3,56.8h25.8V42.3H55.3V56.8z"/>
<path class="st4" d="M81.3,3.8c1.8,0,3.2,1.4,3.2,3.2v51.5c0,1.8-1.4,3.2-3.2,3.2H7.2c-1.8,0-3.2-1.4-3.2-3.2V7.1
	c0-1.8,1.4-3.2,3.2-3.2L81.3,3.8z M81.3,65c3.5,0,6.4-2.9,6.4-6.4V7.1c0-3.5-2.9-6.4-6.4-6.4H7.2c-3.5,0-6.4,2.9-6.4,6.4v51.5
	c0,3.5,2.9,6.4,6.4,6.4H81.3L81.3,65z"/>
<path class="st4" d="M4,11.9h80.5v9.7H4L4,11.9z M87.7,23.2V10.3c0-1-0.6-1.6-1.6-1.6H2.4c-1,0-1.6,0.6-1.6,1.6v12.9
	c0,1,0.6,1.6,1.6,1.6h83.7C87.1,24.8,87.7,24.1,87.7,23.2L87.7,23.2z M53.9,40.9h22.5v11.3H53.9V40.9z M79.7,53.8V39.3
	c0-1-0.6-1.6-1.6-1.6H52.3c-1,0-1.6,0.6-1.6,1.6v14.5c0,1,0.6,1.6,1.6,1.6h25.8C79,55.4,79.7,54.7,79.7,53.8z M21.7,34.4H8.8
	c-1,0-1.6-0.6-1.6-1.6s0.6-1.6,1.6-1.6h12.9c1,0,1.6,0.6,1.6,1.6C23.3,33.8,22.7,34.4,21.7,34.4z M41,34.4H28.1
	c-1,0-1.6-0.6-1.6-1.6s0.6-1.6,1.6-1.6H41c1,0,1.6,0.6,1.6,1.6C42.6,33.8,42,34.4,41,34.4L41,34.4z M29.7,40.9H8.8
	c-1,0-1.6-0.6-1.6-1.6c0-1,0.6-1.6,1.6-1.6h20.9c1,0,1.6,0.6,1.6,1.6C31.4,40.2,30.7,40.9,29.7,40.9z M41,40.9h-4.8
	c-1,0-1.6-0.6-1.6-1.6c0-1,0.6-1.6,1.6-1.6H41c1,0,1.6,0.6,1.6,1.6C42.6,40.2,42,40.9,41,40.9L41,40.9z"/>
<path class="st4" d="M8.6,65h72.6c3.5,0,6.4-2.9,6.4-6.4V17.8l3.7,0.3c0.8,0,1.6,0.5,2.1,1.1c0.5,0.6,0.8,1.6,0.6,2.4l-4.8,51.7
	c-0.2,1.8-1.8,3.1-3.5,2.9l-74.2-8.4C9.9,67.8,8.8,66.5,8.6,65L8.6,65z M86.1,79.5c3.2,0,6.1-2.4,6.4-5.5l4.8-51.7
	c0.2-1.6-0.3-3.4-1.4-4.7c-1.1-1.5-2.6-2.3-4.3-2.4l-5.3-0.6c-0.5-0.2-1,0-1.3,0.3c-0.3,0.2-0.5,0.6-0.5,1.1v42.5
	c0,1.8-1.4,3.2-3.2,3.2H7c-0.8,0-1.4,0.6-1.4,1.5l-0.2,0.8c-0.5,3.4,1.9,6.6,5.4,7.1c0.1,0,0.2,0,0.3,0l74.4,8.4H86.1z"/>
</svg>
