<svg xmlns="http://www.w3.org/2000/svg" viewBox="0 0 612 612"><defs><style>.cls-1{fill:none;}.cls-2{fill:#ffcd19;}.cls-3{fill:#40bdff;}.cls-4{fill:#feb756;}.cls-5{fill:#2197f7;}.cls-6{fill:#fe9d56;}.cls-7{fill:#ffa800;}.cls-8{fill:#120b69;}</style></defs><g id="Layer_2" data-name="Layer 2"><g id="Layer_1-2" data-name="Layer 1"><rect id="svgEditorBackground" class="cls-1" width="612" height="612"/><circle id="e8_circle" data-name="e8 circle" class="cls-2" cx="437.8" cy="484.3" r="100.1"/><path class="cls-3" d="M149.6,51.3a4.8,4.8,0,0,1,4.8-4.8H455.6a4.8,4.8,0,0,1,4.8,4.8v55h26.3V39.4a19.1,19.1,0,0,0-19.1-19.1H154.3a19.1,19.1,0,0,0-19.1,19.1v66.9h14.3Z"/><path class="cls-4" d="M498.2,328.3V309.7H460v19.1a19.07,19.07,0,0,0,19.8,19.1C490.2,347.6,498.2,338.7,498.2,328.3Z"/><path class="cls-4" d="M319.8,259.8a43.23,43.23,0,0,0-42.6,36.9L277,298h85.6l-.2-1.4A43.3,43.3,0,0,0,319.8,259.8Z"/><path class="cls-4" d="M167.8,327.3V308.7H129.6v19.1a19.07,19.07,0,0,0,19.8,19.1C159.8,346.6,167.8,337.7,167.8,327.3Z"/><path class="cls-5" d="M478.1,21.3h-12a19.1,19.1,0,0,1,19.1,19.1v66.9h12V40.4A19.16,19.16,0,0,0,478.1,21.3Z"/><path class="cls-6" d="M482.1,308.7v19.1A18.94,18.94,0,0,1,469,345.9a19.12,19.12,0,0,0,24.1-12.2,19.86,19.86,0,0,0,1-6V308.6h-12Z"/><path class="cls-6" d="M351.8,297.7a43.23,43.23,0,0,0-42.6-36.9,40.47,40.47,0,0,0-6,.5,43.17,43.17,0,0,1,36.6,36.4l.2,1.4h12Z"/><path class="cls-7" d="M516.8,478.1h12a100.37,100.37,0,0,0-94.2-95.4h-1.3V384A100.48,100.48,0,0,1,516.8,478.1Z"/><path class="cls-7" d="M434.3,582.9v1.4c53.5-3.2,92.4-43.2,95.5-95.5h-12C514.9,537.1,481.5,574.8,434.3,582.9Z"/><path class="cls-6" d="M151.7,307.6v19.1a18.94,18.94,0,0,1-13.1,18.1,19.12,19.12,0,0,0,24.1-12.2,19.86,19.86,0,0,0,1-6V307.5h-12Z"/><path id="e11_path" data-name="e11 path" class="cls-8" d="M562.6,104.5l-46.9.6c-1.1,0,2.9,1.5-1.7.3V40.8c-.1-17.9-10.5-37-27.4-37L124,3.7C107.1,3.7,94.9,16.1,94.9,33l1,69.3a2.09,2.09,0,0,1-2,2.1l-59.4.2A30.6,30.6,0,0,0,3.9,135.2V467.8c0,26.8,5.7,30.5,30.6,30.6l269.6-.2a.47.47,0,0,1,.5.5c1.6,60.4,58.8,106.7,121.7,106.7,64.4,0,120.4-45.8,120.8-105.5a1.31,1.31,0,0,1,1.4-1.4h14.4c23.2,0,41.4-2.3,41.4-28.2V135.7c0-26.8-20.3-30.3-41.5-31.2ZM124,39.2a18.31,18.31,0,0,1,18.3-18.3H474.9a18.31,18.31,0,0,1,18.3,18.3v67.3H468.7v-55a6.06,6.06,0,0,0-6.1-6.1h-308a6.06,6.06,0,0,0-6.1,6.1v55H124ZM450.6,63.3v43.2H167.8V63.2Zm50.8,430.3H531c-4.1,48.2-45.1,89.2-96.4,92v-30c0-3.6-3.1-5.7-6.7-6-10.7-.9-10.7,3.3-10.7,6.6v29.3c-51.4-2.8-87.2-40-90-91.3l29.9.4c3.4,0,6.1-3.6,6.1-7h0c-.1-.4,1.6-9.6-6.1-9.5H327.2c3.2-51.2,40.9-91.8,92.1-94.9v29.9a5.86,5.86,0,0,0,5.3,5.8c7.9.8,10-2.6,10-6.1V383a101.74,101.74,0,0,1,95.2,95.2H499.9a6.11,6.11,0,0,0-6.1,6.3C493.8,487.9,494,493.4,501.4,493.6ZM583,464.1c-.2,7-4.5,12.9-23,12.6H550c-1,0-3.8-.1-3.8-1.8,0-56.7-56.3-113.5-117.8-113.5-67.5,0-122.5,60.4-125.3,115.3H54S31.4,475.2,31.4,463V303.7c2.3,1.6,12.4,5.8,22.9,5.8h57.5v17.7c0,16.7,13.1,30.7,29.7,31.2a30.53,30.53,0,0,0,31.4-30.6V309.5H444.4v17.7c0,16.7,13.1,30.7,29.7,31.2a30.53,30.53,0,0,0,31.4-30.6V309.5H563c10.5,0,13.1,3.2,20.6-4.1ZM124,327.8V309.5h36.7v18.3a18.35,18.35,0,0,1-36.7,0Zm142.3-30.6a42.79,42.79,0,0,1,84.7,0Zm190.3,30.6V309.5h36.7v18.3a18.35,18.35,0,0,1-36.7,0ZM582,269c0,15.5-2.5,21-18,21l-195,1c-3.4-30.2-18-49-63-50-45,2-53.1,26.5-56,52L55,290c-15.5,0-23.5,0-23.5-15.5L33,147c0-10.1,6.3-15.8,16.4-15.9l519.4.6c10.1,0,13.1,11.2,13.1,21.3V269Z"/><path class="cls-8" d="M429.1,481.2V437.1a6,6,0,0,0-12,0V483a5.28,5.28,0,0,0,1,3.2l21.5,33.5a6,6,0,0,0,10.1-6.5Z"/></g></g></svg>